<?xml version="1.0" encoding="utf-8"?>
<!-- Generator: Adobe Illustrator 15.0.0, SVG Export Plug-In . SVG Version: 6.00 Build 0)  -->
<!DOCTYPE svg PUBLIC "-//W3C//DTD SVG 1.1//EN" "http://www.w3.org/Graphics/SVG/1.1/DTD/svg11.dtd">
<svg version="1.1" id="Layer_1" xmlns="http://www.w3.org/2000/svg" xmlns:xlink="http://www.w3.org/1999/xlink" x="0px" y="0px"
	 width="468px" height="553px" viewBox="0 0 468 553" enable-background="new 0 0 468 553" xml:space="preserve">
<rect y="368.667" fill="#1C698A" width="468" height="184.333"/>
<rect fill="#B0A67A" width="468" height="368.667"/>
<g>
	<path d="M63.397,47.724h-6.437c-0.266-3.892-1.45-6.934-3.551-9.124c-2.102-2.19-4.922-3.284-8.46-3.284
		c-3.981,0-7.144,1.503-9.489,4.512c-2.345,3.009-3.517,7.079-3.517,12.21c0,5.485,1.116,9.699,3.351,12.641
		c2.234,2.942,5.43,4.412,9.589,4.412c3.406,0,6.193-1.05,8.36-3.152c2.167-2.1,3.605-5.143,4.313-9.124l6.769-0.065
		c-0.708,6.062-2.931,10.729-6.669,14.001c-3.739,3.274-8.638,4.91-14.698,4.91c-6.636,0-12.121-2.167-16.456-6.502
		C22.167,64.822,20,59.336,20,52.7c0-7.122,2.167-12.905,6.503-17.353c4.335-4.445,9.953-6.668,16.854-6.668
		c1.769,0,3.361,0.144,4.778,0.431c1.415,0.289,2.808,0.763,4.18,1.427c0.707,0.354,1.416,0.764,2.124,1.228
		c0.707,0.465,1.437,0.984,2.189,1.56l1.46-3.782h5.309V47.724z"/>
	<path d="M84.498,65.905c0,1.151,0.176,1.947,0.531,2.389c0.354,0.443,0.951,0.664,1.792,0.664h2.986v5.309H69.435v-5.309h2.787
		c0.929,0.044,1.57-0.154,1.924-0.599c0.354-0.442,0.532-1.219,0.532-2.328V38.373c0-1.064-0.178-1.807-0.532-2.229
		c-0.354-0.42-0.995-0.631-1.924-0.631h-2.787v-5.507h15.063V65.905z"/>
	<path d="M129.753,62.588v3.781c0,3.142-0.675,5.432-2.024,6.868c-1.35,1.438-3.462,2.156-6.337,2.156
		c-2.256,0-4.048-0.376-5.375-1.127c-1.327-0.752-2.345-1.947-3.053-3.584c-1.327,1.593-2.853,2.777-4.578,3.55
		c-1.726,0.773-3.628,1.161-5.707,1.161c-2.964,0-5.309-0.773-7.033-2.322c-1.726-1.548-2.588-3.67-2.588-6.37
		c0-3.272,1.029-5.507,3.086-6.701c2.057-1.195,4.324-2.079,6.801-2.654c0.354-0.089,0.719-0.177,1.096-0.266
		c0.375-0.089,0.74-0.154,1.094-0.199c2.034-0.441,3.815-0.984,5.341-1.626c1.527-0.641,2.29-1.825,2.29-3.55
		c0-1.681-0.63-2.963-1.891-3.85c-1.261-0.884-3.108-1.327-5.541-1.327c-0.575,0-1.051,0.012-1.426,0.034
		c-0.376,0.023-0.72,0.077-1.028,0.166c-0.222,0.044-0.455,0.121-0.697,0.231c-0.244,0.111-0.52,0.232-0.83,0.366
		c1.063,0.397,1.847,0.896,2.356,1.492c0.508,0.598,0.763,1.339,0.763,2.223c0,1.417-0.465,2.555-1.394,3.418
		c-0.929,0.862-2.146,1.294-3.649,1.294c-1.505,0-2.744-0.553-3.716-1.659c-0.973-1.105-1.459-2.499-1.459-4.18
		c0-2.61,1.161-4.635,3.484-6.072s5.563-2.156,9.721-2.156c5.397,0,9.246,0.841,11.546,2.521c2.3,1.683,3.451,4.446,3.451,8.295
		v14.666c0,0.84,0.099,1.425,0.298,1.757s0.542,0.498,1.029,0.498c0.574,0,0.972-0.221,1.194-0.664
		c0.221-0.44,0.332-1.215,0.332-2.322v-3.848H129.753z M111.87,59.8c-0.244,0.09-0.498,0.178-0.763,0.266
		c-0.265,0.09-0.521,0.178-0.763,0.266c-0.244,0.09-0.498,0.178-0.764,0.266c-0.31,0.133-0.62,0.256-0.929,0.364
		c-0.31,0.111-0.641,0.212-0.996,0.3c-0.044,0-0.088,0.012-0.132,0.032c-0.045,0.023-0.089,0.034-0.133,0.034
		c-1.151,0.31-2.18,0.729-3.086,1.261c-0.907,0.53-1.36,1.525-1.36,2.986c0,1.105,0.342,2.002,1.028,2.687
		c0.686,0.687,1.604,1.028,2.754,1.028c1.548,0,2.919-0.497,4.114-1.492c1.194-0.996,1.791-2.113,1.791-3.352v-4.978
		C112.367,59.602,112.112,59.712,111.87,59.8z"/>
	<path d="M147.27,47.326c0.796-0.974,1.503-1.804,2.123-2.489c0.62-0.686,1.239-1.227,1.859-1.626
		c0.664-0.486,1.348-0.818,2.057-0.995c0.707-0.177,1.503-0.265,2.388-0.265c1.991,0,3.583,0.674,4.778,2.023
		s1.792,3.151,1.792,5.408c0,1.725-0.498,3.118-1.493,4.181c-0.995,1.062-2.313,1.592-3.948,1.592c-1.372,0-2.5-0.452-3.384-1.359
		c-0.886-0.906-1.327-2.024-1.327-3.352c0-0.177,0.01-0.364,0.033-0.564c0.022-0.199,0.055-0.386,0.1-0.563
		c0.088-0.397,0.254-0.808,0.497-1.228c0.243-0.42,0.586-0.917,1.029-1.493c-1.726,0-3.019,0.708-3.882,2.123
		c-0.862,1.417-1.471,2.964-1.825,4.646c-0.177,0.841-0.298,1.682-0.365,2.521s-0.1,1.571-0.1,2.189v7.83
		c0,1.151,0.177,1.947,0.531,2.389c0.353,0.443,0.973,0.664,1.857,0.664h3.783v5.309h-21.367v-5.309h2.986
		c0.885,0.044,1.504-0.156,1.858-0.599c0.354-0.445,0.53-1.222,0.53-2.331V50.984c0-1.065-0.177-1.808-0.53-2.23
		c-0.354-0.421-0.974-0.633-1.858-0.633h-2.986v-5.507h15.196L147.27,47.326z"/>
	<path d="M175.206,59.668c0.266,3.407,1.062,5.938,2.389,7.597c1.327,1.659,3.229,2.489,5.707,2.489c1.99,0,3.66-0.541,5.01-1.626
		c1.349-1.083,2.333-2.664,2.953-4.744l6.37-0.066c-0.442,3.673-2.013,6.602-4.711,8.792c-2.699,2.19-6.083,3.284-10.152,3.284
		c-5.708,0-10.076-1.481-13.105-4.445c-3.031-2.963-4.546-7.233-4.546-12.808c0-4.909,1.515-8.868,4.546-11.876
		c3.029-3.009,7.022-4.513,11.977-4.513c5.176,0,9.212,1.476,12.11,4.43c2.896,2.952,4.346,7.073,4.346,12.362
		c0,0.044,0,0.1,0,0.166s0,0.143,0,0.23c-0.045,0.089-0.066,0.198-0.066,0.331s0,0.264,0,0.396H175.206z M186.387,49.416
		c-1.039-1.57-2.644-2.356-4.811-2.356c-1.903,0-3.396,0.647-4.479,1.942c-1.084,1.293-1.692,3.167-1.825,5.623h12.674
		C187.946,52.724,187.426,50.987,186.387,49.416z"/>
	<path d="M216.678,47.458c0.751-0.84,1.47-1.581,2.157-2.223c0.685-0.641,1.36-1.184,2.023-1.625
		c1.018-0.664,2.067-1.14,3.152-1.428c1.083-0.287,2.311-0.431,3.683-0.431c3.273,0,5.839,0.818,7.697,2.454
		c1.858,1.639,2.787,3.938,2.787,6.901v14.798c0,1.151,0.176,1.947,0.531,2.389c0.354,0.443,0.995,0.664,1.924,0.664h2.787v5.309
		h-19.243v-5.309h1.792c0.884,0.044,1.503-0.156,1.858-0.599c0.354-0.445,0.53-1.222,0.53-2.331V54.313
		c0-2.263-0.364-3.882-1.094-4.858s-1.958-1.465-3.683-1.465c-2.168,0-3.749,0.642-4.744,1.925s-1.493,3.296-1.493,6.038v9.953
		c0,1.151,0.176,1.947,0.531,2.389c0.354,0.443,0.973,0.664,1.858,0.664h1.659v5.309h-18.912v-5.309h2.654
		c0.885,0.044,1.503-0.154,1.858-0.599c0.354-0.443,0.532-1.219,0.532-2.328V50.996c0-1.064-0.178-1.808-0.532-2.228
		c-0.354-0.422-0.973-0.633-1.858-0.633l-2.654-0.067v-5.454h14.399L216.678,47.458z"/>
	<path d="M280.247,65.893c0,1.152,0.177,1.949,0.53,2.393c0.354,0.443,0.973,0.665,1.858,0.665l2.654-0.067v5.384h-14.333v-3.65
		c-1.371,1.726-2.887,2.953-4.546,3.684c-1.659,0.729-3.639,1.094-5.938,1.094c-4.025,0-7.256-1.493-9.688-4.479
		c-2.434-2.986-3.65-6.935-3.65-11.845c0-4.999,1.305-9.135,3.916-12.408c2.609-3.273,5.927-4.91,9.953-4.91
		c1.282,0,2.41,0.144,3.384,0.431c0.973,0.288,1.925,0.764,2.854,1.428c0.486,0.31,0.973,0.686,1.46,1.127
		c0.486,0.443,0.973,0.951,1.46,1.527v-7.831c0-1.105-0.178-1.869-0.531-2.289c-0.354-0.42-0.974-0.631-1.857-0.631h-2.854v-5.507
		h15.329V65.893z M257.619,59.204c0,3.494,0.542,6.138,1.626,7.929c1.083,1.791,2.665,2.688,4.745,2.688
		c2.033,0,3.682-0.996,4.943-2.986c1.26-1.991,1.891-4.579,1.891-7.765c0-3.538-0.563-6.238-1.691-8.095
		c-1.129-1.858-2.732-2.788-4.812-2.788c-2.08,0-3.716,0.985-4.91,2.954c-1.194,1.968-1.792,4.677-1.792,8.128V59.204z"/>
	<path d="M289.337,58.274c0.221-5.219,1.868-9.278,4.943-12.176c3.074-2.898,7.288-4.347,12.642-4.347
		c5.484,0,9.776,1.504,12.873,4.513c3.096,3.008,4.645,7.144,4.645,12.408c0,5.088-1.582,9.147-4.744,12.176
		c-3.163,3.031-7.398,4.545-12.707,4.545c-5.486,0-9.799-1.447-12.939-4.346c-3.142-2.896-4.712-7.133-4.712-12.707V58.274z
		 M299.821,58.208c0,3.894,0.598,6.857,1.792,8.892c1.193,2.035,2.941,3.053,5.242,3.053c2.3,0,4.058-1.018,5.275-3.053
		c1.216-2.034,1.824-4.998,1.824-8.892c0-3.405-0.63-6.115-1.891-8.128s-2.977-3.021-5.143-3.021c-2.213,0-3.949,0.985-5.209,2.953
		c-1.262,1.97-1.892,4.723-1.892,8.262V58.208z"/>
	<path d="M343.02,47.458c0.751-0.84,1.47-1.581,2.156-2.223c0.685-0.641,1.36-1.184,2.023-1.625c1.018-0.664,2.067-1.14,3.152-1.428
		c1.083-0.287,2.311-0.431,3.683-0.431c3.272,0,5.839,0.818,7.697,2.454c1.858,1.639,2.787,3.938,2.787,6.901v14.798
		c0,1.151,0.176,1.947,0.531,2.389c0.353,0.443,0.995,0.664,1.924,0.664h2.787v5.309h-19.243v-5.309h1.791
		c0.885,0.044,1.504-0.156,1.858-0.599c0.354-0.445,0.53-1.222,0.53-2.331V54.313c0-2.263-0.364-3.882-1.094-4.858
		c-0.73-0.977-1.958-1.465-3.684-1.465c-2.168,0-3.749,0.642-4.744,1.925s-1.493,3.296-1.493,6.038v9.953
		c0,1.151,0.177,1.947,0.53,2.389c0.354,0.443,0.973,0.664,1.858,0.664h1.659v5.309h-18.912v-5.309h2.654
		c0.885,0.044,1.504-0.154,1.857-0.599c0.354-0.443,0.532-1.219,0.532-2.328V50.996c0-1.064-0.178-1.808-0.532-2.228
		c-0.354-0.422-0.973-0.633-1.857-0.633l-2.654-0.067v-5.454h14.399L343.02,47.458z"/>
</g>
<g>
	<g>
		<path d="M33.957,146.934c-0.114,0.305-0.237,0.617-0.37,0.94c-0.134,0.322-0.257,0.636-0.37,0.94
			c-0.114,0.227-0.209,0.445-0.285,0.654c-0.076,0.208-0.152,0.426-0.228,0.655c-0.19,0.455-0.341,0.911-0.456,1.366
			c-0.114,0.457-0.171,0.894-0.171,1.312c0,0.569,0.208,0.938,0.626,1.11c0.417,0.172,1.272,0.256,2.564,0.256h1.652v4.729H20
			v-4.729c1.519,0.039,2.715-0.113,3.589-0.456c0.874-0.342,1.633-1.255,2.279-2.739c0.152-0.342,0.304-0.685,0.456-1.027
			c0.151-0.342,0.304-0.666,0.456-0.97c0.038-0.114,0.076-0.209,0.115-0.285c0.037-0.077,0.075-0.152,0.113-0.229
			c0.229-0.419,0.446-0.837,0.655-1.254c0.209-0.42,0.389-0.857,0.541-1.313l10.027-24.996h8.659l11.849,27.287
			c0.228,0.57,0.446,1.083,0.655,1.54c0.209,0.454,0.408,0.873,0.599,1.252c0.607,1.141,1.311,1.958,2.107,2.451
			c0.797,0.493,2.089,0.739,3.874,0.739v4.729H44.896v-4.729h1.994c1.139,0.039,1.974-0.067,2.506-0.318
			c0.531-0.251,0.798-0.626,0.798-1.128c0-0.386-0.077-0.829-0.228-1.331c-0.152-0.502-0.323-1.004-0.513-1.506
			c-0.076-0.154-0.152-0.308-0.228-0.463c-0.077-0.154-0.152-0.327-0.228-0.52c-0.152-0.348-0.305-0.694-0.456-1.042
			c-0.152-0.347-0.285-0.656-0.399-0.927H33.957z M40.623,129.501l-4.842,12.533h10.197L40.623,129.501z"/>
		<path d="M99.927,148.87v3.248c0,2.696-0.58,4.663-1.738,5.896c-1.159,1.233-2.972,1.852-5.44,1.852
			c-1.937,0-3.475-0.323-4.614-0.969c-1.14-0.646-2.014-1.671-2.621-3.076c-1.139,1.367-2.449,2.385-3.93,3.047
			c-1.482,0.665-3.115,0.998-4.9,0.998c-2.544,0-4.557-0.664-6.038-1.994c-1.481-1.329-2.222-3.151-2.222-5.47
			c0-2.809,0.883-4.728,2.649-5.753c1.765-1.025,3.711-1.784,5.839-2.279c0.304-0.075,0.616-0.15,0.939-0.228
			c0.322-0.075,0.636-0.133,0.94-0.171c1.746-0.379,3.275-0.845,4.585-1.396c1.312-0.55,1.966-1.566,1.966-3.048
			c0-1.443-0.541-2.543-1.623-3.305c-1.083-0.759-2.669-1.139-4.757-1.139c-0.494,0-0.903,0.01-1.225,0.029
			c-0.323,0.02-0.618,0.065-0.883,0.141c-0.191,0.039-0.391,0.105-0.6,0.2c-0.208,0.096-0.446,0.198-0.711,0.314
			c0.911,0.341,1.585,0.769,2.022,1.281c0.436,0.513,0.655,1.148,0.655,1.907c0,1.217-0.399,2.194-1.196,2.935
			c-0.798,0.74-1.842,1.111-3.133,1.111c-1.292,0-2.355-0.475-3.19-1.425c-0.835-0.949-1.253-2.146-1.253-3.588
			c0-2.241,0.997-3.979,2.99-5.214c1.994-1.233,4.776-1.852,8.346-1.852c4.633,0,7.938,0.723,9.913,2.165
			c1.975,1.444,2.963,3.817,2.963,7.121v12.591c0,0.721,0.085,1.224,0.256,1.509s0.465,0.428,0.883,0.428
			c0.493,0,0.834-0.19,1.025-0.57c0.19-0.379,0.285-1.044,0.285-1.994v-3.304H99.927z M84.573,146.477
			c-0.209,0.077-0.427,0.152-0.655,0.229c-0.228,0.076-0.447,0.152-0.655,0.228c-0.208,0.076-0.427,0.152-0.655,0.228
			c-0.266,0.113-0.532,0.22-0.798,0.313c-0.266,0.095-0.55,0.182-0.854,0.257c-0.039,0-0.077,0.01-0.114,0.028
			c-0.039,0.02-0.077,0.027-0.115,0.027c-0.987,0.267-1.871,0.628-2.649,1.083c-0.779,0.456-1.167,1.31-1.167,2.564
			c0,0.949,0.293,1.719,0.883,2.306c0.589,0.59,1.376,0.885,2.364,0.885c1.329,0,2.507-0.428,3.532-1.283
			c1.025-0.854,1.537-1.813,1.537-2.877v-4.272C85,146.308,84.781,146.401,84.573,146.477z"/>
		<path d="M157.293,135.769h-5.07c-0.19-3.115-0.712-5.545-1.567-7.293c-0.854-1.746-3.124-2.62-6.808-2.62l-10.026-0.058v11.052
			h3.874c1.67,0.038,2.81-0.266,3.418-0.912c0.607-0.645,0.912-1.822,0.912-3.531v-2.05h5.127v18.114h-5.127v-2.278
			c0-1.746-0.285-2.905-0.855-3.475c-0.569-0.57-1.729-0.855-3.475-0.855h-3.874v12.151h10.767c2.696,0.039,4.644-0.832,5.84-2.612
			c1.196-1.777,1.794-4.674,1.794-8.687l5.355-0.057l-0.285,16.238h-38.91v-4.67h2.962c1.14,0.037,1.937-0.152,2.393-0.57
			c0.456-0.419,0.685-1.102,0.685-2.053v-23.299c0-0.948-0.229-1.624-0.685-2.022c-0.456-0.397-1.253-0.599-2.393-0.599h-2.962
			v-4.785h38.91V135.769z"/>
		<path d="M171.364,146.363c0.228,2.926,0.911,5.1,2.05,6.523s2.772,2.136,4.9,2.136c1.709,0,3.142-0.464,4.301-1.396
			c1.158-0.93,2.003-2.287,2.535-4.073l5.469-0.058c-0.38,3.154-1.729,5.668-4.044,7.549c-2.317,1.881-5.222,2.82-8.716,2.82
			c-4.899,0-8.65-1.271-11.251-3.816c-2.602-2.544-3.903-6.21-3.903-10.996c0-4.215,1.301-7.613,3.903-10.196
			c2.601-2.583,6.028-3.874,10.282-3.874c4.443,0,7.909,1.267,10.397,3.803c2.486,2.535,3.731,6.073,3.731,10.613
			c0,0.038,0,0.087,0,0.143c0,0.058,0,0.123,0,0.198c-0.039,0.076-0.058,0.171-0.058,0.284c0,0.114,0,0.227,0,0.34H171.364z
			 M180.963,137.563c-0.892-1.349-2.27-2.023-4.13-2.023c-1.633,0-2.916,0.556-3.845,1.668c-0.931,1.109-1.453,2.719-1.567,4.827
			h10.881C182.302,140.402,181.855,138.911,180.963,137.563z"/>
		<path d="M248.328,135.824h-5.127c-0.305-3.19-1.453-5.716-3.447-7.577c-1.994-1.86-4.529-2.79-7.605-2.79
			c-3.38,0-6.038,1.31-7.975,3.93c-1.937,2.621-2.905,6.249-2.905,10.881c0,4.559,0.949,8.061,2.848,10.512
			c1.898,2.449,4.633,3.674,8.204,3.674c2.202,0,4.044-0.464,5.526-1.396c1.48-0.93,2.222-2.08,2.222-3.446v-3.135
			c0-0.947-0.228-1.622-0.684-2.021c-0.456-0.399-1.253-0.6-2.393-0.6h-3.134v-4.785h20.907v4.785
			c-2.317,0.039-3.816,0.172-4.499,0.398c-0.684,0.228-1.026,1.003-1.026,2.325v12.316h-5.412l-1.196-3.36
			c-0.455,0.418-0.893,0.788-1.311,1.11c-0.418,0.323-0.836,0.638-1.253,0.939c-1.443,0.875-2.915,1.511-4.415,1.91
			c-1.501,0.398-3.219,0.597-5.156,0.597c-5.849,0-10.558-1.813-14.128-5.439c-3.571-3.628-5.355-8.423-5.355-14.386
			c0-6.152,1.852-11.107,5.554-14.869c3.703-3.759,8.593-5.639,14.67-5.639c1.633,0,3.19,0.199,4.671,0.598
			c1.481,0.398,2.925,1.017,4.33,1.851c0.418,0.229,0.826,0.467,1.225,0.713c0.399,0.248,0.788,0.522,1.168,0.827l1.196-3.249h4.501
			V135.824z"/>
		<path d="M280.174,133.317c0.113-0.113,0.228-0.236,0.342-0.37c0.113-0.133,0.227-0.275,0.342-0.428
			c0.834-0.872,1.681-1.5,2.534-1.879c0.855-0.38,1.852-0.569,2.991-0.569c1.442,0,2.64,0.418,3.589,1.252
			c0.95,0.836,1.425,1.919,1.425,3.249c0,1.139-0.342,2.088-1.025,2.848s-1.559,1.14-2.621,1.14c-0.874,0-1.614-0.276-2.222-0.826
			c-0.608-0.551-0.911-1.206-0.911-1.965c0-0.229,0.008-0.437,0.028-0.628c0.019-0.189,0.065-0.379,0.142-0.568
			c0.076-0.191,0.18-0.38,0.313-0.57c0.133-0.19,0.294-0.399,0.485-0.627c-0.152-0.076-0.277-0.123-0.371-0.143
			c-0.096-0.019-0.199-0.028-0.313-0.028c-0.038,0-0.076,0-0.114,0c-0.493,0-0.987,0.152-1.48,0.455
			c-0.494,0.305-0.95,0.741-1.367,1.312c0.834,0.911,1.424,1.871,1.766,2.877s0.514,2.25,0.514,3.73c0,3.229-1.16,5.793-3.477,7.69
			c-2.316,1.899-5.487,2.85-9.514,2.85c-1.177,0-2.307-0.087-3.389-0.257c-1.083-0.171-2.061-0.427-2.934-0.77
			c-0.533,0.267-0.912,0.551-1.141,0.855c-0.228,0.304-0.341,0.684-0.341,1.139c0,0.722,0.265,1.244,0.797,1.567
			c0.531,0.322,1.349,0.484,2.45,0.484c0.037,0,0.075,0,0.113,0c0.037,0,0.076,0,0.114,0c0.075-0.038,0.133-0.058,0.171-0.058
			l11.564-0.342c0.076,0.039,0.161,0.057,0.256,0.057c0.096,0,0.18-0.018,0.258-0.057c0.074,0,0.15,0,0.228,0
			c0.076,0,0.151,0,0.228,0c2.393,0,4.576,0.399,6.551,1.197c1.975,0.797,2.963,2.639,2.963,5.525c0,3.037-1.13,5.156-3.39,6.352
			c-2.26,1.196-4.738,1.946-7.435,2.25c-1.216,0.151-2.412,0.237-3.589,0.257c-1.178,0.018-2.26,0.027-3.247,0.027
			c-5.09,0-8.707-0.389-10.853-1.167c-2.146-0.778-3.219-2.118-3.219-4.016c0-0.989,0.294-1.806,0.883-2.451
			s1.566-1.233,2.935-1.765c-1.254-0.38-2.185-0.95-2.792-1.71c-0.607-0.758-0.911-1.785-0.911-3.076
			c0-1.481,0.379-2.62,1.139-3.418c0.76-0.797,1.689-1.538,2.792-2.221c0.151-0.115,0.313-0.219,0.483-0.314
			c0.172-0.095,0.352-0.199,0.542-0.314c-1.406-0.796-2.44-1.868-3.104-3.217c-0.665-1.349-0.998-3.01-0.998-4.984
			c0-3.381,1.178-6.021,3.532-7.919c2.355-1.9,5.603-2.85,9.742-2.85c1.177,0,2.23,0.077,3.161,0.229
			c0.931,0.15,1.832,0.418,2.707,0.796c0.418,0.152,0.854,0.352,1.311,0.599c0.455,0.247,0.911,0.522,1.367,0.826V133.317z
			 M264.107,162.543c-0.266,0.38-0.398,0.815-0.398,1.311c0,1.025,0.636,1.774,1.908,2.25c1.272,0.475,3.257,0.712,5.954,0.712
			c3.569,0,6.095-0.209,7.577-0.626c1.48-0.419,2.221-1.179,2.221-2.279c0-0.95-0.455-1.586-1.367-1.908
			c-0.911-0.323-2.754-0.485-5.525-0.485h-9.172C264.772,161.821,264.373,162.162,264.107,162.543z M266.558,141.35
			c0,2.242,0.428,4.008,1.282,5.299c0.854,1.292,1.983,1.937,3.389,1.937c1.367,0,2.479-0.655,3.333-1.966
			c0.855-1.31,1.282-3.009,1.282-5.098c0-2.127-0.427-3.836-1.282-5.127c-0.854-1.291-1.985-1.938-3.39-1.938
			c-1.405,0-2.525,0.627-3.361,1.88c-0.836,1.254-1.253,2.943-1.253,5.071V141.35z"/>
	</g>
	<g>
		<path d="M54.295,206.862v-18.685c0-0.949-0.228-1.625-0.684-2.023s-1.253-0.598-2.393-0.598h-2.678v-4.785h17.034v4.785h-2.223
			c-1.139,0.039-1.937,0.257-2.393,0.654c-0.455,0.399-0.683,1.09-0.683,2.076v30.482h-9.172l-19.084-26.662v19.313
			c0,0.987,0.228,1.689,0.683,2.108c0.456,0.418,1.253,0.626,2.393,0.626h2.963v4.614H20v-4.614h2.962
			c1.139,0.038,1.937-0.152,2.392-0.571c0.457-0.418,0.684-1.104,0.684-2.055v-23.347c0-0.95-0.227-1.626-0.684-2.025
			c-0.455-0.401-1.253-0.601-2.392-0.601H20v-4.785h15.666L54.295,206.862z"/>
		<path d="M81.355,195.754c0.645-0.721,1.262-1.357,1.852-1.908c0.588-0.55,1.167-1.016,1.737-1.395
			c0.874-0.57,1.775-0.979,2.706-1.226s1.984-0.37,3.162-0.37c2.81,0,5.013,0.703,6.608,2.107c1.595,1.405,2.392,3.381,2.392,5.925
			v12.704c0,0.988,0.152,1.671,0.457,2.051c0.303,0.38,0.854,0.57,1.652,0.57h2.393v4.557H87.792v-4.557h1.538
			c0.76,0.037,1.291-0.135,1.596-0.515c0.304-0.382,0.456-1.049,0.456-2.001v-10.059c0-1.942-0.313-3.332-0.94-4.172
			c-0.626-0.837-1.68-1.257-3.162-1.257c-1.861,0-3.219,0.551-4.073,1.653c-0.855,1.101-1.282,2.828-1.282,5.183v8.546
			c0,0.988,0.151,1.671,0.455,2.051c0.304,0.38,0.835,0.57,1.596,0.57h1.424v4.557H69.163v-4.557h2.279
			c0.76,0.037,1.291-0.133,1.595-0.515c0.304-0.381,0.456-1.046,0.456-1.999v-12.908c0-0.913-0.152-1.552-0.456-1.912
			c-0.304-0.361-0.835-0.543-1.595-0.543l-2.279-0.058v-4.683h12.362L81.355,195.754z"/>
		<path d="M164.357,213.471h5.185c-0.267,3.988-1.168,7.017-2.706,9.087c-1.538,2.07-3.618,3.105-6.238,3.105
			c-1.861,0-3.561-0.562-5.099-1.681c-1.538-1.12-2.763-2.726-3.675-4.814c-1.063,0.266-2.222,0.475-3.475,0.627
			s-2.526,0.229-3.816,0.229c-6.381,0-11.442-1.813-15.183-5.44s-5.612-8.555-5.612-14.784c0-6.229,1.938-11.146,5.812-14.754
			c3.874-3.608,9.133-5.412,15.78-5.412c6.267,0,11.289,1.832,15.068,5.496c3.779,3.666,5.668,8.556,5.668,14.67
			c0,3.685-0.684,6.913-2.051,9.685c-1.367,2.772-3.532,5.242-6.494,7.405c0.304,0.457,0.578,0.837,0.826,1.141
			c0.247,0.304,0.503,0.552,0.769,0.74c0.304,0.228,0.617,0.398,0.94,0.513c0.322,0.113,0.655,0.171,0.997,0.171
			c1.14,0,1.975-0.466,2.507-1.396c0.532-0.929,0.797-2.439,0.797-4.527V213.471z M153.248,210.565
			c0.874-1.252,1.52-2.763,1.938-4.527c0.417-1.767,0.627-3.827,0.627-6.182c0-4.672-0.96-8.384-2.877-11.138
			c-1.918-2.753-4.51-4.131-7.776-4.131c-3.57,0-6.324,1.339-8.261,4.018c-1.937,2.677-2.905,6.466-2.905,11.365
			c0,2.089,0.208,4.007,0.626,5.753c0.417,1.748,1.063,3.382,1.937,4.899c0.189-0.379,0.371-0.722,0.541-1.024
			c0.171-0.305,0.333-0.608,0.484-0.911c0.873-1.368,1.784-2.317,2.734-2.85c0.949-0.531,2.203-0.798,3.761-0.798
			c1.784,0,3.408,0.446,4.87,1.339s2.896,2.309,4.301,4.244V210.565z M148.805,214.497c-0.835-1.519-1.681-2.649-2.535-3.39
			s-1.775-1.11-2.763-1.11c-1.139,0-2.032,0.341-2.677,1.025c-0.647,0.684-1.007,1.634-1.083,2.848
			c0.645,0.419,1.415,0.731,2.308,0.94c0.892,0.21,1.908,0.313,3.047,0.313c0.342,0,0.645-0.01,0.912-0.028
			c0.265-0.02,0.531-0.048,0.797-0.086c0.304-0.037,0.607-0.095,0.912-0.171c0.303-0.076,0.664-0.171,1.082-0.285V214.497z"/>
		<path d="M203.894,191.596v4.614h-2.279c-0.76,0.038-1.282,0.237-1.567,0.598c-0.285,0.362-0.427,1.036-0.427,2.022v24.213
			c0,0.986,0.143,1.66,0.427,2.021c0.285,0.361,0.807,0.541,1.567,0.541h2.279v4.614h-17.489v-4.614h2.734
			c0.759,0,1.291-0.189,1.595-0.568c0.303-0.382,0.456-1.046,0.456-1.994v-6.666c-0.95,1.178-2.042,2.022-3.276,2.535
			c-1.234,0.513-2.725,0.769-4.472,0.769c-3.798,0-6.75-1.233-8.859-3.703c-2.107-2.468-3.161-5.961-3.161-10.481
			c0-4.406,1.091-7.956,3.275-10.653c2.184-2.696,5.08-4.045,8.688-4.045c1.709,0,3.219,0.333,4.528,0.998
			c1.311,0.663,2.459,1.68,3.447,3.047l-0.171-3.247H203.894z M180.422,205.438c0,3.153,0.475,5.489,1.424,7.008
			c0.949,1.52,2.374,2.279,4.273,2.279c1.671,0,2.962-0.836,3.874-2.507c0.912-1.672,1.367-3.988,1.367-6.95
			c0-2.658-0.476-4.805-1.424-6.438c-0.95-1.632-2.203-2.449-3.76-2.449c-1.862,0-3.286,0.789-4.272,2.364
			c-0.988,1.576-1.482,3.826-1.482,6.751V205.438z"/>
		<path d="M238.814,211.421c0,0.987,0.229,1.689,0.684,2.108c0.456,0.418,1.254,0.626,2.393,0.626h2.963v4.614h-21.478v-4.614h2.963
			c1.139,0.038,1.937-0.152,2.393-0.571c0.456-0.418,0.683-1.104,0.683-2.055v-23.347c0-0.95-0.227-1.626-0.683-2.025
			c-0.456-0.401-1.254-0.601-2.393-0.601h-2.963v-4.785h27.572c3.647,0.038,6.457,0.874,8.433,2.506
			c1.974,1.634,2.962,3.951,2.962,6.951c0,2.316-0.693,4.207-2.079,5.668c-1.387,1.464-3.484,2.517-6.295,3.162
			c2.051,0.722,3.503,1.558,4.357,2.508c0.854,0.948,1.281,2.24,1.281,3.872v5.64c0,0.114,0,0.229,0,0.343
			c0,0.114,0.02,0.228,0.058,0.341c0,0.114,0,0.229,0,0.344c0,0.113,0,0.227,0,0.341c0.038,0.532,0.161,1.034,0.37,1.511
			c0.209,0.475,0.636,0.711,1.281,0.711c0.57,0,0.988-0.293,1.254-0.883c0.266-0.589,0.399-1.472,0.399-2.649v-3.246h4.5v3.188
			c0,3.002-0.684,5.205-2.05,6.608c-1.368,1.406-3.496,2.108-6.381,2.108c-2.697,0-4.796-0.592-6.295-1.771
			c-1.502-1.181-2.308-2.915-2.422-5.2l-0.342-6.4c-0.113-2.133-0.504-3.543-1.168-4.229c-0.665-0.686-2.022-1.028-4.073-1.028
			h-5.925V211.421z M245.48,196.268c2.393,0.037,4.158-0.398,5.297-1.311c1.141-0.912,1.709-2.316,1.709-4.215
			c0-1.861-0.578-3.162-1.736-3.904c-1.159-0.739-3.162-1.109-6.011-1.109l-5.925-0.058v10.597H245.48z"/>
		<path d="M282.111,195.641c0.683-0.836,1.291-1.548,1.822-2.136c0.532-0.589,1.063-1.054,1.596-1.397
			c0.569-0.417,1.157-0.701,1.766-0.854c0.606-0.151,1.291-0.228,2.051-0.228c1.709,0,3.076,0.578,4.102,1.736
			c1.025,1.16,1.538,2.707,1.538,4.644c0,1.481-0.427,2.678-1.281,3.59c-0.854,0.911-1.985,1.366-3.39,1.366
			c-1.179,0-2.146-0.388-2.905-1.168c-0.761-0.777-1.14-1.737-1.14-2.877c0-0.151,0.009-0.312,0.028-0.483
			c0.019-0.172,0.048-0.332,0.085-0.484c0.076-0.342,0.219-0.693,0.428-1.054c0.208-0.36,0.503-0.787,0.883-1.282
			c-1.481,0-2.592,0.608-3.333,1.822c-0.74,1.217-1.263,2.545-1.566,3.988c-0.151,0.723-0.256,1.444-0.313,2.166
			c-0.057,0.721-0.085,1.349-0.085,1.879v6.723c0,0.988,0.151,1.671,0.456,2.051c0.303,0.38,0.835,0.57,1.595,0.57h3.247v4.557
			H269.35v-4.557h2.563c0.76,0.037,1.291-0.135,1.595-0.515c0.305-0.382,0.456-1.049,0.456-2.001v-12.916
			c0-0.914-0.151-1.552-0.456-1.915c-0.304-0.361-0.835-0.543-1.595-0.543h-2.563v-4.728h13.046L282.111,195.641z"/>
	</g>
</g>
<g>
	<path fill="#154F5E" d="M163.18,320.415h-5.14c0-2.742-0.353-5.005-1.056-6.791c-0.703-1.785-2.697-2.678-5.979-2.678l-9.145-0.055
		v10.389h3.517c1.551,0.038,2.571-0.197,3.058-0.703c0.486-0.504,0.73-1.587,0.73-3.246v-1.894h4.816v17.044h-4.816v-2.11
		c0-1.768-0.244-2.931-0.73-3.49c-0.487-0.559-1.525-0.838-3.112-0.838h-3.463v9.317c0,0.935,0.216,1.589,0.649,1.966
		c0.433,0.377,1.208,0.566,2.327,0.566h3.788v4.436h-21.427v-4.436h2.814c1.082,0.035,1.839-0.145,2.272-0.541
		c0.434-0.397,0.649-1.046,0.649-1.949v-22.129c0-0.902-0.216-1.543-0.649-1.922c-0.433-0.378-1.19-0.568-2.272-0.568h-2.814v-4.544
		h35.981V320.415z"/>
	<path fill="#154F5E" d="M195.753,332.806v3.084c0,2.562-0.551,4.43-1.65,5.6c-1.101,1.173-2.823,1.759-5.168,1.759
		c-1.839,0-3.3-0.306-4.382-0.92c-1.082-0.612-1.912-1.587-2.489-2.922c-1.083,1.3-2.327,2.265-3.733,2.895
		c-1.407,0.632-2.958,0.947-4.653,0.947c-2.417,0-4.329-0.631-5.735-1.894c-1.407-1.262-2.11-2.993-2.11-5.194
		c0-2.668,0.839-4.489,2.516-5.465c1.678-0.975,3.525-1.695,5.546-2.164c0.289-0.071,0.585-0.144,0.893-0.217
		c0.306-0.072,0.603-0.125,0.892-0.162c1.66-0.36,3.112-0.803,4.356-1.326c1.245-0.521,1.868-1.488,1.868-2.895
		c0-1.37-0.515-2.416-1.542-3.139c-1.028-0.72-2.535-1.081-4.519-1.081c-0.469,0-0.857,0.009-1.163,0.026
		c-0.308,0.02-0.587,0.064-0.839,0.136c-0.181,0.035-0.37,0.1-0.568,0.189c-0.199,0.091-0.424,0.189-0.677,0.298
		c0.866,0.324,1.506,0.73,1.922,1.218c0.414,0.486,0.622,1.091,0.622,1.812c0,1.155-0.378,2.083-1.136,2.787
		c-0.757,0.703-1.75,1.055-2.976,1.055c-1.228,0-2.237-0.45-3.03-1.354c-0.794-0.9-1.19-2.037-1.19-3.407
		c0-2.128,0.947-3.78,2.84-4.951c1.895-1.172,4.536-1.759,7.927-1.759c4.4,0,7.538,0.687,9.415,2.056
		c1.875,1.371,2.813,3.626,2.813,6.763v11.959c0,0.686,0.081,1.163,0.243,1.434c0.163,0.271,0.442,0.406,0.839,0.406
		c0.468,0,0.792-0.18,0.974-0.542c0.18-0.359,0.271-0.991,0.271-1.893v-3.139H195.753z M181.17,330.533
		c-0.198,0.072-0.406,0.145-0.623,0.216c-0.216,0.073-0.424,0.146-0.622,0.217c-0.198,0.073-0.405,0.146-0.622,0.217
		c-0.253,0.108-0.506,0.209-0.758,0.297c-0.253,0.092-0.523,0.173-0.812,0.244c-0.036,0-0.072,0.01-0.108,0.027
		c-0.037,0.018-0.073,0.026-0.108,0.026c-0.938,0.253-1.777,0.596-2.516,1.028c-0.74,0.433-1.109,1.244-1.109,2.435
		c0,0.902,0.279,1.634,0.838,2.191c0.559,0.561,1.307,0.839,2.246,0.839c1.262,0,2.38-0.405,3.355-1.217
		c0.974-0.813,1.461-1.724,1.461-2.733v-4.059C181.576,330.371,181.368,330.461,181.17,330.533z"/>
	<path fill="#154F5E" d="M209.658,320.469c0.613-0.685,1.199-1.289,1.759-1.813c0.559-0.521,1.108-0.965,1.65-1.325
		c0.829-0.541,1.685-0.929,2.57-1.163c0.884-0.235,1.885-0.353,3.003-0.353c2.669,0,4.762,0.668,6.277,2.002
		c1.515,1.336,2.272,3.212,2.272,5.628v12.065c0,0.938,0.144,1.588,0.434,1.948c0.288,0.362,0.812,0.542,1.569,0.542h2.272v4.327
		h-15.692v-4.327h1.461c0.721,0.035,1.226-0.128,1.515-0.489c0.289-0.362,0.433-0.995,0.433-1.9v-9.554
		c0-1.844-0.297-3.165-0.892-3.962c-0.595-0.795-1.596-1.193-3.003-1.193c-1.768,0-3.057,0.522-3.868,1.569
		c-0.812,1.046-1.218,2.687-1.218,4.923v8.116c0,0.938,0.144,1.588,0.433,1.948c0.289,0.362,0.793,0.542,1.515,0.542h1.353v4.327
		h-15.421v-4.327h2.164c0.721,0.035,1.226-0.127,1.515-0.489c0.289-0.361,0.434-0.993,0.434-1.897v-12.261
		c0-0.867-0.145-1.474-0.434-1.815c-0.289-0.345-0.794-0.517-1.515-0.517l-2.164-0.055v-4.447h11.741L209.658,320.469z"/>
	<path fill="#154F5E" d="M246.072,320.469c0.613-0.685,1.199-1.289,1.759-1.813c0.559-0.521,1.108-0.965,1.65-1.325
		c0.829-0.541,1.685-0.929,2.57-1.163c0.883-0.235,1.884-0.353,3.003-0.353c2.668,0,4.762,0.668,6.276,2.002
		c1.515,1.336,2.272,3.212,2.272,5.628v12.065c0,0.938,0.144,1.588,0.433,1.948c0.288,0.362,0.812,0.542,1.568,0.542h2.273v4.327
		h-15.691v-4.327h1.461c0.722,0.035,1.226-0.128,1.515-0.489c0.289-0.362,0.434-0.995,0.434-1.9v-9.554
		c0-1.844-0.298-3.165-0.894-3.962c-0.595-0.795-1.596-1.193-3.003-1.193c-1.768,0-3.057,0.522-3.868,1.569
		c-0.812,1.046-1.218,2.687-1.218,4.923v8.116c0,0.938,0.144,1.588,0.433,1.948c0.289,0.362,0.794,0.542,1.515,0.542h1.354v4.327
		h-15.421v-4.327h2.164c0.722,0.035,1.226-0.127,1.515-0.489c0.289-0.361,0.434-0.993,0.434-1.897v-12.261
		c0-0.867-0.145-1.474-0.434-1.815c-0.289-0.345-0.793-0.517-1.515-0.517l-2.164-0.055v-4.447h11.741L246.072,320.469z"/>
	<path fill="#154F5E" d="M316.683,319.226h-5.032c0-0.037-0.009-0.1-0.027-0.19c-0.019-0.089-0.026-0.17-0.026-0.244
		c-0.108-0.792-0.226-1.451-0.353-1.974c-0.127-0.523-0.315-1.021-0.567-1.488c-0.073-0.18-0.172-0.369-0.298-0.567
		c-0.126-0.199-0.262-0.406-0.405-0.623c-0.831-1.191-1.976-2.182-3.437-2.977c-1.461-0.793-2.984-1.244-4.572-1.352
		c-0.107,0-0.207,0-0.297,0c-0.091,0-0.189,0-0.298,0c-2.165,0-3.923,0.441-5.276,1.324c-1.352,0.885-2.028,2.049-2.028,3.491
		c0,1.587,0.838,2.705,2.516,3.354c1.678,0.649,3.67,1.19,5.979,1.624c0.576,0.108,1.163,0.216,1.758,0.324
		c0.596,0.108,1.199,0.236,1.813,0.379c2.994,0.649,5.744,1.704,8.252,3.165c2.506,1.462,3.761,4.068,3.761,7.819
		c0,3.932-1.281,6.943-3.842,9.036c-2.562,2.091-6.223,3.138-10.983,3.138c-0.182,0-0.361,0-0.541,0
		c-0.182,0-0.361-0.019-0.541-0.054c-1.913-0.073-3.779-0.434-5.601-1.083c-1.822-0.648-3.454-1.604-4.897-2.867l-1.135,2.867
		h-4.275v-13.419h5.086c0.18,0.758,0.333,1.38,0.46,1.867c0.126,0.488,0.243,0.911,0.353,1.271c0.107,0.362,0.225,0.668,0.351,0.919
		c0.127,0.255,0.263,0.487,0.406,0.705c0.071,0.144,0.153,0.271,0.243,0.378c0.09,0.109,0.189,0.235,0.298,0.38
		c0.901,1.189,2.235,2.164,4.004,2.922c1.767,0.756,3.625,1.136,5.573,1.136c2.02,0,3.67-0.441,4.951-1.327
		c1.279-0.883,1.921-1.991,1.921-3.326c0-0.974-0.199-1.722-0.596-2.246c-0.397-0.522-1.245-1-2.542-1.434
		c-0.542-0.179-1.164-0.359-1.868-0.541c-0.702-0.18-1.506-0.378-2.407-0.595l-5.465-1.354c-3.066-0.649-5.609-1.658-7.629-3.029
		c-2.021-1.37-3.03-3.843-3.03-7.414c0-3.714,1.325-6.653,3.977-8.818c2.651-2.164,6.214-3.246,10.687-3.246
		c2.199,0,4.147,0.279,5.843,0.838c1.695,0.561,3.265,1.47,4.708,2.732l0.812-2.488h4.221V319.226z"/>
	<path fill="#154F5E" d="M332.373,316.682h6.547v4.438h-6.547v14.934c0,1.011,0.117,1.723,0.353,2.137
		c0.234,0.415,0.639,0.622,1.217,0.622c0.613,0,1.055-0.234,1.325-0.704c0.271-0.467,0.406-1.243,0.406-2.326v-4.166h3.625v4.815
		c0,2.238-0.596,3.933-1.786,5.087c-1.189,1.154-2.94,1.73-5.248,1.73c-2.562,0-4.518-0.566-5.87-1.703s-2.029-2.823-2.029-5.06
		v-15.366h-3.842v-4.004c2.598-0.613,4.41-1.732,5.438-3.356c1.027-1.622,1.542-3.731,1.542-6.33l4.869-0.054V316.682z"/>
	<path fill="#154F5E" d="M355.206,320.361c0.649-0.794,1.226-1.471,1.732-2.029c0.504-0.56,1.009-1.001,1.515-1.326
		c0.542-0.396,1.101-0.667,1.676-0.813c0.578-0.143,1.228-0.215,1.949-0.215c1.623,0,2.922,0.55,3.896,1.649
		c0.972,1.102,1.46,2.57,1.46,4.41c0,1.407-0.405,2.542-1.218,3.409c-0.812,0.866-1.886,1.298-3.219,1.298
		c-1.119,0-2.039-0.369-2.761-1.108c-0.721-0.739-1.081-1.65-1.081-2.733c0-0.144,0.008-0.296,0.027-0.46
		c0.017-0.162,0.045-0.314,0.081-0.459c0.072-0.324,0.206-0.659,0.405-1.001c0.197-0.342,0.479-0.748,0.838-1.218
		c-1.406,0-2.461,0.578-3.165,1.732c-0.703,1.154-1.199,2.416-1.487,3.787c-0.145,0.686-0.243,1.371-0.299,2.057
		c-0.053,0.684-0.08,1.28-0.08,1.785v6.384c0,0.938,0.144,1.588,0.434,1.948c0.287,0.362,0.792,0.542,1.516,0.542h3.082v4.327
		h-17.422v-4.327h2.435c0.721,0.035,1.226-0.128,1.516-0.489c0.288-0.362,0.433-0.995,0.433-1.9v-12.268
		c0-0.867-0.145-1.474-0.433-1.818c-0.29-0.343-0.795-0.515-1.516-0.515h-2.435v-4.491h12.391L355.206,320.361z"/>
	<path fill="#154F5E" d="M377.985,330.425c0.217,2.778,0.866,4.843,1.948,6.194c1.083,1.354,2.633,2.03,4.652,2.03
		c1.624,0,2.985-0.441,4.086-1.325c1.101-0.885,1.902-2.174,2.409-3.87l5.193-0.053c-0.361,2.995-1.642,5.383-3.843,7.169
		c-2.199,1.786-4.96,2.678-8.277,2.678c-4.653,0-8.217-1.208-10.688-3.625c-2.47-2.416-3.706-5.898-3.706-10.443
		c0-4.003,1.236-7.231,3.706-9.685c2.471-2.453,5.727-3.68,9.768-3.68c4.221,0,7.511,1.204,9.875,3.612
		c2.362,2.407,3.544,5.769,3.544,10.081c0,0.036,0,0.081,0,0.136c0,0.054,0,0.115,0,0.188c-0.037,0.072-0.054,0.162-0.054,0.27
		c0,0.108,0,0.216,0,0.323H377.985z M387.102,322.065c-0.846-1.28-2.154-1.921-3.923-1.921c-1.55,0-2.768,0.527-3.651,1.582
		c-0.884,1.056-1.38,2.583-1.488,4.587h10.336C388.375,324.763,387.95,323.347,387.102,322.065z"/>
	<path fill="#154F5E" d="M408.447,330.425c0.217,2.778,0.866,4.843,1.949,6.194c1.082,1.354,2.632,2.03,4.652,2.03
		c1.623,0,2.985-0.441,4.085-1.325c1.101-0.885,1.903-2.174,2.408-3.87l5.194-0.053c-0.361,2.995-1.642,5.383-3.842,7.169
		s-4.96,2.678-8.279,2.678c-4.652,0-8.216-1.208-10.686-3.625c-2.471-2.416-3.706-5.898-3.706-10.443
		c0-4.003,1.235-7.231,3.706-9.685c2.47-2.453,5.727-3.68,9.767-3.68c4.221,0,7.512,1.204,9.876,3.612
		c2.361,2.407,3.543,5.769,3.543,10.081c0,0.036,0,0.081,0,0.136c0,0.054,0,0.115,0,0.188c-0.036,0.072-0.054,0.162-0.054,0.27
		c0,0.108,0,0.216,0,0.323H408.447z M417.564,322.065c-0.847-1.28-2.155-1.921-3.923-1.921c-1.55,0-2.77,0.527-3.652,1.582
		c-0.884,1.056-1.379,2.583-1.487,4.587h10.335C418.837,324.763,418.413,323.347,417.564,322.065z"/>
	<path fill="#154F5E" d="M441.075,316.682h6.546v4.438h-6.546v14.934c0,1.011,0.116,1.723,0.351,2.137
		c0.234,0.415,0.641,0.622,1.219,0.622c0.612,0,1.055-0.234,1.325-0.704c0.271-0.467,0.404-1.243,0.404-2.326v-4.166H448v4.815
		c0,2.238-0.595,3.933-1.785,5.087c-1.191,1.154-2.94,1.73-5.248,1.73c-2.563,0-4.519-0.566-5.871-1.703
		c-1.354-1.137-2.029-2.823-2.029-5.06v-15.366h-3.842v-4.004c2.598-0.613,4.41-1.732,5.438-3.356
		c1.029-1.622,1.542-3.731,1.542-6.33l4.871-0.054V316.682z"/>
</g>
<g>
	<path d="M48.95,419.55v2.85c0,2.367-0.509,4.093-1.525,5.175c-1.017,1.083-2.608,1.625-4.775,1.625c-1.7,0-3.05-0.283-4.05-0.85
		s-1.767-1.467-2.3-2.7c-1,1.2-2.15,2.093-3.45,2.675c-1.3,0.583-2.734,0.875-4.3,0.875c-2.233,0-4-0.583-5.3-1.75
		c-1.3-1.166-1.95-2.766-1.95-4.8c0-2.466,0.775-4.149,2.325-5.05s3.258-1.566,5.125-2c0.267-0.066,0.542-0.133,0.825-0.2
		c0.283-0.066,0.558-0.116,0.825-0.149c1.533-0.333,2.875-0.742,4.025-1.226c1.15-0.482,1.725-1.375,1.725-2.675
		c0-1.267-0.475-2.232-1.425-2.9c-0.95-0.666-2.342-1-4.175-1c-0.434,0-0.792,0.009-1.075,0.025
		c-0.284,0.018-0.542,0.059-0.775,0.125c-0.167,0.033-0.342,0.092-0.525,0.175c-0.184,0.084-0.392,0.175-0.625,0.275
		c0.8,0.3,1.392,0.675,1.775,1.125c0.383,0.45,0.575,1.009,0.575,1.675c0,1.067-0.35,1.925-1.05,2.575
		c-0.7,0.649-1.617,0.975-2.75,0.975c-1.134,0-2.067-0.416-2.8-1.25c-0.733-0.833-1.1-1.883-1.1-3.149
		c0-1.967,0.875-3.492,2.625-4.575s4.191-1.625,7.325-1.625c4.066,0,6.966,0.634,8.7,1.899c1.733,1.268,2.6,3.351,2.6,6.25V423
		c0,0.633,0.075,1.074,0.225,1.324c0.15,0.25,0.408,0.375,0.775,0.375c0.433,0,0.732-0.166,0.9-0.5
		c0.167-0.332,0.25-0.916,0.25-1.75v-2.899H48.95z M35.475,417.449c-0.184,0.067-0.375,0.134-0.575,0.2
		c-0.2,0.067-0.392,0.134-0.575,0.2c-0.184,0.067-0.375,0.134-0.575,0.2c-0.233,0.1-0.467,0.192-0.7,0.274
		c-0.233,0.084-0.483,0.159-0.75,0.226c-0.033,0-0.067,0.009-0.1,0.024c-0.034,0.018-0.067,0.025-0.1,0.025
		c-0.867,0.233-1.642,0.55-2.325,0.95c-0.684,0.399-1.025,1.149-1.025,2.25c0,0.833,0.258,1.509,0.775,2.024
		c0.517,0.518,1.208,0.775,2.075,0.775c1.167,0,2.2-0.375,3.1-1.125c0.9-0.75,1.35-1.592,1.35-2.525v-3.75
		C35.85,417.3,35.658,417.383,35.475,417.449z"/>
	<path d="M63.349,407.3c0.333-0.333,0.658-0.65,0.975-0.95c0.316-0.3,0.625-0.566,0.925-0.8c0.8-0.633,1.642-1.075,2.525-1.325
		c0.883-0.25,1.925-0.375,3.125-0.375c3.533,0,6.042,1.259,7.525,3.775c1.483,2.517,2.275,5.292,2.375,8.324c0,0.134,0,0.268,0,0.4
		c0,0.134,0,0.268,0,0.4c0,3.833-0.975,6.867-2.925,9.1c-1.95,2.233-4.592,3.35-7.925,3.35c-1.834,0-3.4-0.35-4.7-1.05
		s-2.333-1.767-3.1-3.2l-1.3,3.4h-4.9v-27c0-0.833-0.134-1.408-0.4-1.725c-0.267-0.316-0.733-0.476-1.4-0.476h-2.05V395h11.25V407.3
		z M63.249,416.75c0,2.6,0.417,4.583,1.25,5.949c0.833,1.367,2.017,2.051,3.55,2.051c1.566,0,2.767-0.717,3.6-2.15
		c0.833-1.433,1.25-3.467,1.25-6.1c0-2.434-0.4-4.358-1.2-5.775c-0.8-1.416-1.884-2.125-3.25-2.125c-1.667,0-2.95,0.709-3.85,2.125
		c-0.9,1.417-1.35,3.442-1.35,6.075V416.75z"/>
	<path d="M105.949,419.05h4.9c-0.234,3.067-1.4,5.524-3.5,7.375c-2.1,1.85-4.734,2.774-7.9,2.774c-3.967,0-7.05-1.125-9.25-3.375
		c-2.2-2.25-3.3-5.391-3.3-9.425c0-3.833,1.183-6.883,3.55-9.149c2.366-2.267,5.55-3.4,9.55-3.4c2.966,0,5.375,0.7,7.225,2.1
		c1.85,1.4,2.775,3.218,2.775,5.45c0,1.233-0.367,2.226-1.1,2.976c-0.733,0.75-1.7,1.125-2.9,1.125c-1.134,0-2.059-0.333-2.775-1
		c-0.717-0.667-1.075-1.517-1.075-2.551c0-0.3,0.025-0.574,0.075-0.824c0.05-0.25,0.125-0.476,0.225-0.676
		c0.133-0.266,0.316-0.532,0.55-0.8c0.233-0.267,0.533-0.566,0.9-0.899c-0.434-0.233-0.809-0.417-1.125-0.551
		c-0.317-0.133-0.625-0.232-0.925-0.3c-0.134,0-0.267-0.008-0.4-0.024c-0.134-0.017-0.284-0.025-0.45-0.025
		c-1.9,0-3.409,0.775-4.525,2.325c-1.117,1.55-1.675,3.658-1.675,6.325s0.508,4.75,1.525,6.25c1.016,1.5,2.408,2.25,4.175,2.25
		c1.466,0,2.708-0.551,3.725-1.65c1.016-1.1,1.591-2.517,1.725-4.25V419.05z"/>
	<path d="M141.898,422.04c0,0.868,0.133,1.469,0.4,1.803c0.267,0.334,0.733,0.501,1.4,0.501l2-0.051v4.057h-10.8v-2.75
		c-1.034,1.3-2.175,2.225-3.425,2.775c-1.25,0.55-2.742,0.824-4.475,0.824c-3.034,0-5.467-1.125-7.3-3.375
		c-1.833-2.25-2.75-5.225-2.75-8.925c0-3.767,0.983-6.883,2.95-9.35c1.966-2.467,4.466-3.7,7.5-3.7c0.966,0,1.816,0.108,2.55,0.325
		c0.733,0.217,1.45,0.575,2.15,1.075c0.367,0.233,0.733,0.517,1.1,0.85c0.367,0.334,0.733,0.717,1.1,1.15v-5.9
		c0-0.833-0.134-1.408-0.4-1.725c-0.267-0.316-0.734-0.476-1.4-0.476h-2.15V395h11.55V422.04z M124.848,417
		c0,2.633,0.408,4.625,1.225,5.975c0.816,1.35,2.008,2.025,3.575,2.025c1.533,0,2.775-0.75,3.725-2.25
		c0.95-1.5,1.425-3.45,1.425-5.851c0-2.666-0.425-4.7-1.275-6.1c-0.85-1.4-2.059-2.101-3.625-2.101c-1.567,0-2.8,0.742-3.7,2.226
		s-1.35,3.524-1.35,6.125V417z"/>
	<path d="M159.148,417.35c0.2,2.567,0.8,4.475,1.8,5.725s2.433,1.875,4.3,1.875c1.5,0,2.758-0.407,3.775-1.225
		c1.017-0.816,1.758-2.008,2.225-3.575l4.8-0.05c-0.333,2.768-1.517,4.975-3.55,6.625c-2.034,1.65-4.583,2.475-7.65,2.475
		c-4.3,0-7.592-1.116-9.875-3.35c-2.284-2.232-3.425-5.45-3.425-9.65c0-3.699,1.142-6.683,3.425-8.949
		c2.283-2.267,5.291-3.4,9.025-3.4c3.9,0,6.941,1.112,9.125,3.338c2.183,2.225,3.275,5.33,3.275,9.315c0,0.033,0,0.075,0,0.125
		s0,0.107,0,0.174c-0.034,0.066-0.05,0.149-0.05,0.249c0,0.101,0,0.199,0,0.299H159.148z M167.573,409.625
		c-0.783-1.184-1.992-1.775-3.625-1.775c-1.434,0-2.559,0.487-3.375,1.463c-0.817,0.975-1.275,2.387-1.375,4.237h9.55
		C168.748,412.117,168.356,410.809,167.573,409.625z"/>
	<path d="M199.197,404.5v4.1h-5.55v13.45c0,0.867,0.133,1.467,0.4,1.8c0.266,0.334,0.732,0.5,1.4,0.5h2.95v4h-16.05v-4h2.1
		c0.667,0.033,1.133-0.117,1.4-0.451c0.267-0.335,0.4-0.92,0.4-1.756V408.6h-3.9v-4.1h3.9c0-0.133,0-0.258,0-0.375
		s0.017-0.208,0.05-0.275c0.033-1.9,0.141-3.267,0.325-4.1c0.183-0.833,0.542-1.566,1.075-2.2c0.066-0.066,0.133-0.142,0.2-0.226
		c0.066-0.082,0.133-0.157,0.2-0.225c0.767-0.833,1.675-1.458,2.725-1.875c1.05-0.416,2.125-0.675,3.225-0.775
		c0.166-0.032,0.341-0.05,0.525-0.05c0.183,0,0.358,0,0.525,0c1.833,0,3.292,0.45,4.375,1.351c1.083,0.899,1.625,2.1,1.625,3.6
		c0,0.967-0.292,1.759-0.875,2.375c-0.583,0.617-1.342,0.925-2.275,0.925c-0.7,0-1.284-0.258-1.75-0.774
		c-0.467-0.517-0.7-1.176-0.7-1.976c0-0.133,0-0.25,0-0.35c0-0.101,0.017-0.2,0.05-0.3c0.033-0.2,0.091-0.408,0.175-0.625
		c0.083-0.217,0.208-0.492,0.375-0.825c-0.1-0.101-0.192-0.167-0.275-0.2c-0.083-0.033-0.159-0.066-0.225-0.1
		c-0.034,0-0.075,0-0.125,0s-0.092,0-0.125,0c-0.7,0-1.2,0.342-1.5,1.024c-0.3,0.684-0.45,1.809-0.45,3.375v2.601H199.197z"/>
	<path d="M224.247,405.899c0.1-0.1,0.2-0.208,0.3-0.325c0.1-0.116,0.2-0.241,0.3-0.375c0.733-0.766,1.475-1.316,2.225-1.649
		s1.625-0.5,2.625-0.5c1.266,0,2.316,0.367,3.15,1.1c0.833,0.733,1.25,1.684,1.25,2.851c0,1-0.3,1.833-0.9,2.5s-1.367,1-2.3,1
		c-0.767,0-1.417-0.242-1.95-0.726c-0.534-0.482-0.8-1.058-0.8-1.725c0-0.2,0.008-0.383,0.025-0.55
		c0.016-0.167,0.058-0.333,0.125-0.5c0.066-0.167,0.158-0.333,0.275-0.5c0.116-0.167,0.258-0.351,0.425-0.551
		c-0.133-0.066-0.242-0.107-0.325-0.125c-0.084-0.016-0.175-0.024-0.275-0.024c-0.033,0-0.067,0-0.1,0
		c-0.434,0-0.867,0.134-1.3,0.399c-0.434,0.268-0.833,0.65-1.2,1.15c0.732,0.8,1.25,1.643,1.55,2.525s0.45,1.975,0.45,3.274
		c0,2.834-1.018,5.084-3.05,6.75c-2.034,1.667-4.817,2.5-8.35,2.5c-1.033,0-2.025-0.075-2.975-0.225
		c-0.95-0.15-1.809-0.375-2.575-0.675c-0.467,0.233-0.8,0.483-1,0.75s-0.3,0.6-0.3,1c0,0.633,0.232,1.092,0.7,1.375
		c0.466,0.283,1.183,0.425,2.15,0.425c0.033,0,0.066,0,0.1,0c0.033,0,0.066,0,0.1,0c0.066-0.033,0.116-0.05,0.15-0.05l10.15-0.301
		c0.066,0.034,0.142,0.051,0.225,0.051c0.083,0,0.158-0.017,0.225-0.051c0.066,0,0.133,0,0.2,0c0.066,0,0.133,0,0.2,0
		c2.1,0,4.017,0.351,5.75,1.051c1.733,0.699,2.6,2.316,2.6,4.85c0,2.666-0.992,4.525-2.975,5.575
		c-1.983,1.05-4.159,1.708-6.525,1.975c-1.067,0.133-2.117,0.208-3.15,0.226c-1.034,0.016-1.984,0.024-2.85,0.024
		c-4.467,0-7.642-0.342-9.525-1.024c-1.884-0.684-2.825-1.859-2.825-3.525c0-0.867,0.258-1.584,0.775-2.15
		c0.517-0.566,1.375-1.083,2.575-1.55c-1.1-0.333-1.917-0.833-2.45-1.5c-0.533-0.666-0.8-1.566-0.8-2.7c0-1.3,0.333-2.3,1-3
		c0.667-0.699,1.483-1.35,2.45-1.949c0.133-0.101,0.275-0.191,0.425-0.275c0.15-0.083,0.308-0.175,0.475-0.275
		c-1.234-0.699-2.142-1.641-2.725-2.824c-0.583-1.184-0.875-2.642-0.875-4.375c0-2.967,1.033-5.283,3.1-6.95
		c2.066-1.667,4.917-2.5,8.55-2.5c1.033,0,1.958,0.067,2.775,0.2c0.816,0.133,1.608,0.367,2.375,0.699
		c0.367,0.134,0.75,0.309,1.15,0.525c0.4,0.217,0.8,0.459,1.2,0.725V405.899z M210.146,431.55c-0.233,0.333-0.35,0.716-0.35,1.149
		c0,0.9,0.558,1.559,1.675,1.976c1.116,0.416,2.858,0.625,5.225,0.625c3.133,0,5.35-0.184,6.65-0.55c1.3-0.367,1.95-1.034,1.95-2
		c0-0.834-0.4-1.393-1.2-1.676s-2.417-0.425-4.85-0.425h-8.05C210.729,430.916,210.379,431.216,210.146,431.55z M212.297,412.949
		c0,1.968,0.375,3.518,1.125,4.65c0.75,1.134,1.741,1.7,2.975,1.7c1.2,0,2.175-0.575,2.925-1.726
		c0.75-1.149,1.125-2.641,1.125-4.475c0-1.866-0.375-3.366-1.125-4.5c-0.75-1.133-1.742-1.7-2.975-1.7
		c-1.233,0-2.217,0.55-2.95,1.65c-0.733,1.1-1.1,2.583-1.1,4.45V412.949z"/>
	<path d="M249.846,407.55c1.133-1.333,2.316-2.292,3.551-2.875c1.232-0.583,2.683-0.875,4.35-0.875c2.934,0,4.992,0.692,6.176,2.075
		c1.182,1.383,1.774,3.458,1.774,6.225v9.95c0,0.867,0.133,1.467,0.399,1.8c0.268,0.334,0.75,0.5,1.451,0.5h2.049v4h-14.6v-4h1.5
		c0.666,0.033,1.133-0.117,1.4-0.451c0.266-0.335,0.4-0.92,0.4-1.756v-8.928c0-1.639-0.293-2.834-0.875-3.586
		c-0.584-0.753-1.559-1.129-2.926-1.129c-1.633,0-2.816,0.5-3.55,1.5s-1.101,2.617-1.101,4.85v7.2c0,0.867,0.133,1.467,0.4,1.8
		c0.267,0.334,0.75,0.5,1.45,0.5h1.3v4h-14.449v-4h2.1c0.666,0.033,1.133-0.116,1.4-0.451c0.266-0.333,0.399-0.918,0.399-1.754
		v-20.841c0-0.802-0.134-1.361-0.399-1.679c-0.268-0.316-0.734-0.476-1.4-0.476h-2.1V395h11.299V407.55z"/>
	<path d="M286.445,422.05c0,0.867,0.133,1.467,0.4,1.8c0.267,0.334,0.732,0.5,1.4,0.5h2.1v4h-15.25v-4h2.15
		c0.666,0.033,1.133-0.117,1.399-0.451c0.267-0.335,0.4-0.92,0.4-1.756v-11.336c0-0.803-0.134-1.362-0.4-1.681
		c-0.267-0.317-0.733-0.477-1.399-0.477h-2.15V404.5h11.35V422.05z M282.445,393.85c1.167,0.033,2.158,0.45,2.976,1.25
		c0.816,0.8,1.225,1.783,1.225,2.95s-0.408,2.158-1.225,2.975c-0.817,0.817-1.809,1.226-2.976,1.226
		c-1.133,0-2.117-0.417-2.949-1.25c-0.834-0.833-1.25-1.816-1.25-2.95c0-1.167,0.416-2.15,1.25-2.95c0.832-0.8,1.816-1.2,2.949-1.2
		V393.85z"/>
	<path d="M307.646,430.1c0,2.8-0.75,5-2.25,6.6c-1.5,1.601-3.583,2.4-6.25,2.4c-2.134,0-3.8-0.5-5-1.5s-1.8-2.384-1.8-4.15
		c0-1.033,0.324-1.899,0.975-2.6s1.441-1.05,2.375-1.05c0.867,0,1.583,0.291,2.15,0.875c0.566,0.583,0.85,1.341,0.85,2.274
		c0,0.533-0.143,1.008-0.425,1.426c-0.284,0.416-0.659,0.725-1.125,0.925c0.032,0.032,0.058,0.066,0.075,0.1
		c0.016,0.033,0.025,0.066,0.025,0.101c0.133,0.199,0.274,0.332,0.424,0.399c0.15,0.066,0.358,0.101,0.625,0.101
		c0.733,0,1.233-0.309,1.5-0.926c0.268-0.617,0.4-1.809,0.4-3.574v-20.7c0-0.833-0.133-1.408-0.4-1.726
		c-0.267-0.316-0.732-0.475-1.399-0.475h-2.851v-4.1h12.101V430.1z M303.445,393.85c1.166,0.033,2.158,0.45,2.975,1.25
		s1.226,1.783,1.226,2.95c0,1.134-0.409,2.108-1.226,2.925c-0.816,0.817-1.809,1.225-2.975,1.225c-1.133,0-2.108-0.407-2.925-1.225
		c-0.817-0.816-1.226-1.791-1.226-2.925c0-1.167,0.408-2.15,1.226-2.95c0.816-0.8,1.792-1.2,2.925-1.2V393.85z"/>
	<path d="M326.945,415l6.65-4.9c0.1-0.066,0.191-0.142,0.274-0.225s0.157-0.158,0.226-0.226c0.032-0.066,0.066-0.142,0.1-0.225
		s0.05-0.175,0.05-0.275c0-0.232-0.075-0.375-0.226-0.425c-0.149-0.05-0.475-0.075-0.975-0.075h-2.3V404.5h15.351v4.149
		c-1.568,0.034-2.793,0.159-3.676,0.374c-0.883,0.216-1.691,0.557-2.425,1.021c-0.567,0.333-1.159,0.756-1.774,1.271
		c-0.617,0.516-1.375,1.105-2.275,1.77l6.55,9.121c0.032,0.066,0.058,0.117,0.075,0.149c0.016,0.033,0.041,0.066,0.074,0.1
		c0.066,0.066,0.125,0.133,0.176,0.199c0.05,0.067,0.092,0.134,0.125,0.199c0.266,0.399,0.566,0.756,0.9,1.071
		c0.332,0.316,0.75,0.474,1.25,0.474h1v3.95h-14.4v-4.05h1.25c0.467,0.033,0.8,0,1-0.101c0.199-0.1,0.3-0.266,0.3-0.5
		c0-0.1-0.017-0.191-0.05-0.274s-0.084-0.158-0.15-0.226c-0.033-0.066-0.059-0.125-0.074-0.175c-0.018-0.05-0.043-0.091-0.076-0.125
		l-3.899-5.55l-3.05,2.3v2.4c0,1.167,0.225,1.842,0.675,2.024c0.45,0.184,1.108,0.275,1.976,0.275v4h-14v-4.05h2.1
		c0.699,0.033,1.183-0.116,1.449-0.45c0.268-0.333,0.4-0.916,0.4-1.75v-20.8c0-0.8-0.133-1.358-0.4-1.675
		c-0.267-0.316-0.75-0.476-1.449-0.476h-2.1V395h11.35V415z"/>
	<path d="M362.895,422.05c0,0.867,0.133,1.467,0.4,1.8c0.267,0.334,0.717,0.5,1.35,0.5h2.25v4h-15.35v-4h2.1
		c0.7,0.033,1.184-0.116,1.45-0.451c0.267-0.333,0.4-0.918,0.4-1.754v-20.841c0-0.802-0.134-1.361-0.4-1.679
		c-0.267-0.316-0.75-0.476-1.45-0.476h-2.1V395h11.35V422.05z"/>
	<path d="M383.045,407.449c0.732-0.633,1.407-1.183,2.024-1.649c0.616-0.467,1.226-0.833,1.825-1.101
		c0.633-0.3,1.283-0.516,1.949-0.649c0.667-0.133,1.417-0.2,2.25-0.2c1.701,0,3.133,0.309,4.301,0.925
		c1.166,0.617,2.15,1.608,2.949,2.976c0.167-0.2,0.326-0.383,0.476-0.551c0.149-0.166,0.308-0.316,0.476-0.449
		c1.1-1.066,2.225-1.816,3.375-2.25c1.149-0.434,2.524-0.65,4.125-0.65c2.199,0,3.982,0.608,5.35,1.825
		c1.366,1.217,2.05,2.809,2.05,4.774v11.601c0,0.867,0.133,1.467,0.399,1.8c0.268,0.334,0.75,0.5,1.451,0.5h2.1v4h-14.25v-4
		c1.033,0.033,1.775-0.059,2.225-0.275c0.45-0.218,0.676-0.861,0.676-1.932v-9.43c0-1.604-0.26-2.732-0.775-3.385
		c-0.518-0.652-1.426-0.979-2.725-0.979c-1.468,0-2.568,0.475-3.301,1.425c-0.733,0.95-1.1,2.375-1.1,4.275v8
		c0,0.867,0.133,1.467,0.4,1.8c0.266,0.334,0.75,0.5,1.449,0.5h1.15v4h-13.4v-4c1,0.033,1.75-0.041,2.25-0.226
		c0.5-0.184,0.75-0.844,0.75-1.981v-9.43c0-1.537-0.268-2.649-0.8-3.335c-0.534-0.686-1.399-1.028-2.601-1.028
		c-1.5,0-2.617,0.467-3.35,1.4c-0.733,0.934-1.1,2.367-1.1,4.3v8c0,0.867,0.133,1.467,0.4,1.8c0.266,0.334,0.732,0.5,1.399,0.5h1.2
		v4h-14.301v-4h2.101c0.667,0.033,1.133-0.116,1.399-0.451c0.268-0.334,0.4-0.918,0.4-1.754v-11.329c0-0.802-0.133-1.362-0.4-1.679
		c-0.267-0.317-0.732-0.477-1.399-0.477l-2.101-0.051V404.5h10.851L383.045,407.449z"/>
	<path d="M32.35,458.149c0.566-0.633,1.108-1.191,1.625-1.675c0.516-0.482,1.025-0.892,1.525-1.225
		c0.767-0.5,1.558-0.858,2.375-1.075c0.816-0.217,1.741-0.325,2.775-0.325c2.466,0,4.4,0.617,5.8,1.85c1.4,1.234,2.1,2.968,2.1,5.2
		v11.15c0,0.867,0.133,1.467,0.4,1.8c0.266,0.334,0.75,0.5,1.45,0.5h2.1v4H38v-4h1.35c0.667,0.033,1.133-0.117,1.4-0.451
		c0.267-0.335,0.4-0.92,0.4-1.756v-8.828c0-1.705-0.275-2.925-0.825-3.661c-0.55-0.735-1.475-1.104-2.775-1.104
		c-1.633,0-2.825,0.483-3.575,1.45s-1.125,2.483-1.125,4.55v7.5c0,0.867,0.133,1.467,0.4,1.8c0.267,0.334,0.733,0.5,1.4,0.5h1.25v4
		H21.65v-4h2c0.667,0.033,1.133-0.116,1.4-0.451c0.267-0.334,0.4-0.918,0.4-1.754v-11.329c0-0.802-0.134-1.362-0.4-1.679
		c-0.267-0.317-0.733-0.477-1.4-0.477l-2-0.051V454.5H32.5L32.35,458.149z"/>
	<path d="M57.1,466.3c0.167-3.933,1.408-6.991,3.725-9.175c2.316-2.184,5.491-3.275,9.525-3.275c4.133,0,7.367,1.134,9.7,3.4
		c2.333,2.267,3.5,5.383,3.5,9.35c0,3.834-1.192,6.893-3.575,9.175c-2.383,2.284-5.575,3.425-9.575,3.425
		c-4.134,0-7.384-1.091-9.75-3.274c-2.367-2.183-3.55-5.375-3.55-9.575V466.3z M65,466.25c0,2.934,0.45,5.167,1.35,6.699
		c0.9,1.534,2.216,2.301,3.95,2.301c1.733,0,3.058-0.767,3.975-2.301c0.916-1.532,1.375-3.766,1.375-6.699
		c0-2.566-0.475-4.608-1.425-6.125c-0.95-1.517-2.242-2.275-3.875-2.275c-1.667,0-2.975,0.742-3.925,2.225
		C65.475,461.559,65,463.633,65,466.3V466.25z"/>
	<path d="M100.6,457.399c1.066-1.232,2.191-2.142,3.375-2.725c1.183-0.583,2.591-0.875,4.225-0.875c3.166,0,5.6,1.075,7.3,3.225
		c1.7,2.15,2.55,5.226,2.55,9.226c0,3.967-0.9,7.108-2.7,9.425c-1.8,2.317-4.25,3.475-7.35,3.475c-1.634,0-3-0.217-4.1-0.649
		c-1.1-0.434-2.15-1.167-3.15-2.2v5.8c0,0.833,0.133,1.416,0.4,1.75c0.267,0.333,0.733,0.5,1.4,0.5h2.4v4.05H89.5v-4.05h2
		c0.7,0,1.183-0.158,1.45-0.475c0.266-0.317,0.4-0.909,0.4-1.775v-21.3c0-0.833-0.134-1.408-0.4-1.726
		c-0.268-0.316-0.75-0.475-1.45-0.475h-2v-4.1h11.25L100.6,457.399z M100.649,466.25c0,0.467,0.008,0.934,0.025,1.399
		c0.017,0.468,0.058,0.95,0.125,1.45c0.167,1.367,0.575,2.634,1.225,3.8c0.65,1.167,1.775,1.75,3.375,1.75
		c1.566,0,2.75-0.716,3.55-2.149c0.8-1.434,1.2-3.533,1.2-6.301c0-2.433-0.383-4.324-1.15-5.675c-0.767-1.35-1.85-2.024-3.25-2.024
		c-1.634,0-2.875,0.658-3.725,1.975c-0.85,1.317-1.309,3.259-1.375,5.825V466.25z"/>
	<path d="M152.699,454.5v4.05h-2c-0.667,0.033-1.125,0.208-1.375,0.524c-0.25,0.317-0.375,0.909-0.375,1.775v21.25
		c0,0.866,0.125,1.458,0.375,1.775c0.25,0.316,0.708,0.475,1.375,0.475h2v4.05h-15.35v-4.05h2.4c0.666,0,1.133-0.167,1.4-0.5
		c0.266-0.334,0.4-0.917,0.4-1.75v-5.85c-0.833,1.033-1.792,1.774-2.875,2.225c-1.083,0.45-2.392,0.675-3.925,0.675
		c-3.334,0-5.925-1.083-7.775-3.25c-1.85-2.166-2.775-5.232-2.775-9.2c0-3.866,0.958-6.982,2.875-9.35
		c1.917-2.366,4.458-3.55,7.625-3.55c1.5,0,2.825,0.292,3.975,0.875s2.158,1.475,3.025,2.675l-0.15-2.85H152.699z M132.099,466.649
		c0,2.768,0.417,4.817,1.25,6.15c0.833,1.333,2.083,2,3.75,2c1.467,0,2.6-0.733,3.4-2.2c0.8-1.467,1.2-3.5,1.2-6.1
		c0-2.333-0.417-4.217-1.25-5.65c-0.833-1.433-1.934-2.15-3.3-2.15c-1.634,0-2.884,0.692-3.75,2.075
		c-0.867,1.384-1.3,3.358-1.3,5.925V466.649z"/>
	<path d="M169.549,458.05c0.6-0.733,1.133-1.358,1.6-1.875s0.933-0.925,1.4-1.226c0.5-0.366,1.016-0.616,1.55-0.75
		c0.533-0.133,1.133-0.199,1.8-0.199c1.5,0,2.7,0.508,3.6,1.524c0.9,1.018,1.35,2.375,1.35,4.075c0,1.3-0.375,2.35-1.125,3.15
		c-0.75,0.8-1.742,1.199-2.975,1.199c-1.034,0-1.883-0.341-2.55-1.024c-0.667-0.683-1-1.525-1-2.525
		c0-0.133,0.008-0.274,0.025-0.425c0.017-0.15,0.042-0.291,0.075-0.425c0.066-0.3,0.191-0.608,0.375-0.925
		c0.183-0.316,0.441-0.691,0.775-1.125c-1.3,0-2.275,0.533-2.925,1.6c-0.65,1.067-1.108,2.233-1.375,3.5
		c-0.133,0.634-0.225,1.268-0.275,1.9c-0.05,0.633-0.075,1.184-0.075,1.649v5.9c0,0.867,0.133,1.467,0.4,1.8
		c0.266,0.334,0.733,0.5,1.4,0.5h2.85v4h-16.1v-4h2.25c0.667,0.033,1.133-0.117,1.4-0.451c0.267-0.335,0.4-0.92,0.4-1.756v-11.336
		c0-0.803-0.133-1.362-0.4-1.681c-0.267-0.317-0.733-0.477-1.4-0.477h-2.25V454.5h11.45L169.549,458.05z"/>
	<path d="M207.598,462.949h-4c-0.6-1.666-1.517-2.941-2.75-3.824c-1.234-0.883-2.734-1.325-4.5-1.325
		c-1.067,0-1.942,0.192-2.625,0.575c-0.684,0.383-1.025,0.892-1.025,1.524c0,0.867,0.475,1.492,1.425,1.875
		c0.95,0.384,2.108,0.709,3.475,0.976c0.466,0.1,0.958,0.199,1.475,0.3c0.516,0.1,1.025,0.217,1.525,0.35
		c1.966,0.468,3.775,1.25,5.425,2.351c1.65,1.1,2.475,3,2.475,5.699c0,2.434-0.858,4.334-2.575,5.7s-4.108,2.05-7.175,2.05
		c-1.6,0-2.958-0.149-4.075-0.449c-1.117-0.301-2.192-0.816-3.225-1.551c-0.167-0.133-0.342-0.266-0.525-0.399
		c-0.184-0.133-0.358-0.283-0.525-0.45l-0.45,2h-3.8v-9h3.8c0.666,2,1.625,3.483,2.875,4.45s2.941,1.45,5.075,1.45
		c1.167,0,2.1-0.209,2.8-0.627c0.7-0.417,1.05-0.978,1.05-1.679c0-0.901-0.5-1.562-1.5-1.979s-2.2-0.777-3.6-1.078
		c-0.434-0.1-0.875-0.199-1.325-0.3c-0.45-0.1-0.909-0.2-1.375-0.302c-1.934-0.467-3.717-1.219-5.35-2.254
		c-1.634-1.036-2.45-2.807-2.45-5.313c0-2.507,0.85-4.453,2.55-5.84c1.7-1.386,4.083-2.079,7.15-2.079c1.633,0,3.058,0.2,4.275,0.6
		c1.216,0.4,2.375,1.05,3.475,1.95l0.45-1.85h3.55V462.949z"/>
	<path d="M224.248,454.649h6.05v4.101h-6.05v13.8c0,0.934,0.108,1.592,0.325,1.975c0.216,0.384,0.591,0.575,1.125,0.575
		c0.566,0,0.975-0.217,1.225-0.65c0.25-0.433,0.375-1.149,0.375-2.149v-3.851h3.35v4.45c0,2.067-0.55,3.634-1.65,4.7
		s-2.717,1.6-4.85,1.6c-2.367,0-4.175-0.524-5.425-1.574c-1.25-1.051-1.875-2.608-1.875-4.676V458.75h-3.55v-3.7
		c2.4-0.566,4.075-1.601,5.025-3.101c0.95-1.5,1.425-3.449,1.425-5.85l4.5-0.05V454.649z"/>
	<path d="M263.598,472.05c0,0.867,0.133,1.467,0.399,1.8c0.267,0.334,0.733,0.5,1.4,0.5l2.2-0.05v4.05h-11.4v-3.3
		c-0.367,0.467-0.717,0.875-1.05,1.225c-0.334,0.351-0.667,0.675-1,0.976c-0.834,0.699-1.7,1.199-2.601,1.5
		c-0.899,0.3-1.934,0.449-3.1,0.449c-2.533,0-4.459-0.617-5.775-1.85s-1.975-3.05-1.975-5.45v-11.05c0-0.833-0.134-1.408-0.4-1.725
		s-0.733-0.476-1.399-0.476h-1.95V454.5h11.15v14.75c0,2,0.266,3.367,0.8,4.1c0.532,0.733,1.517,1.1,2.95,1.1
		c1.466,0,2.558-0.5,3.274-1.5s1.075-2.5,1.075-4.5v-7.6c0-0.833-0.134-1.408-0.4-1.725s-0.733-0.476-1.399-0.476h-2.101V454.5
		h11.301V472.05z"/>
	<path d="M290.598,460.449c0.032-0.032,0.057-0.074,0.074-0.125c0.017-0.05,0.041-0.107,0.075-0.175
		c0.066-0.166,0.125-0.325,0.175-0.475c0.051-0.15,0.075-0.308,0.075-0.476c0-0.232-0.075-0.383-0.226-0.449
		c-0.149-0.066-0.458-0.101-0.924-0.101h-1.9V454.5h11.15v4.149h-1.101c-0.534,0.034-0.958,0.108-1.274,0.226
		c-0.318,0.116-0.593,0.391-0.826,0.822c-0.1,0.133-0.199,0.299-0.299,0.498c-0.101,0.2-0.201,0.434-0.301,0.699l-7.35,17.455h-6.6
		l-7.101-17.9c-0.101-0.199-0.192-0.391-0.274-0.574c-0.084-0.184-0.159-0.342-0.226-0.476c-0.2-0.3-0.399-0.5-0.601-0.6
		c-0.199-0.101-0.449-0.15-0.75-0.15h-1.799V454.5h14.949v4.149h-1.9c-0.566,0.034-0.975,0.116-1.225,0.249
		s-0.375,0.366-0.375,0.697c0,0.133,0.025,0.299,0.075,0.498s0.142,0.465,0.274,0.797l3.851,10.159L290.598,460.449z"/>
	<path d="M320.047,478.35h-6.201l-6.149-18.05c-0.034-0.033-0.059-0.083-0.075-0.15c-0.018-0.066-0.042-0.133-0.074-0.2
		c-0.201-0.532-0.409-0.899-0.625-1.1c-0.218-0.2-0.51-0.3-0.875-0.3l-2.15-0.05v-4h14.15v4h-1.9
		c-0.434,0.033-0.725,0.108-0.875,0.225c-0.15,0.117-0.225,0.309-0.225,0.575c0,0.1,0.016,0.2,0.049,0.3s0.066,0.2,0.101,0.3
		c0,0.067,0.017,0.143,0.05,0.226s0.051,0.158,0.051,0.225l3.35,10.25l3.699-10.25c0.101-0.267,0.176-0.467,0.226-0.6
		s0.075-0.25,0.075-0.351c0-0.032,0-0.066,0-0.1c0-0.267-0.084-0.441-0.25-0.525c-0.168-0.083-0.484-0.125-0.95-0.125h-1.399V454.5
		h13.699v4.149h-1.699c-0.4,0.034-0.701,0.108-0.9,0.225c-0.2,0.116-0.301,0.307-0.301,0.572v0.05c0,0.1,0.018,0.208,0.051,0.324
		s0.1,0.323,0.199,0.621l3.351,10.158l3.601-10.25c0.1-0.232,0.166-0.4,0.199-0.5s0.051-0.183,0.051-0.25c0-0.033,0-0.066,0-0.1
		c0-0.301-0.101-0.517-0.301-0.65c-0.199-0.133-0.533-0.2-1-0.2h-1.35V454.5h10.4v4.149h-1.101c-0.8,0.034-1.384,0.324-1.75,0.873
		c-0.367,0.548-0.684,1.155-0.95,1.82c0,0.067-0.008,0.125-0.025,0.175c-0.017,0.05-0.041,0.092-0.074,0.124
		c-0.033,0.101-0.075,0.209-0.125,0.325c-0.051,0.116-0.092,0.225-0.125,0.323l-5.95,16.06h-6.351l-4.549-13.45L320.047,478.35z"/>
	<path d="M355.995,460.405c-0.3-0.335-0.567-0.61-0.8-0.827c-0.234-0.218-0.45-0.394-0.65-0.527c-0.268-0.167-0.55-0.275-0.85-0.325
		c-0.301-0.05-0.684-0.076-1.15-0.076h-1.35V454.5h15.55v4.149h-1.7c-0.3,0-0.518,0.034-0.65,0.101s-0.199,0.184-0.199,0.35
		c0,0.134,0.141,0.375,0.425,0.725c0.282,0.351,0.591,0.709,0.925,1.075c0.033,0.034,0.066,0.067,0.1,0.101s0.066,0.066,0.101,0.1
		c0.3,0.334,0.591,0.65,0.875,0.95c0.282,0.3,0.476,0.517,0.575,0.649l3.25-3c0.133-0.066,0.225-0.149,0.275-0.25
		c0.049-0.1,0.074-0.199,0.074-0.3c0-0.166-0.066-0.291-0.199-0.375c-0.135-0.083-0.385-0.125-0.75-0.125h-1.101V454.5h11.899v4.149
		h-1.35c-0.434,0.034-0.792,0.067-1.074,0.101c-0.284,0.032-0.51,0.082-0.676,0.148c-0.199,0.101-0.449,0.266-0.75,0.499
		c-0.3,0.232-0.733,0.599-1.3,1.096l-5.649,4.984l6.549,7.477c0.4,0.499,0.826,0.856,1.275,1.072
		c0.45,0.216,0.992,0.323,1.625,0.323h1.35v4h-15.6v-4h1.7c0.366,0,0.625-0.033,0.774-0.1c0.15-0.066,0.226-0.184,0.226-0.351
		c0-0.066-0.184-0.325-0.55-0.774c-0.367-0.45-0.768-0.926-1.2-1.426c-0.034-0.032-0.059-0.058-0.075-0.074
		c-0.018-0.017-0.025-0.042-0.025-0.075c-0.367-0.4-0.699-0.775-1-1.125c-0.299-0.351-0.533-0.608-0.699-0.775
		c-0.1,0.101-0.35,0.325-0.75,0.675c-0.4,0.351-0.817,0.742-1.25,1.176c-0.067,0.033-0.125,0.083-0.176,0.149
		c-0.049,0.067-0.092,0.117-0.125,0.15c-0.467,0.434-0.875,0.85-1.225,1.25c-0.35,0.399-0.525,0.684-0.525,0.85
		c0,0.134,0.092,0.242,0.275,0.325c0.184,0.084,0.392,0.125,0.625,0.125h1.75v4h-12v-4c0.732,0.033,1.35,0,1.85-0.1
		c0.5-0.101,0.967-0.285,1.4-0.553c0.301-0.133,0.592-0.316,0.875-0.551s0.592-0.519,0.926-0.854l5.75-5.417L355.995,460.405z"/>
	<path d="M406.194,460.3c0.066-0.2,0.125-0.375,0.175-0.525c0.051-0.149,0.075-0.291,0.075-0.425c0-0.3-0.083-0.5-0.25-0.6
		c-0.167-0.101-0.483-0.15-0.95-0.15h-1.9v-4.1h10.951v4.1h-0.951c-0.467,0.033-0.824,0.092-1.074,0.175s-0.475,0.291-0.676,0.624
		c-0.133,0.167-0.258,0.366-0.375,0.599c-0.117,0.233-0.242,0.516-0.375,0.849l-9.449,21.216c-1.134,2.528-2.35,4.334-3.65,5.416
		c-1.3,1.081-2.917,1.622-4.85,1.622c-2.268,0-4.043-0.518-5.325-1.55c-1.284-1.034-1.925-2.483-1.925-4.351
		c0-1.3,0.408-2.392,1.225-3.274c0.816-0.884,1.825-1.325,3.025-1.325c0.967,0,1.791,0.325,2.475,0.975
		c0.684,0.65,1.025,1.441,1.025,2.375c0,0.867-0.225,1.542-0.676,2.025c-0.449,0.482-1.225,0.842-2.324,1.075
		c0.1,0.133,0.183,0.241,0.25,0.325c0.066,0.082,0.15,0.157,0.25,0.225c0.166,0.166,0.357,0.275,0.574,0.325
		s0.492,0.075,0.826,0.075c0.633,0,1.199-0.134,1.699-0.4c0.5-0.268,0.982-0.717,1.45-1.35c0.366-0.468,0.741-1.067,1.125-1.801
		c0.383-0.733,0.792-1.617,1.226-2.649l-8.5-19.5c-0.068-0.101-0.125-0.2-0.176-0.3c-0.05-0.101-0.092-0.2-0.125-0.301
		c-0.268-0.466-0.559-0.766-0.875-0.899c-0.316-0.133-0.824-0.2-1.525-0.2h-1.149v-4.1h15.2v4.1h-2.051
		c-0.533,0-0.899,0.05-1.1,0.15c-0.199,0.1-0.3,0.3-0.3,0.6c0,0.067,0.017,0.158,0.05,0.275s0.083,0.274,0.15,0.475l4.35,10.6
		L406.194,460.3z"/>
	<path d="M442.744,457.75l-14.549,16.55h4.5c2.633,0.033,4.25-0.558,4.85-1.775c0.6-1.216,0.9-2.991,0.9-5.325l4.299-0.05v11.2
		h-24.25v-3.8l14.201-15.95h-4.15c-2.134,0.033-3.5,0.417-4.1,1.15c-0.601,0.733-0.968,2.483-1.101,5.25l-4.149-0.051l0.25-10.449
		h23.299V457.75z"/>
	<path fill="#FFFFFF" d="M139.6,511.6c0-5.732,0.958-9.908,2.875-12.525c1.917-2.616,4.975-3.925,9.175-3.925
		c4.066,0,7.066,1.268,9,3.8c1.933,2.534,2.9,6.5,2.9,11.9c0,0.6-0.017,1.259-0.05,1.975c-0.034,0.718-0.084,1.442-0.15,2.176
		c-0.1,1.066-0.217,2.1-0.35,3.1c-0.134,1-0.268,1.85-0.4,2.55c-0.567,2.634-1.833,4.659-3.8,6.075
		c-1.967,1.417-4.467,2.125-7.5,2.125c-4,0-6.95-1.392-8.85-4.175s-2.85-7.125-2.85-13.025V511.6z M147.5,511.649v0.7
		c0,3.367,0.1,5.809,0.3,7.325s0.566,2.725,1.1,3.625c0.266,0.434,0.633,0.783,1.1,1.05c0.466,0.268,0.966,0.4,1.5,0.4
		c1.266,0,2.191-0.434,2.775-1.301c0.583-0.866,0.941-2.316,1.075-4.35c0.1-1.5,0.175-2.875,0.225-4.125
		c0.05-1.25,0.075-2.375,0.075-3.375c0-4.732-0.284-7.967-0.85-9.7c-0.567-1.732-1.617-2.6-3.15-2.6
		c-1.634,0-2.717,0.825-3.25,2.475c-0.534,1.65-0.833,4.959-0.9,9.925V511.649z"/>
	<path fill="#FFFFFF" d="M187.6,521.899c0,0.867,0.2,1.476,0.6,1.825c0.4,0.35,1.1,0.525,2.1,0.525h3.65v4.1h-20v-4.1h3.4
		c1,0.033,1.7-0.125,2.1-0.477c0.4-0.351,0.6-0.944,0.6-1.78V505.8h-6.1v-4.2c0.066,0.033,0.133,0.05,0.2,0.05
		c0.066,0,0.133-0.017,0.2-0.05c0.033,0,0.075,0,0.125,0c0.05,0,0.091,0,0.125,0c2.266-0.267,3.982-0.791,5.15-1.575
		c1.167-0.782,2.1-2.258,2.8-4.425l5.05-0.05V521.899z"/>
	<path fill="#FFFFFF" d="M226.35,516.899v3.2c0,2.8-0.55,4.959-1.65,6.475c-1.1,1.518-2.667,2.275-4.7,2.275
		c-1.167,0-2.309-0.167-3.425-0.5c-1.117-0.333-2.192-0.7-3.225-1.1c-1-0.4-1.934-0.775-2.8-1.125
		c-0.867-0.351-1.65-0.525-2.35-0.525c-0.734,0-1.225,0.192-1.475,0.575c-0.25,0.384-0.409,1.108-0.475,2.175h-4.35
		c0-0.133,0-0.267,0-0.4c0-0.133,0-0.25,0-0.35c-0.034-0.066-0.05-0.133-0.05-0.2c0-0.066,0-0.116,0-0.149c0-0.066,0-0.117,0-0.15
		s0-0.066,0-0.1c0-1.5,0.158-2.934,0.475-4.301c0.316-1.366,0.741-2.516,1.275-3.449c0.667-1.167,1.575-2.184,2.725-3.051
		c1.15-0.866,2.341-1.683,3.575-2.449c0.133-0.101,0.283-0.2,0.45-0.301c0.167-0.1,0.316-0.199,0.45-0.3
		c1.7-1.032,3.2-2.142,4.5-3.325c1.3-1.183,1.95-2.725,1.95-4.625c0-1.633-0.542-2.941-1.625-3.925
		c-1.083-0.982-2.509-1.475-4.275-1.475c-1.367,0-2.484,0.25-3.35,0.75c-0.867,0.5-1.434,1.217-1.7,2.149
		c0.267-0.066,0.483-0.116,0.65-0.149c0.166-0.033,0.3-0.05,0.4-0.05c0.966,0,1.775,0.342,2.425,1.024
		c0.65,0.684,0.975,1.559,0.975,2.625c0,1.134-0.417,2.067-1.25,2.8c-0.833,0.734-1.917,1.101-3.25,1.101
		c-1.434,0-2.583-0.5-3.45-1.5c-0.867-1-1.3-2.351-1.3-4.05c0-1.801,0.616-3.5,1.85-5.101c1.233-1.6,2.8-2.732,4.7-3.399
		c0.833-0.267,1.742-0.476,2.725-0.625c0.983-0.15,2.042-0.226,3.175-0.226c3.433,0,6.208,0.9,8.325,2.7
		c2.117,1.8,3.175,4.15,3.175,7.05c0,3.4-1.009,5.834-3.025,7.3c-2.017,1.468-4.275,2.718-6.775,3.75
		c-0.1,0.067-0.208,0.125-0.325,0.176c-0.117,0.05-0.225,0.092-0.325,0.125c-0.934,0.399-1.858,0.816-2.775,1.25
		c-0.917,0.434-1.775,0.917-2.575,1.449c-0.333,0.234-0.625,0.434-0.875,0.601s-0.458,0.317-0.625,0.45
		c-0.267,0.267-0.467,0.533-0.6,0.8c-0.133,0.267-0.25,0.634-0.35,1.1c0.566-0.366,1.083-0.649,1.55-0.85
		c0.466-0.2,0.933-0.333,1.4-0.4c0.167-0.032,0.341-0.058,0.525-0.075c0.183-0.016,0.358-0.024,0.525-0.024
		c0.766,0,1.508,0.092,2.225,0.274c0.717,0.184,1.441,0.393,2.175,0.625c0.733,0.234,1.458,0.442,2.175,0.625
		c0.716,0.184,1.458,0.275,2.225,0.275c0.767,0,1.366-0.3,1.8-0.9c0.433-0.6,0.65-1.449,0.65-2.55v-2H226.35z"/>
	<path fill="#FFFFFF" d="M241.85,509.25c0.1,0.033,0.191,0.05,0.275,0.05c0.082,0,0.175,0,0.274,0
		c1.667-0.033,3.191-0.316,4.575-0.851c1.383-0.532,2.075-1.816,2.075-3.85c0-1.566-0.509-2.842-1.525-3.825
		c-1.017-0.982-2.358-1.475-4.024-1.475c-0.468,0-0.867,0.024-1.2,0.075c-0.334,0.05-0.65,0.125-0.95,0.225
		c-0.233,0.1-0.467,0.217-0.7,0.35c-0.233,0.134-0.483,0.301-0.75,0.5c0.233,0.134,0.45,0.259,0.65,0.375
		c0.2,0.117,0.383,0.242,0.55,0.375c0.467,0.367,0.791,0.75,0.975,1.15s0.275,0.917,0.275,1.55c0,1.167-0.384,2.117-1.15,2.851
		s-1.767,1.1-3,1.1c-1.333,0-2.417-0.441-3.25-1.325c-0.833-0.883-1.25-2.058-1.25-3.524c0-2.301,1.075-4.184,3.225-5.65
		c2.149-1.467,4.892-2.2,8.225-2.2c3.467,0,6.292,0.775,8.476,2.325c2.183,1.55,3.274,3.559,3.274,6.025
		c0,1.733-0.492,3.233-1.475,4.5c-0.983,1.267-2.425,2.233-4.325,2.899c2.066,0.534,3.658,1.468,4.775,2.8
		c1.116,1.334,1.675,2.968,1.675,4.9c0,3.067-1.226,5.542-3.675,7.425c-2.45,1.884-5.676,2.825-9.676,2.825
		c-3.367,0-6.066-0.732-8.1-2.2c-2.034-1.466-3.05-3.433-3.05-5.899c0-1.467,0.482-2.7,1.45-3.7c0.966-1,2.133-1.5,3.5-1.5
		c1.066,0,2,0.399,2.8,1.2c0.8,0.8,1.2,1.767,1.2,2.899c0,0.601-0.075,1.108-0.226,1.525c-0.149,0.417-0.425,0.809-0.825,1.175
		c-0.199,0.167-0.425,0.342-0.675,0.525s-0.542,0.375-0.875,0.574c0.3,0.2,0.566,0.384,0.8,0.551s0.467,0.3,0.7,0.399
		c0.333,0.134,0.675,0.226,1.025,0.275c0.35,0.05,0.774,0.075,1.274,0.075c1.867,0,3.316-0.561,4.351-1.683
		c1.032-1.122,1.55-2.653,1.55-4.595c0-2.311-0.725-3.733-2.175-4.27c-1.45-0.535-3.143-0.804-5.075-0.804V509.25z"/>
	<path fill="#FFFFFF" d="M285.35,515.149h4.15v4.45h-4.15v2.3c0,0.867,0.2,1.476,0.6,1.825c0.4,0.35,1.101,0.525,2.101,0.525h1.45
		v4.1h-16.45v-4.1h2.3c1,0.033,1.7-0.127,2.1-0.48c0.4-0.354,0.601-0.952,0.601-1.794V519.6H265.1v-4.85l14.1-19.2h6.15V515.149z
		 M278.05,504.149l-7.899,11h7.899V504.149z"/>
	<path fill="#FFFFFF" d="M299.449,495.199l1.15-0.3c1.866,0.601,3.717,1.05,5.55,1.351c1.833,0.3,3.649,0.449,5.45,0.449
		c1.366,0,2.508-0.074,3.425-0.225s1.792-0.408,2.625-0.775c0.233-0.1,0.476-0.216,0.726-0.35c0.25-0.133,0.49-0.267,0.725-0.4
		l1.35,1.051c-0.268,0.399-0.533,0.767-0.8,1.1c-0.267,0.334-0.534,0.65-0.8,0.95c-1.334,1.467-2.734,2.55-4.2,3.25
		c-1.468,0.7-3.367,1.05-5.7,1.05c-0.934,0-1.867-0.058-2.8-0.175c-0.934-0.116-1.867-0.241-2.8-0.375l-0.6,5.3
		c0.633-0.232,1.216-0.425,1.75-0.575c0.532-0.149,1.066-0.274,1.6-0.375c0.4-0.066,0.808-0.116,1.225-0.149
		c0.416-0.033,0.857-0.051,1.325-0.051c3.633,0,6.542,0.984,8.726,2.95c2.182,1.968,3.274,4.601,3.274,7.9
		c0,3.5-1.192,6.384-3.575,8.649c-2.383,2.268-5.408,3.4-9.074,3.4c-3.367,0-6.093-0.732-8.176-2.2
		c-2.084-1.466-3.125-3.416-3.125-5.85c0-1.601,0.426-2.858,1.275-3.775c0.85-0.916,2.008-1.375,3.475-1.375
		c1.166,0,2.117,0.384,2.85,1.15c0.733,0.767,1.101,1.75,1.101,2.95c0,0.833-0.208,1.542-0.625,2.125s-1.093,1.092-2.024,1.524
		c0.332,0.2,0.633,0.367,0.899,0.5c0.267,0.134,0.517,0.25,0.75,0.351c0.3,0.1,0.616,0.167,0.95,0.199
		c0.332,0.034,0.717,0.051,1.15,0.051c1.865,0,3.291-0.608,4.274-1.825s1.476-2.991,1.476-5.325c0-2.166-0.484-3.85-1.451-5.05
		s-2.316-1.8-4.049-1.8c-0.934,0-1.726,0.149-2.375,0.449c-0.65,0.301-1.193,0.75-1.625,1.351l-4.701-0.3L299.449,495.199z"/>
	<path fill="#FFFFFF" d="M335.148,509.05c0.601-0.333,1.143-0.625,1.625-0.875c0.483-0.25,0.959-0.441,1.426-0.575
		c0.433-0.133,0.883-0.225,1.35-0.275c0.467-0.05,0.967-0.074,1.5-0.074c3.267,0,5.842,0.941,7.725,2.824
		c1.883,1.884,2.826,4.459,2.826,7.726c0,3.233-1.117,5.884-3.351,7.95s-5.083,3.1-8.55,3.1c-4.067,0-7.134-1.275-9.2-3.825
		c-2.067-2.55-3.101-6.357-3.101-11.425c0-4.833,0.926-9.116,2.775-12.85s5.592-5.601,11.225-5.601c2.867,0,5.15,0.593,6.851,1.775
		c1.7,1.184,2.55,2.792,2.55,4.825c0,1.233-0.383,2.25-1.15,3.05c-0.767,0.8-1.767,1.2-3,1.2c-1.232,0-2.217-0.316-2.949-0.95
		c-0.734-0.633-1.1-1.483-1.1-2.55c0-0.301,0.024-0.566,0.074-0.801c0.051-0.232,0.142-0.466,0.275-0.699
		c0.133-0.2,0.308-0.417,0.525-0.65c0.216-0.232,0.49-0.5,0.824-0.8c-0.199-0.066-0.375-0.116-0.525-0.15
		c-0.149-0.032-0.291-0.066-0.424-0.1c-0.135-0.033-0.275-0.05-0.426-0.05s-0.324,0-0.525,0c-2.5,0-4.316,0.774-5.449,2.324
		c-1.134,1.551-1.734,4.059-1.801,7.525V509.05z M335.299,517.8c0,2.2,0.383,3.908,1.15,5.125c0.766,1.217,1.816,1.825,3.15,1.825
		c1.299,0,2.307-0.608,3.024-1.825c0.716-1.217,1.075-2.908,1.075-5.075c0-1.866-0.367-3.375-1.1-4.525
		c-0.734-1.149-1.684-1.725-2.851-1.725c-1.367,0-2.45,0.55-3.25,1.65c-0.8,1.1-1.2,2.633-1.2,4.6V517.8z"/>
	<path fill="#FFFFFF" d="M360.1,495.55h4.149v1.649c0.466-0.366,0.925-0.691,1.375-0.975s0.892-0.508,1.325-0.675
		c0.366-0.133,0.725-0.233,1.074-0.3c0.351-0.066,0.726-0.101,1.125-0.101c0.834,0,1.633,0.15,2.4,0.45
		c0.767,0.3,1.533,0.634,2.301,1c0.766,0.367,1.532,0.7,2.299,1c0.768,0.3,1.566,0.45,2.4,0.45c0.4,0,0.691-0.142,0.875-0.425
		s0.275-0.708,0.275-1.275c0-0.066,0-0.125,0-0.175s0.016-0.108,0.05-0.175c0-0.066,0-0.133,0-0.2c0-0.066,0-0.133,0-0.2l4.25-0.05
		c0,3.134-0.476,5.733-1.425,7.8c-0.95,2.067-2.043,4.033-3.275,5.9c-0.1,0.167-0.191,0.316-0.275,0.449
		c-0.083,0.134-0.174,0.268-0.274,0.4c-1.3,2.033-2.5,4.242-3.601,6.625c-1.1,2.384-1.649,5.459-1.649,9.225c0,0.168,0,0.317,0,0.45
		c0,0.134,0,0.268,0,0.4c0.032,0.233,0.058,0.475,0.075,0.725c0.016,0.25,0.041,0.525,0.074,0.825h-7.649
		c0-0.333-0.009-0.625-0.024-0.875c-0.018-0.25-0.025-0.475-0.025-0.675c0-0.133,0-0.258,0-0.375c0-0.116,0-0.241,0-0.375
		c0-4.233,0.641-7.467,1.925-9.7c1.282-2.232,2.774-4.267,4.476-6.1c0.299-0.301,0.6-0.608,0.899-0.926
		c0.3-0.316,0.601-0.641,0.899-0.975c0.801-0.833,1.576-1.732,2.326-2.7c0.75-0.966,1.457-2.05,2.125-3.25
		c-0.367,0.2-0.718,0.367-1.051,0.5c-0.334,0.134-0.65,0.25-0.949,0.351c-0.334,0.1-0.668,0.167-1,0.199
		c-0.334,0.034-0.684,0.051-1.051,0.051c-0.699,0-1.375-0.083-2.025-0.25c-0.649-0.167-1.291-0.351-1.924-0.551
		c-0.4-0.1-0.784-0.207-1.15-0.324c-0.367-0.117-0.734-0.208-1.1-0.275c-0.268-0.033-0.518-0.066-0.75-0.1
		c-0.234-0.033-0.484-0.051-0.75-0.051c-0.9,0-1.559,0.25-1.976,0.75s-0.625,1.317-0.625,2.45v3.351H360.1V495.55z"/>
	<path fill="#FFFFFF" d="M395.099,512.3c-0.399-0.233-0.774-0.483-1.125-0.75s-0.659-0.533-0.925-0.8
		c-0.9-0.833-1.543-1.7-1.926-2.601c-0.383-0.899-0.574-1.982-0.574-3.25c0-2.966,1.107-5.333,3.324-7.1s5.158-2.65,8.826-2.65
		c3.133,0,5.674,0.726,7.625,2.175c1.949,1.45,2.924,3.359,2.924,5.726c0,1.333-0.217,2.458-0.649,3.375
		c-0.434,0.917-1.2,1.792-2.3,2.625c-0.268,0.2-0.543,0.392-0.825,0.575c-0.284,0.184-0.593,0.375-0.925,0.574
		c1.967,0.834,3.449,1.934,4.449,3.301s1.5,2.983,1.5,4.85c0,3.233-1.125,5.792-3.375,7.675c-2.25,1.884-5.291,2.825-9.125,2.825
		c-3.799,0-6.717-0.791-8.75-2.375c-2.033-1.583-3.049-3.857-3.049-6.825c0-1.3,0.225-2.416,0.674-3.35
		c0.451-0.933,1.226-1.816,2.326-2.65c0.266-0.232,0.557-0.45,0.875-0.649c0.316-0.2,0.657-0.417,1.024-0.65V512.3z M398.949,514.25
		c-1.135,0.8-1.968,1.608-2.5,2.425c-0.534,0.817-0.801,1.759-0.801,2.825c0,1.699,0.583,3.024,1.75,3.975
		c1.166,0.95,2.816,1.425,4.95,1.425c1.667,0,3.042-0.383,4.125-1.149s1.625-1.733,1.625-2.9c0-1.166-0.55-2.175-1.649-3.025
		c-1.101-0.85-2.318-1.558-3.65-2.125c-0.7-0.3-1.393-0.566-2.075-0.8c-0.684-0.232-1.274-0.433-1.774-0.6V514.25z M404.648,508.35
		c1.133-0.732,1.967-1.491,2.5-2.275c0.533-0.782,0.801-1.591,0.801-2.425c0-1.3-0.525-2.35-1.576-3.149
		c-1.049-0.801-2.424-1.2-4.125-1.2c-1.732,0-3.117,0.342-4.149,1.024c-1.034,0.684-1.55,1.593-1.55,2.726
		c0,0.5,0.107,0.934,0.324,1.3c0.217,0.367,0.592,0.733,1.125,1.1c0.301,0.168,0.643,0.351,1.025,0.551
		c0.383,0.199,0.825,0.399,1.325,0.6c0.233,0.1,0.476,0.2,0.726,0.3c0.25,0.101,0.49,0.2,0.725,0.3
		c0.1,0.067,0.207,0.125,0.324,0.176c0.117,0.05,0.242,0.092,0.375,0.125c0.367,0.167,0.726,0.324,1.076,0.475
		c0.35,0.15,0.707,0.292,1.074,0.425V508.35z"/>
	<path fill="#FFFFFF" d="M438.099,514.949c-0.434,0.301-0.851,0.559-1.25,0.775s-0.817,0.393-1.25,0.525
		c-0.601,0.233-1.208,0.408-1.825,0.524c-0.617,0.117-1.275,0.175-1.975,0.175c-3.234,0-5.709-1.041-7.426-3.125
		c-1.717-2.082-2.574-4.641-2.574-7.675c0-3.232,1.107-5.875,3.324-7.925s5.042-3.075,8.476-3.075c3.933,0,6.976,1.343,9.125,4.025
		c2.149,2.684,3.226,6.492,3.226,11.425c0,5.834-1.201,10.334-3.601,13.5c-2.399,3.167-5.8,4.75-10.2,4.75
		c-2.8,0-5.059-0.592-6.775-1.775c-1.717-1.183-2.574-2.741-2.574-4.675c0-1.2,0.4-2.191,1.199-2.975
		c0.801-0.783,1.801-1.175,3-1.175c1.066,0,1.959,0.35,2.676,1.05s1.074,1.55,1.074,2.55c0,0.4-0.059,0.768-0.174,1.1
		c-0.117,0.334-0.309,0.65-0.576,0.95c-0.1,0.167-0.217,0.317-0.35,0.45c-0.133,0.134-0.283,0.268-0.449,0.4
		c0.332,0.1,0.615,0.175,0.85,0.225c0.232,0.05,0.467,0.092,0.699,0.125c0.066,0,0.143,0,0.226,0s0.175,0,0.274,0
		c2.201,0,3.867-0.833,5-2.5c1.133-1.666,1.75-4.2,1.851-7.6V514.949z M429.449,505.85c0,2.1,0.399,3.775,1.199,5.025
		c0.801,1.25,1.867,1.875,3.2,1.875c1.3,0,2.325-0.559,3.075-1.676c0.75-1.116,1.125-2.675,1.125-4.675
		c0-2.267-0.393-4.017-1.176-5.25c-0.783-1.232-1.875-1.85-3.274-1.85c-1.267,0-2.274,0.592-3.024,1.774
		c-0.75,1.184-1.125,2.793-1.125,4.825V505.85z"/>
</g>
<path fill="#FFFFFF" d="M442.984,184.118v12.871c0,10.685-2.299,18.479-6.889,23.362c-4.594,4.888-11.775,7.337-21.559,7.337
	c-7.674,0-13.771-1.28-18.285-3.839c-4.516-2.558-7.98-6.621-10.387-12.189c-4.512,5.417-9.705,9.45-15.574,12.073
	c-5.871,2.636-12.342,3.955-19.417,3.955c-10.083,0-18.058-2.631-23.927-7.902c-5.871-5.267-8.804-12.488-8.804-21.675
	c0-11.13,3.497-18.733,10.497-22.797c6.994-4.063,14.707-7.071,23.139-9.032c1.205-0.298,2.442-0.596,3.725-0.901
	c1.275-0.299,2.518-0.527,3.725-0.678c6.92-1.501,12.98-3.347,18.17-5.53c5.197-2.179,7.789-6.207,7.789-12.078
	c0-5.72-2.143-10.076-6.432-13.095c-4.289-3.007-10.576-4.513-18.85-4.513c-1.957,0-3.578,0.039-4.854,0.116
	c-1.279,0.077-2.449,0.259-3.496,0.558c-0.758,0.154-1.549,0.418-2.377,0.793c-0.826,0.38-1.77,0.786-2.818,1.246
	c3.611,1.351,6.281,3.046,8.016,5.077c1.728,2.032,2.594,4.552,2.594,7.559c0,4.821-1.58,8.694-4.74,11.629
	c-3.162,2.933-7.3,4.402-12.416,4.402c-5.12,0-9.334-1.88-12.643-5.646c-3.311-3.761-4.965-8.501-4.965-14.218
	c0-8.881,3.951-15.77,11.85-20.661c7.9-4.888,18.928-7.337,33.072-7.337c18.359,0,31.455,2.864,39.281,8.58
	c7.824,5.724,11.742,15.127,11.742,28.219v49.894c0,2.855,0.336,4.85,1.014,5.979c0.678,1.13,1.842,1.695,3.5,1.695
	c1.953,0,3.307-0.755,4.061-2.26c0.754-1.502,1.131-4.138,1.131-7.902v-13.092H442.984z M382.143,174.633
	c-0.828,0.306-1.693,0.604-2.598,0.909c-0.9,0.302-1.77,0.604-2.596,0.902c-0.826,0.302-1.691,0.604-2.597,0.901
	c-1.052,0.448-2.106,0.87-3.161,1.243c-1.053,0.374-2.182,0.719-3.383,1.017c-0.152,0-0.303,0.039-0.451,0.112
	c-0.152,0.077-0.305,0.108-0.453,0.108c-3.914,1.057-7.414,2.488-10.498,4.292c-3.086,1.808-4.627,5.189-4.627,10.161
	c0,3.763,1.163,6.812,3.498,9.138c2.334,2.337,5.455,3.506,9.369,3.506c5.268,0,9.934-1.694,13.998-5.085
	c4.063-3.383,6.092-7.186,6.092-11.4v-16.93C383.836,173.963,382.967,174.336,382.143,174.633z"/>
</svg>
