<?xml version="1.0" encoding="utf-8"?>
<!-- Generator: Adobe Illustrator 14.0.0, SVG Export Plug-In . SVG Version: 6.00 Build 43363)  -->
<!DOCTYPE svg PUBLIC "-//W3C//DTD SVG 1.1//EN" "http://www.w3.org/Graphics/SVG/1.1/DTD/svg11.dtd">
<svg version="1.1" xmlns="http://www.w3.org/2000/svg" xmlns:xlink="http://www.w3.org/1999/xlink" x="0px" y="0px"
	 width="395.95px" height="467.941px" viewBox="0 0 395.95 467.941" enable-background="new 0 0 395.95 467.941"
	 xml:space="preserve">
<g id="Layer_3">
	<rect fill="#E9E5CD" width="395.95" height="310.5"/>
	<rect y="310.5" fill="#878AA5" width="395.95" height="155.455"/>
</g>
<g id="Layer_2">
	<g>
		<path fill="#404041" d="M26.15,69.23h6.105V31.61H26.15v-0.77h10.23c0.513,0,1.026-0.008,1.54-0.027
			c0.513-0.018,1.026-0.045,1.54-0.083c0.513,0,1.026-0.009,1.54-0.027c0.513-0.018,1.026-0.028,1.54-0.028
			c1.1,0,2.081,0.019,2.942,0.055c0.861,0.037,1.668,0.102,2.42,0.192c0.751,0.092,1.466,0.22,2.145,0.385
			c0.678,0.165,1.403,0.376,2.173,0.632c2.236,0.734,4.17,1.714,5.802,2.942c1.631,1.229,2.97,2.649,4.015,4.263
			c1.045,1.614,1.815,3.374,2.31,5.28c0.495,1.907,0.742,3.905,0.742,5.995c0,2.42-0.294,4.593-0.88,6.518
			c-0.587,1.925-1.394,3.63-2.42,5.115c-1.027,1.485-2.228,2.769-3.603,3.85c-1.375,1.082-2.852,1.953-4.428,2.613
			c-0.88,0.404-1.714,0.715-2.502,0.935c-0.789,0.22-1.595,0.385-2.42,0.495c-0.825,0.11-1.732,0.183-2.722,0.22
			c-0.99,0.036-2.127,0.055-3.41,0.055c-0.55,0-1.137-0.01-1.76-0.028c-0.624-0.019-1.247-0.046-1.87-0.083
			c-0.624-0.037-1.238-0.064-1.843-0.083C36.627,70.009,36.05,70,35.5,70h-9.35V69.23z M37.755,69.23
			c0.623,0.074,1.348,0.129,2.173,0.165c0.825,0.037,1.732,0.055,2.722,0.055c1.246,0,2.484-0.064,3.712-0.193
			c1.228-0.128,2.401-0.403,3.52-0.825c1.118-0.421,2.163-1.026,3.135-1.815c0.971-0.788,1.842-1.824,2.612-3.108
			c1.173-1.98,1.989-4.005,2.448-6.077c0.458-2.071,0.688-4.335,0.688-6.792c0-2.896-0.275-5.528-0.825-7.893
			c-0.55-2.365-1.458-4.381-2.723-6.05c-1.265-1.668-2.942-2.96-5.032-3.877c-2.09-0.916-4.675-1.375-7.755-1.375
			c-0.917,0-1.751,0.019-2.502,0.055c-0.752,0.037-1.477,0.074-2.173,0.11V69.23z"/>
		<path fill="#404041" d="M70.864,69.23h4.235V47.175h-4.235v-0.77h8.965V69.23h4.235V70h-13.2V69.23z M74.439,33.59
			c0-0.806,0.283-1.494,0.852-2.062c0.568-0.568,1.256-0.853,2.062-0.853c0.806,0,1.494,0.285,2.062,0.853
			c0.568,0.569,0.853,1.256,0.853,2.062c0,0.807-0.284,1.495-0.853,2.062c-0.569,0.569-1.256,0.853-2.062,0.853
			c-0.807,0-1.494-0.284-2.062-0.853C74.723,35.085,74.439,34.397,74.439,33.59z"/>
		<path fill="#404041" d="M103.479,30.346h8.965V69.23h4.235V70h-8.855v-4.785h-0.11c-0.147,0.44-0.367,0.972-0.66,1.595
			c-0.294,0.624-0.725,1.229-1.292,1.815c-0.569,0.587-1.284,1.091-2.145,1.513c-0.862,0.421-1.917,0.632-3.163,0.632
			c-1.614,0-3.145-0.349-4.593-1.045c-1.449-0.696-2.722-1.631-3.822-2.805c-1.1-1.173-1.972-2.521-2.613-4.042
			c-0.642-1.521-0.962-3.125-0.962-4.812c0-1.65,0.311-3.226,0.935-4.73c0.623-1.503,1.466-2.813,2.53-3.933
			c1.063-1.118,2.291-2.016,3.685-2.695c1.393-0.678,2.878-1.018,4.455-1.018c2.016,0,3.648,0.495,4.895,1.485
			c1.246,0.99,2.126,2.2,2.64,3.63h0.11v-19.69h-4.235V30.346z M93.963,57.405c0,1.907,0.055,3.64,0.165,5.198
			c0.11,1.559,0.385,2.888,0.825,3.987c0.44,1.1,1.1,1.944,1.98,2.53c0.88,0.587,2.071,0.88,3.575,0.88
			c1.54,0,2.778-0.33,3.713-0.99c0.935-0.66,1.658-1.512,2.172-2.557c0.513-1.045,0.861-2.208,1.045-3.493
			c0.183-1.283,0.275-2.53,0.275-3.74c0-1.43-0.027-2.667-0.083-3.713c-0.055-1.045-0.156-1.97-0.302-2.777
			c-0.147-0.806-0.349-1.503-0.605-2.09c-0.257-0.586-0.569-1.136-0.935-1.65c-0.55-0.733-1.265-1.338-2.145-1.815
			c-0.88-0.476-1.999-0.715-3.355-0.715c-1.284,0-2.337,0.257-3.163,0.77c-0.825,0.514-1.467,1.247-1.925,2.2
			c-0.459,0.954-0.78,2.099-0.963,3.438C94.055,54.207,93.963,55.719,93.963,57.405z"/>
		<path fill="#404041" d="M120.693,58.23c0-1.796,0.394-3.465,1.183-5.005c0.788-1.54,1.796-2.869,3.025-3.988
			c1.228-1.118,2.603-1.988,4.125-2.612c1.521-0.623,3.016-0.935,4.482-0.935c1.466,0,2.96,0.312,4.482,0.935
			c1.521,0.624,2.896,1.495,4.125,2.612c1.228,1.119,2.236,2.448,3.025,3.988c0.788,1.54,1.183,3.209,1.183,5.005
			c0,1.724-0.367,3.346-1.1,4.868c-0.734,1.522-1.696,2.851-2.887,3.987c-1.192,1.137-2.558,2.035-4.098,2.695
			c-1.54,0.66-3.117,0.99-4.73,0.99c-1.614,0-3.19-0.33-4.73-0.99c-1.54-0.66-2.906-1.558-4.098-2.695
			c-1.192-1.136-2.154-2.465-2.887-3.987C121.06,61.577,120.693,59.955,120.693,58.23z M126.193,58.23
			c0,2.604,0.201,4.675,0.605,6.215c0.403,1.54,0.935,2.723,1.595,3.548c0.66,0.825,1.43,1.366,2.31,1.623
			c0.88,0.257,1.815,0.385,2.805,0.385c0.99,0,1.925-0.128,2.805-0.385c0.88-0.256,1.65-0.798,2.31-1.623
			c0.66-0.825,1.191-2.008,1.595-3.548c0.403-1.54,0.605-3.611,0.605-6.215c0-2.2-0.147-4.042-0.44-5.527
			c-0.294-1.485-0.743-2.695-1.348-3.63c-0.605-0.935-1.366-1.604-2.282-2.007c-0.917-0.403-1.999-0.605-3.245-0.605
			c-1.247,0-2.329,0.202-3.245,0.605c-0.917,0.404-1.677,1.073-2.282,2.007c-0.605,0.935-1.055,2.145-1.348,3.63
			C126.339,54.188,126.193,56.03,126.193,58.23z"/>
		<path fill="#404041" d="M149.733,46.405h4.235v-7.095c0.293,0.11,0.568,0.202,0.825,0.275c0.256,0.074,0.696,0.11,1.32,0.11
			c0.55,0,1.026-0.063,1.43-0.192c0.403-0.128,0.788-0.338,1.155-0.632v7.535h7.81v0.77h-7.81v17.985
			c0,1.027,0.101,1.861,0.303,2.502c0.201,0.642,0.467,1.137,0.797,1.485c0.33,0.349,0.688,0.578,1.072,0.688
			c0.385,0.11,0.761,0.165,1.128,0.165c1.283,0,2.318-0.467,3.107-1.402c0.788-0.935,1.292-2.008,1.512-3.218l0.77,0.275
			c-0.11,0.477-0.275,1.009-0.495,1.595c-0.22,0.587-0.56,1.146-1.018,1.678c-0.459,0.532-1.055,0.972-1.788,1.32
			c-0.734,0.348-1.65,0.522-2.75,0.522c-2.75,0-4.667-0.532-5.748-1.595c-1.082-1.063-1.623-2.566-1.623-4.51v-17.49h-4.235V46.405z
			"/>
	</g>
	<g>
		<path fill="#231F20" d="M23.95,139.745h4.4l13.5-35.8h1.2l13.6,35.8h4.45v0.7H45.7v-0.7h5.55l-5.25-13.9H34.4l-5.25,13.9h5.55v0.7
			H23.95V139.745z M40.2,110.595l-5.5,14.55h11L40.2,110.595z"/>
		<path fill="#231F20" d="M84.95,139.895c-0.434,0.333-0.95,0.625-1.55,0.875s-1.333,0.375-2.2,0.375
			c-1.6,0-2.758-0.342-3.475-1.025c-0.717-0.683-1.208-1.641-1.475-2.875h-0.1c-0.134,0.3-0.317,0.675-0.55,1.125
			c-0.233,0.45-0.592,0.884-1.075,1.3c-0.484,0.417-1.125,0.767-1.925,1.05c-0.8,0.283-1.817,0.425-3.05,0.425
			c-1.4,0-2.517-0.159-3.35-0.475c-0.833-0.316-1.483-0.708-1.95-1.175c-0.467-0.466-0.775-0.991-0.925-1.575
			c-0.15-0.583-0.225-1.125-0.225-1.625c0-1.167,0.233-2.1,0.7-2.8c0.466-0.7,1.075-1.258,1.825-1.675
			c0.75-0.417,1.583-0.758,2.5-1.025c0.916-0.267,1.841-0.55,2.775-0.85c1.1-0.366,2.008-0.683,2.725-0.95
			c0.716-0.266,1.275-0.591,1.675-0.975c0.4-0.383,0.675-0.867,0.825-1.45c0.15-0.583,0.225-1.375,0.225-2.375
			c0-0.8-0.05-1.517-0.15-2.15c-0.1-0.633-0.284-1.175-0.55-1.625c-0.267-0.45-0.65-0.792-1.15-1.025c-0.5-0.233-1.167-0.35-2-0.35
			c-1.1,0-2.009,0.192-2.725,0.575c-0.717,0.384-1.075,1.009-1.075,1.875c0,0.567,0.05,1.125,0.15,1.675
			c0.1,0.55,0.15,0.958,0.15,1.225c0,0.467-0.167,0.858-0.5,1.175c-0.334,0.317-0.817,0.475-1.45,0.475c-1.1,0-1.784-0.2-2.05-0.6
			c-0.268-0.4-0.4-0.917-0.4-1.55c0-0.733,0.167-1.433,0.5-2.1c0.333-0.667,0.825-1.258,1.475-1.775
			c0.65-0.517,1.466-0.925,2.45-1.225c0.983-0.3,2.108-0.45,3.375-0.45c1.533,0,2.816,0.192,3.85,0.575
			c1.033,0.383,1.866,0.9,2.5,1.55c0.633,0.65,1.083,1.384,1.35,2.2c0.267,0.817,0.4,1.675,0.4,2.575v12.45
			c0,0.967,0.15,1.617,0.45,1.95c0.3,0.333,0.733,0.5,1.3,0.5c0.366,0,0.75-0.066,1.15-0.2c0.4-0.133,0.783-0.333,1.15-0.6
			L84.95,139.895z M76.2,128.195h-0.1c-0.067,0.434-0.617,0.867-1.65,1.3l-3.75,1.5c-1.067,0.434-1.883,1.042-2.45,1.825
			c-0.567,0.784-0.85,1.759-0.85,2.925c0,0.5,0.05,1.018,0.15,1.55c0.1,0.534,0.283,1.008,0.55,1.425
			c0.267,0.417,0.642,0.759,1.125,1.025c0.483,0.268,1.108,0.4,1.875,0.4c1.1,0,1.992-0.233,2.675-0.7
			c0.683-0.466,1.2-1.05,1.55-1.75s0.583-1.458,0.7-2.275c0.116-0.816,0.175-1.558,0.175-2.225V128.195z"/>
	</g>
	<g>
		<path fill="#231F20" d="M135.8,149.5c-2.9-0.034-5.208-0.15-6.925-0.35c-1.717-0.2-3.1-0.517-4.15-0.95
			c-1.05-0.434-1.917-1.018-2.6-1.75c-0.684-0.734-1.442-1.667-2.275-2.8c-0.734-0.967-1.517-1.758-2.35-2.375
			c-0.833-0.617-1.6-1.025-2.3-1.225c-1.9-0.5-3.634-1.333-5.2-2.5c-1.567-1.166-2.917-2.55-4.05-4.15
			c-1.134-1.6-2.009-3.366-2.625-5.3c-0.617-1.933-0.925-3.917-0.925-5.95c0-2.6,0.508-5.033,1.525-7.3
			c1.017-2.267,2.35-4.242,4-5.925c1.65-1.683,3.508-3.008,5.575-3.975c2.066-0.967,4.167-1.45,6.3-1.45
			c2.2,0,4.342,0.475,6.425,1.425c2.083,0.95,3.941,2.259,5.575,3.925c1.633,1.667,2.941,3.633,3.925,5.9
			c0.983,2.267,1.475,4.733,1.475,7.4c0,2.333-0.45,4.617-1.35,6.85c-0.9,2.233-2.134,4.217-3.7,5.95
			c-1.567,1.733-3.409,3.133-5.525,4.2c-2.117,1.066-4.392,1.6-6.825,1.6c-0.633,0-1.267-0.05-1.9-0.15l-0.05,0.15
			c0.5,0.267,0.975,0.517,1.425,0.75c0.45,0.233,0.941,0.441,1.475,0.625c0.533,0.183,1.125,0.341,1.775,0.475
			c0.65,0.133,1.425,0.25,2.325,0.35c0.966,0.1,1.875,0.45,2.725,1.05c0.85,0.6,1.607,1.283,2.275,2.05
			c0.433,0.5,0.825,0.925,1.175,1.275c0.35,0.35,0.733,0.633,1.15,0.85c0.417,0.217,0.908,0.375,1.475,0.475
			c0.566,0.1,1.283,0.15,2.15,0.15V149.5z M108.15,122.15c0,3,0.2,5.617,0.6,7.85c0.4,2.233,1.066,4.1,2,5.6
			c0.933,1.5,2.133,2.617,3.6,3.35c1.466,0.733,3.283,1.1,5.45,1.1c2.133,0,3.941-0.366,5.425-1.1
			c1.483-0.733,2.691-1.85,3.625-3.35c0.933-1.5,1.6-3.367,2-5.6c0.4-2.233,0.6-4.85,0.6-7.85c0-2.3-0.15-4.525-0.45-6.675
			s-0.875-4.066-1.725-5.75c-0.85-1.683-2.034-3.025-3.55-4.025c-1.517-1-3.492-1.5-5.925-1.5c-2.434,0-4.408,0.5-5.925,1.5
			c-1.517,1-2.7,2.342-3.55,4.025c-0.85,1.684-1.425,3.6-1.725,5.75C108.3,117.625,108.15,119.85,108.15,122.15z"/>
		<path fill="#231F20" d="M156.849,153.3h3.85v-17.45h-0.1c-0.1,0.333-0.284,0.775-0.55,1.325c-0.268,0.55-0.65,1.084-1.15,1.6
			c-0.5,0.517-1.142,0.967-1.925,1.35c-0.784,0.383-1.742,0.575-2.875,0.575c-1.467,0-2.858-0.317-4.175-0.95
			c-1.317-0.633-2.475-1.483-3.475-2.55c-1-1.066-1.792-2.292-2.375-3.675c-0.583-1.383-0.875-2.841-0.875-4.375
			c0-1.5,0.283-2.933,0.85-4.3c0.566-1.367,1.333-2.558,2.3-3.575c0.966-1.016,2.083-1.833,3.35-2.45
			c1.266-0.617,2.616-0.925,4.05-0.925c1.833,0,3.325,0.45,4.475,1.35s1.975,2.067,2.475,3.5h0.1v-4.2h8.05v0.7h-3.85v34.05h3.85
			v0.7h-12V153.3z M148.199,128.55c0,1.734,0.05,3.309,0.15,4.725c0.1,1.417,0.35,2.625,0.75,3.625s1,1.767,1.8,2.3
			c0.8,0.533,1.883,0.8,3.25,0.8c1.4,0,2.525-0.3,3.375-0.9c0.85-0.6,1.508-1.375,1.975-2.325c0.466-0.95,0.783-2.008,0.95-3.175
			c0.167-1.167,0.25-2.3,0.25-3.4c0-1.3-0.025-2.425-0.075-3.375c-0.05-0.95-0.142-1.792-0.275-2.525
			c-0.134-0.732-0.317-1.366-0.55-1.9c-0.234-0.533-0.518-1.033-0.85-1.5c-0.5-0.667-1.15-1.216-1.95-1.65
			c-0.8-0.433-1.817-0.65-3.05-0.65c-1.167,0-2.125,0.233-2.875,0.7c-0.75,0.467-1.333,1.134-1.75,2
			c-0.417,0.867-0.708,1.909-0.875,3.125C148.282,125.642,148.199,127.017,148.199,128.55z"/>
	</g>
	<g>
		<path fill="#231F20" d="M187.5,139.3h5.55v-34.2h-5.55v-0.7h9.5c0.4,0,0.8-0.008,1.2-0.025c0.399-0.017,0.8-0.042,1.199-0.075
			c0.4,0,0.801-0.008,1.2-0.025c0.4-0.016,0.8-0.025,1.2-0.025c1.967,0,3.7,0.108,5.2,0.325s2.899,0.842,4.2,1.875
			c1.166,0.9,1.991,1.917,2.475,3.05c0.482,1.134,0.725,2.2,0.725,3.2c0,0.5-0.092,1.142-0.274,1.925
			c-0.184,0.784-0.584,1.583-1.2,2.4c-0.617,0.817-1.509,1.567-2.675,2.25c-1.167,0.684-2.718,1.142-4.65,1.375v0.1
			c0.533,0.067,1.258,0.192,2.175,0.375c0.917,0.184,1.851,0.492,2.801,0.925c0.949,0.434,1.824,1.009,2.625,1.725
			c0.8,0.717,1.366,1.642,1.699,2.775c0.2,0.667,0.342,1.425,0.426,2.275c0.082,0.85,0.149,1.725,0.199,2.625
			c0.051,0.9,0.101,1.767,0.15,2.6c0.05,0.834,0.142,1.534,0.275,2.1c0.199,0.867,0.516,1.65,0.949,2.35s1.133,1.05,2.101,1.05
			c0.433,0,0.883-0.083,1.35-0.25c0.467-0.166,0.883-0.433,1.25-0.8l0.45,0.55c-0.167,0.134-0.358,0.275-0.575,0.425
			s-0.492,0.292-0.825,0.425s-0.742,0.242-1.225,0.325c-0.483,0.083-1.075,0.125-1.775,0.125c-1.333,0-2.441-0.167-3.324-0.5
			c-0.884-0.333-1.593-0.825-2.125-1.475c-0.534-0.65-0.926-1.45-1.176-2.4c-0.25-0.95-0.425-2.058-0.524-3.325l-0.351-4.55
			c-0.133-1.667-0.467-2.966-1-3.9c-0.533-0.933-1.158-1.617-1.875-2.05c-0.717-0.433-1.458-0.691-2.225-0.775
			c-0.768-0.083-1.434-0.125-2-0.125h-5v18.05h5.55v0.7h-16.1V139.3z M198.05,120.55h4.6c0.934,0,1.783-0.116,2.551-0.35
			c0.766-0.233,1.425-0.642,1.975-1.225c0.55-0.583,0.975-1.375,1.275-2.375c0.3-1,0.449-2.267,0.449-3.8
			c0-1.732-0.225-3.125-0.675-4.175s-1.033-1.841-1.75-2.375c-0.717-0.533-1.517-0.883-2.399-1.05
			c-0.884-0.167-1.759-0.25-2.625-0.25c-0.601,0-1.209,0.008-1.825,0.025c-0.617,0.017-1.142,0.059-1.575,0.125V120.55z"/>
		<path fill="#231F20" d="M223.449,139.3h3.85v-20.05h-3.85v-0.7h8.05v5.05h0.1c0.133-0.5,0.351-1.066,0.65-1.7
			c0.3-0.633,0.716-1.241,1.25-1.825c0.532-0.583,1.175-1.075,1.925-1.475s1.658-0.6,2.725-0.6c0.767,0,1.434,0.125,2,0.375
			s1.033,0.567,1.4,0.95c0.366,0.383,0.633,0.825,0.8,1.325s0.25,1,0.25,1.5c0,1.1-0.25,1.833-0.75,2.2
			c-0.5,0.367-1.083,0.55-1.75,0.55c-1.467,0-2.2-0.466-2.2-1.4c0-0.3,0.033-0.542,0.101-0.725c0.066-0.183,0.142-0.366,0.225-0.55
			c0.083-0.183,0.158-0.392,0.226-0.625c0.066-0.233,0.1-0.566,0.1-1c0-1.066-0.584-1.6-1.75-1.6c-0.533,0-1.1,0.2-1.7,0.6
			c-0.6,0.4-1.158,0.983-1.675,1.75c-0.518,0.767-0.95,1.692-1.3,2.775c-0.351,1.083-0.525,2.325-0.525,3.725v11.45h4.351v0.7h-12.5
			V139.3z"/>
	</g>
	<g>
		<path fill="#231F20" d="M23.549,198.3l25.1-35.7h1.15l0.9,35.7h5.4l-0.2,0.7h-15.4l0.2-0.7h5.45l-0.3-14h-11.5l-9.8,14h5.05
			l-0.2,0.7h-10.3l0.2-0.7H23.549z M45.549,168.4l-10.7,15.2h11l-0.2-15.2H45.549z"/>
		<path fill="#231F20" d="M76.923,195.2c-0.217,0.8-0.325,1.517-0.325,2.15c0,0.867,0.417,1.3,1.25,1.3
			c0.667,0,1.267-0.191,1.8-0.575c0.533-0.383,0.991-0.816,1.375-1.3c0.383-0.483,0.7-0.966,0.95-1.45
			c0.25-0.483,0.425-0.825,0.525-1.025l0.65,0.35c-0.167,0.367-0.417,0.833-0.75,1.4c-0.333,0.567-0.767,1.109-1.3,1.625
			c-0.533,0.518-1.15,0.967-1.85,1.35c-0.7,0.383-1.518,0.575-2.45,0.575c-2.2,0-3.3-1-3.3-3c0-0.233,0.05-0.642,0.15-1.225
			c0.1-0.583,0.233-1.108,0.4-1.575h-0.1c-0.467,0.567-1,1.192-1.6,1.875c-0.6,0.684-1.275,1.317-2.025,1.9
			c-0.75,0.583-1.575,1.067-2.475,1.45c-0.9,0.383-1.9,0.575-3,0.575c-0.7,0-1.375-0.125-2.025-0.375s-1.225-0.633-1.725-1.15
			c-0.5-0.517-0.892-1.175-1.175-1.975c-0.284-0.8-0.425-1.75-0.425-2.85c0-1.333,0.266-2.667,0.8-4
			c0.533-1.333,1.225-2.608,2.075-3.825c0.85-1.216,1.833-2.341,2.95-3.375c1.117-1.033,2.25-1.933,3.4-2.7
			c1.15-0.767,2.283-1.367,3.4-1.8c1.116-0.433,2.107-0.65,2.975-0.65c1,0,1.85,0.284,2.55,0.85c0.7,0.567,1.05,1.317,1.05,2.25h0.1
			l0.85-2.45h3.5l-5.45,15.15C77.398,193.567,77.139,194.4,76.923,195.2z M78.073,181.825c0.117-0.45,0.175-0.842,0.175-1.175
			c0-0.3-0.042-0.625-0.125-0.975c-0.084-0.35-0.234-0.675-0.45-0.975c-0.217-0.3-0.509-0.558-0.875-0.775
			c-0.367-0.216-0.85-0.325-1.45-0.325c-1.1,0-2.175,0.309-3.225,0.925c-1.05,0.617-2.034,1.425-2.95,2.425
			c-0.917,1-1.759,2.142-2.525,3.425c-0.767,1.284-1.425,2.583-1.975,3.9c-0.55,1.317-0.975,2.592-1.275,3.825
			c-0.3,1.233-0.45,2.317-0.45,3.25c0,1.067,0.208,1.934,0.625,2.6c0.417,0.667,1.108,1,2.075,1c0.966,0,1.95-0.3,2.95-0.9
			c1-0.6,1.917-1.316,2.75-2.15c0.833-0.833,1.55-1.667,2.15-2.5c0.6-0.833,0.982-1.483,1.15-1.95l2.65-7.35
			C77.698,183.034,77.956,182.275,78.073,181.825z"/>
	</g>
	<g>
		<path fill="#231F20" d="M124.25,208.825c-1.167-0.117-2.317-0.325-3.45-0.625c-1.133-0.3-2.2-0.725-3.2-1.275
			c-1-0.55-1.85-1.258-2.55-2.125l-2.05-2.4c-0.6-0.733-1.125-1.267-1.575-1.6c-0.45-0.333-1.008-0.667-1.675-1
			c-0.833-0.366-1.7-0.857-2.6-1.475c-0.9-0.617-1.733-1.458-2.5-2.525c-0.767-1.066-1.4-2.408-1.9-4.025
			c-0.5-1.616-0.75-3.591-0.75-5.925c0-1.9,0.3-3.783,0.9-5.65c0.6-1.867,1.408-3.642,2.425-5.325
			c1.016-1.683,2.225-3.233,3.625-4.65c1.4-1.417,2.891-2.642,4.475-3.675c1.583-1.033,3.225-1.841,4.925-2.425
			c1.7-0.583,3.383-0.875,5.05-0.875c2.167,0,3.992,0.442,5.475,1.325c1.483,0.883,2.683,2.025,3.6,3.425
			c0.917,1.4,1.575,2.958,1.975,4.675c0.4,1.717,0.6,3.409,0.6,5.075c0,1.8-0.275,3.608-0.825,5.425c-0.55,1.817-1.317,3.55-2.3,5.2
			c-0.983,1.65-2.158,3.192-3.525,4.625c-1.367,1.434-2.85,2.684-4.45,3.75c-1.6,1.067-3.292,1.9-5.075,2.5
			c-1.784,0.6-3.608,0.9-5.475,0.9c-0.367,0-0.692-0.008-0.975-0.025c-0.283-0.017-0.559-0.042-0.825-0.075l-0.1,0.1
			c0.566,0.466,1.066,0.825,1.5,1.075c0.433,0.25,0.833,0.45,1.2,0.6c0.366,0.15,0.725,0.258,1.075,0.325
			c0.35,0.066,0.742,0.117,1.175,0.15c1.033,0.1,1.908,0.225,2.625,0.375c0.716,0.15,1.35,0.367,1.9,0.65
			c0.55,0.283,1.066,0.65,1.55,1.1c0.483,0.45,1.025,1.008,1.625,1.675c0.833,0.966,1.65,1.575,2.45,1.825
			c0.8,0.25,1.583,0.375,2.35,0.375h0.6v0.7h-2C126.517,209,125.417,208.941,124.25,208.825z M106.15,194.6
			c0.233,0.967,0.65,1.809,1.25,2.525c0.6,0.717,1.408,1.292,2.425,1.725c1.016,0.434,2.308,0.65,3.875,0.65
			c1.966,0,3.758-0.5,5.375-1.5c1.616-1,3.066-2.3,4.35-3.9s2.408-3.4,3.375-5.4s1.758-4.017,2.375-6.05
			c0.617-2.033,1.083-3.975,1.4-5.825c0.316-1.85,0.475-3.408,0.475-4.675c0-2.6-0.617-4.616-1.85-6.05
			c-1.234-1.433-3.2-2.15-5.9-2.15c-1.867,0-3.592,0.483-5.175,1.45c-1.583,0.967-3.025,2.234-4.325,3.8
			c-1.3,1.567-2.45,3.342-3.45,5.325c-1,1.984-1.833,4-2.5,6.05c-0.667,2.05-1.175,4.042-1.525,5.975
			c-0.35,1.934-0.525,3.617-0.525,5.05C105.8,192.634,105.917,193.634,106.15,194.6z"/>
		<path fill="#231F20" d="M152.25,194.7c-0.333,0.434-0.775,0.958-1.325,1.575c-0.55,0.617-1.192,1.208-1.925,1.775
			c-0.734,0.567-1.542,1.05-2.425,1.45c-0.883,0.4-1.825,0.6-2.825,0.6c-0.7,0-1.4-0.117-2.1-0.35
			c-0.7-0.233-1.325-0.591-1.875-1.075c-0.55-0.482-1-1.091-1.35-1.825c-0.35-0.733-0.525-1.583-0.525-2.55
			c0-1.366,0.258-2.732,0.775-4.1c0.517-1.367,1.2-2.675,2.05-3.925c0.85-1.25,1.833-2.417,2.95-3.5
			c1.117-1.083,2.258-2.025,3.425-2.825c1.166-0.8,2.316-1.425,3.45-1.875c1.133-0.45,2.167-0.675,3.1-0.675
			c0.667,0,1.225,0.117,1.675,0.35c0.45,0.233,0.808,0.525,1.075,0.875c0.267,0.35,0.466,0.725,0.6,1.125
			c0.133,0.4,0.216,0.784,0.25,1.15h0.1l0.95-2.85h3.5l-12.45,34.7h4.05l-0.2,0.7h-11.95l0.2-0.7h4.4l6.5-17.95L152.25,194.7z
			 M156.475,182.6c0.05-0.367,0.075-0.683,0.075-0.95c0-1.1-0.258-1.966-0.775-2.6c-0.517-0.633-1.225-0.95-2.125-0.95
			c-1,0-2,0.325-3,0.975c-1,0.65-1.958,1.508-2.875,2.575c-0.917,1.067-1.759,2.259-2.525,3.575c-0.767,1.317-1.442,2.65-2.025,4
			c-0.584,1.35-1.034,2.633-1.35,3.85c-0.317,1.217-0.475,2.242-0.475,3.075c0,0.867,0.216,1.634,0.65,2.3
			c0.433,0.667,1.133,1,2.1,1c0.933,0,1.9-0.316,2.9-0.95c1-0.633,1.933-1.375,2.8-2.225c0.866-0.85,1.616-1.716,2.25-2.6
			c0.633-0.883,1.05-1.591,1.25-2.125l2.8-7.8C156.316,183.35,156.425,182.967,156.475,182.6z"/>
	</g>
	<g>
		<path fill="#231F20" d="M193.45,164.6l0.3-0.7h12.15c1.166,0,2.375,0.134,3.625,0.4c1.25,0.268,2.383,0.709,3.399,1.325
			c1.017,0.617,1.858,1.417,2.525,2.4c0.666,0.984,1,2.192,1,3.625c0,1.2-0.259,2.25-0.775,3.15c-0.517,0.9-1.175,1.659-1.975,2.275
			c-0.8,0.617-1.684,1.125-2.65,1.525s-1.899,0.725-2.8,0.975s-1.717,0.425-2.45,0.525s-1.25,0.167-1.55,0.2l-0.1,0.15
			c0.532,0.067,1.216,0.2,2.05,0.4c0.833,0.2,1.642,0.534,2.425,1c0.783,0.467,1.458,1.083,2.025,1.85
			c0.566,0.767,0.85,1.75,0.85,2.95c0,0.833-0.067,1.642-0.2,2.425c-0.134,0.783-0.274,1.55-0.425,2.3s-0.292,1.509-0.425,2.275
			c-0.134,0.767-0.2,1.567-0.2,2.4c0,0.934,0.25,1.675,0.75,2.225c0.5,0.55,1.133,0.825,1.9,0.825c0.266,0,0.541-0.025,0.824-0.075
			c0.283-0.05,0.492-0.108,0.625-0.175l0.2,0.65c-0.167,0.033-0.492,0.083-0.975,0.15c-0.483,0.066-0.976,0.1-1.476,0.1
			c-0.899,0-1.725-0.092-2.475-0.275c-0.75-0.183-1.408-0.483-1.975-0.9c-0.567-0.417-1.009-0.967-1.325-1.65
			c-0.317-0.683-0.476-1.525-0.476-2.525c0-0.5,0.059-1.15,0.176-1.95c0.116-0.8,0.258-1.65,0.425-2.55
			c0.133-0.866,0.258-1.733,0.375-2.6c0.116-0.866,0.175-1.616,0.175-2.25c0-0.6-0.092-1.175-0.275-1.725
			c-0.184-0.55-0.524-1.025-1.024-1.425s-1.2-0.716-2.101-0.95c-0.899-0.233-2.066-0.35-3.5-0.35h-2.05l-6.55,18.2h5.75l-0.25,0.7
			h-15.35l0.25-0.7h5.1l12.2-34.2H193.45z M201.6,179.9c1.333,0,2.517-0.116,3.551-0.35c1.032-0.232,1.832-0.533,2.399-0.9
			c0.467-0.3,0.95-0.683,1.45-1.15c0.5-0.466,0.95-1.042,1.35-1.725c0.4-0.683,0.733-1.483,1-2.4c0.267-0.917,0.4-1.991,0.4-3.225
			c0-1.866-0.567-3.258-1.7-4.175c-1.134-0.917-2.533-1.375-4.2-1.375h-2.1l-5.5,15.3H201.6z"/>
		<path fill="#231F20" d="M224.9,181.45c0.266-0.9,0.532-1.8,0.799-2.7h-4.35l0.2-0.7h7.7c-0.168,0.7-0.408,1.584-0.725,2.65
			c-0.318,1.067-0.659,2.1-1.025,3.1l0.1,0.1c0.333-0.5,0.75-1.1,1.25-1.8c0.5-0.7,1.066-1.375,1.7-2.025
			c0.633-0.65,1.333-1.2,2.101-1.65c0.766-0.45,1.582-0.675,2.449-0.675c1.232,0,2.176,0.35,2.825,1.05
			c0.649,0.7,0.958,1.45,0.925,2.25c0,0.534-0.092,0.975-0.275,1.325s-0.416,0.617-0.699,0.8c-0.283,0.184-0.575,0.309-0.875,0.375
			c-0.301,0.067-0.584,0.1-0.85,0.1c-0.468,0-0.851-0.116-1.15-0.35c-0.301-0.232-0.45-0.583-0.45-1.05
			c0-0.366,0.075-0.642,0.226-0.825c0.149-0.183,0.307-0.357,0.475-0.525c0.166-0.167,0.324-0.35,0.475-0.55
			c0.15-0.2,0.225-0.466,0.225-0.8c0-0.333-0.133-0.6-0.399-0.8s-0.601-0.3-1-0.3c-0.634,0-1.367,0.325-2.2,0.975
			c-0.834,0.65-1.658,1.484-2.475,2.5c-0.817,1.018-1.592,2.175-2.325,3.475c-0.733,1.3-1.333,2.6-1.8,3.9l-3.6,10.2h-3.5
			l5.399-15.4C224.35,183.233,224.633,182.35,224.9,181.45z"/>
	</g>
	<g>
		<path fill="#49597F" d="M113.259,246.111l8.477,24.402h0.098l8.624-24.402h12.25v0.687H138.2v33.517h4.508V281h-16.072v-0.686
			h4.459v-33.517h-0.098L118.943,281h-0.784l-12.103-34.202h-0.098v33.517h4.508V281h-9.8v-0.686h4.508v-33.517h-4.508v-0.687
			H113.259z"/>
		<path fill="#49597F" d="M150.916,256.107c1.127-2.254,2.572-4.181,4.336-5.781c1.764-1.6,3.74-2.834,5.929-3.699
			c2.188-0.865,4.328-1.299,6.419-1.299c2.254,0,4.483,0.425,6.688,1.273c2.205,0.85,4.165,2.059,5.88,3.627
			c1.715,1.567,3.103,3.471,4.165,5.708c1.061,2.237,1.592,4.761,1.592,7.57c0,2.45-0.498,4.778-1.494,6.982
			c-0.997,2.205-2.336,4.141-4.018,5.807c-1.683,1.666-3.626,2.981-5.831,3.944s-4.533,1.445-6.982,1.445
			c-2.418,0-4.737-0.465-6.958-1.396c-2.222-0.931-4.173-2.205-5.855-3.822c-1.683-1.616-3.03-3.52-4.042-5.708
			c-1.013-2.188-1.519-4.557-1.519-7.104C149.225,260.878,149.789,258.361,150.916,256.107z M157.8,272.106
			c0.392,2.237,1.005,4.019,1.838,5.341c0.833,1.323,1.911,2.246,3.234,2.769c1.323,0.522,2.898,0.784,4.729,0.784
			c2.417,0,4.312-0.449,5.684-1.348c1.372-0.898,2.401-2.139,3.087-3.724s1.119-3.462,1.298-5.636c0.179-2.172,0.27-4.531,0.27-7.08
			c0-2.286-0.073-4.467-0.221-6.541c-0.147-2.074-0.563-3.903-1.25-5.488c-0.686-1.584-1.723-2.842-3.111-3.773
			c-1.389-0.931-3.308-1.396-5.757-1.396c-2.287,0-4.116,0.434-5.488,1.299c-1.372,0.865-2.417,2.082-3.136,3.65
			c-0.719,1.568-1.193,3.43-1.421,5.586c-0.229,2.156-0.343,4.525-0.343,7.105C157.212,267.052,157.408,269.869,157.8,272.106z"/>
		<path fill="#49597F" d="M209.151,246.111v0.687h-4.508v33.517h8.085c1.078,0,2.164-0.18,3.258-0.539
			c1.095-0.359,2.123-0.956,3.088-1.789c0.963-0.833,1.828-1.91,2.597-3.234c0.767-1.322,1.364-2.932,1.788-4.826h0.637V281H193.03
			v-0.686h4.508v-33.517h-4.508v-0.687H209.151z"/>
		<path fill="#49597F" d="M246.979,246.111v0.687h-4.508v33.517h4.508V281h-16.121v-0.686h4.508v-33.517h-4.508v-0.687H246.979z"/>
		<path fill="#49597F" d="M282.798,246.111v8.38h-0.638c-0.164-0.556-0.44-1.266-0.832-2.132c-0.393-0.865-0.939-1.707-1.643-2.523
			c-0.702-0.816-1.609-1.526-2.719-2.131c-1.111-0.604-2.467-0.907-4.067-0.907h-7.791v15.142h2.744
			c1.208,0,2.229-0.172,3.062-0.516c0.833-0.342,1.526-0.832,2.083-1.469c0.555-0.638,1.012-1.404,1.371-2.304
			c0.359-0.897,0.653-1.902,0.883-3.013h0.637v15.238h-0.637c-0.229-0.947-0.498-1.861-0.809-2.744
			c-0.311-0.882-0.728-1.657-1.25-2.327c-0.522-0.669-1.168-1.2-1.936-1.593s-1.723-0.588-2.866-0.588h-3.283v17.689h8.036
			c1.502,0,2.858-0.253,4.066-0.76c1.209-0.506,2.279-1.217,3.21-2.132c0.931-0.914,1.707-1.984,2.327-3.21
			c0.621-1.225,1.095-2.539,1.422-3.943h0.637V281h-31.311v-0.686h4.508v-33.517h-4.508v-0.687H282.798z M271.233,243.662
			l-6.909-7.35c-0.195-0.229-0.318-0.474-0.367-0.735c-0.049-0.261-0.073-0.457-0.073-0.589c0-0.489,0.204-0.857,0.612-1.102
			c0.408-0.245,0.742-0.368,1.004-0.368c0.654,0,1.119,0.164,1.396,0.49c0.277,0.327,0.498,0.67,0.662,1.029l4.312,8.624H271.233z"
			/>
		<path fill="#49597F" d="M291.567,246.798v-0.687h7.399c1.371,0,2.727-0.023,4.066-0.072c1.34-0.05,2.695-0.074,4.067-0.074
			c1.274,0,2.622,0.131,4.042,0.393c1.422,0.262,2.72,0.71,3.896,1.348c1.176,0.637,2.146,1.494,2.915,2.572
			c0.767,1.078,1.151,2.434,1.151,4.066c0,1.307-0.294,2.426-0.882,3.357c-0.588,0.93-1.348,1.689-2.278,2.277
			c-0.932,0.588-1.969,1.038-3.111,1.348c-1.145,0.311-2.271,0.515-3.381,0.613v0.244c1.6,0.295,3.029,0.588,4.287,0.883
			c1.257,0.293,2.344,0.734,3.258,1.322s1.643,1.405,2.182,2.45c0.539,1.046,0.873,2.45,1.004,4.214
			c0.163,2.059,0.294,3.708,0.393,4.949c0.098,1.242,0.236,2.205,0.416,2.891c0.18,0.687,0.424,1.145,0.734,1.373
			s0.76,0.342,1.348,0.342c0.653,0,1.192-0.188,1.617-0.562c0.424-0.375,0.801-0.727,1.127-1.054l0.49,0.44
			c-0.327,0.327-0.646,0.63-0.955,0.906c-0.312,0.278-0.67,0.516-1.078,0.711c-0.409,0.196-0.906,0.351-1.494,0.466
			c-0.589,0.114-1.324,0.171-2.205,0.171c-1.797,0-3.203-0.286-4.215-0.857c-1.013-0.57-1.764-1.281-2.254-2.131
			s-0.793-1.771-0.906-2.769c-0.115-0.996-0.188-1.936-0.221-2.817c-0.066-1.34-0.155-2.638-0.27-3.896
			c-0.115-1.256-0.385-2.376-0.809-3.355c-0.425-0.98-1.062-1.764-1.91-2.353c-0.851-0.588-2.043-0.882-3.578-0.882h-3.233v17.689
			h4.508V281h-16.121v-0.686h4.509v-33.517H291.567z M305.189,261.939c1.471,0,2.629-0.196,3.479-0.588
			c0.85-0.393,1.486-0.924,1.912-1.594c0.424-0.668,0.693-1.428,0.809-2.277c0.113-0.85,0.171-1.715,0.171-2.598
			c0-1.438-0.099-2.67-0.294-3.699c-0.196-1.029-0.523-1.878-0.98-2.548c-0.457-0.669-1.086-1.168-1.887-1.495
			c-0.801-0.326-1.82-0.49-3.062-0.49c-0.359,0-0.719,0.018-1.078,0.05s-0.719,0.065-1.077,0.098v15.142H305.189z"/>
		<path fill="#49597F" d="M359.139,246.111v8.38H358.5c-0.162-0.556-0.439-1.266-0.832-2.132c-0.393-0.865-0.939-1.707-1.642-2.523
			s-1.609-1.526-2.72-2.131c-1.111-0.604-2.467-0.907-4.066-0.907h-7.791v15.142h2.744c1.207,0,2.229-0.172,3.062-0.516
			c0.832-0.342,1.526-0.832,2.082-1.469c0.555-0.638,1.012-1.404,1.372-2.304c0.358-0.897,0.653-1.902,0.882-3.013h0.637v15.238
			h-0.637c-0.229-0.947-0.498-1.861-0.809-2.744c-0.311-0.882-0.727-1.657-1.249-2.327c-0.522-0.669-1.169-1.2-1.936-1.593
			c-0.769-0.393-1.724-0.588-2.866-0.588h-3.283v17.689h8.035c1.503,0,2.859-0.253,4.067-0.76c1.208-0.506,2.278-1.217,3.21-2.132
			c0.932-0.914,1.707-1.984,2.328-3.21c0.619-1.225,1.094-2.539,1.42-3.943h0.637V281h-31.311v-0.686h4.508v-33.517h-4.508v-0.687
			H359.139z"/>
	</g>
	<g>
		<path fill="#FFFFFF" d="M382.717,200.641c-2.198,1.691-4.816,3.168-7.857,4.436c-3.042,1.268-6.761,1.901-11.153,1.901
			c-8.111,0-13.984-1.735-17.616-5.196c-3.636-3.461-6.127-8.321-7.478-14.575h-0.507c-0.678,1.521-1.608,3.422-2.789,5.703
			c-1.184,2.281-3.002,4.479-5.449,6.59c-2.451,2.115-5.703,3.889-9.759,5.323s-9.212,2.155-15.462,2.155
			c-7.098,0-12.761-0.804-16.982-2.408c-4.227-1.604-7.521-3.588-9.886-5.957c-2.369-2.365-3.929-5.026-4.689-7.984
			c-0.761-2.955-1.141-5.704-1.141-8.238c0-5.913,1.18-10.646,3.549-14.194c2.364-3.549,5.449-6.376,9.252-8.492
			c3.802-2.111,8.023-3.842,12.674-5.196c4.646-1.35,9.335-2.788,14.067-4.309c5.576-1.857,10.179-3.461,13.814-4.816
			c3.632-1.351,6.464-2.998,8.491-4.943c2.028-1.94,3.422-4.392,4.183-7.351c0.761-2.955,1.141-6.971,1.141-12.04
			c0-4.056-0.254-7.688-0.761-10.899c-0.507-3.208-1.438-5.957-2.788-8.238c-1.354-2.281-3.295-4.012-5.83-5.196
			c-2.534-1.18-5.917-1.774-10.139-1.774c-5.576,0-10.183,0.974-13.814,2.915c-3.636,1.944-5.45,5.113-5.45,9.505
			c0,2.875,0.254,5.703,0.761,8.491s0.761,4.86,0.761,6.21c0,2.368-0.848,4.353-2.535,5.957c-1.691,1.608-4.143,2.408-7.351,2.408
			c-5.576,0-9.042-1.014-10.393-3.042c-1.354-2.028-2.027-4.646-2.027-7.858c0-3.715,0.843-7.264,2.534-10.646
			c1.688-3.378,4.183-6.376,7.478-8.998c3.295-2.618,7.435-4.689,12.421-6.21c4.982-1.521,10.686-2.281,17.109-2.281
			c7.771,0,14.277,0.975,19.518,2.915c5.235,1.945,9.462,4.562,12.674,7.858c3.208,3.295,5.489,7.014,6.844,11.153
			c1.351,4.143,2.027,8.491,2.027,13.054v63.116c0,4.903,0.761,8.198,2.281,9.885c1.521,1.691,3.715,2.535,6.591,2.535
			c1.857,0,3.802-0.336,5.83-1.014c2.027-0.673,3.968-1.688,5.829-3.042L382.717,200.641z M338.358,141.327h-0.507
			c-0.341,2.198-3.129,4.396-8.364,6.59l-19.011,7.604c-5.41,2.198-9.549,5.283-12.421,9.252c-2.875,3.972-4.309,8.915-4.309,14.828
			c0,2.535,0.253,5.157,0.761,7.858c0.507,2.705,1.434,5.113,2.788,7.224c1.351,2.115,3.251,3.846,5.703,5.196
			c2.447,1.354,5.616,2.028,9.505,2.028c5.577,0,10.096-1.18,13.562-3.548c3.461-2.365,6.083-5.323,7.857-8.872
			c1.774-3.549,2.954-7.391,3.549-11.533c0.59-4.139,0.887-7.897,0.887-11.28V141.327z"/>
	</g>
	<g>
		<path fill="#231F20" d="M45.46,361.492c-0.39,0.301-0.855,0.562-1.395,0.788c-0.54,0.225-1.201,0.337-1.98,0.337
			c-1.44,0-2.482-0.308-3.127-0.923c-0.646-0.614-1.087-1.477-1.327-2.587h-0.09c-0.12,0.27-0.285,0.607-0.495,1.013
			c-0.21,0.404-0.533,0.795-0.968,1.17c-0.435,0.375-1.012,0.69-1.732,0.944c-0.72,0.255-1.635,0.383-2.745,0.383
			c-1.26,0-2.265-0.143-3.015-0.428c-0.75-0.284-1.335-0.637-1.755-1.058c-0.42-0.419-0.697-0.892-0.833-1.417
			c-0.135-0.524-0.202-1.013-0.202-1.463c0-1.05,0.209-1.89,0.63-2.52c0.419-0.63,0.967-1.132,1.643-1.508
			c0.675-0.375,1.424-0.682,2.25-0.922c0.825-0.24,1.657-0.495,2.498-0.766c0.99-0.329,1.807-0.614,2.452-0.854
			c0.645-0.24,1.147-0.532,1.508-0.878c0.36-0.345,0.607-0.779,0.742-1.305c0.135-0.524,0.203-1.237,0.203-2.138
			c0-0.72-0.045-1.365-0.135-1.935c-0.09-0.57-0.255-1.058-0.495-1.463c-0.241-0.405-0.585-0.712-1.035-0.923
			c-0.45-0.209-1.05-0.314-1.8-0.314c-0.99,0-1.808,0.173-2.453,0.518c-0.646,0.345-0.968,0.907-0.968,1.688
			c0,0.51,0.045,1.012,0.135,1.507s0.135,0.863,0.135,1.103c0,0.421-0.15,0.773-0.45,1.058c-0.3,0.286-0.735,0.428-1.305,0.428
			c-0.99,0-1.605-0.18-1.845-0.54c-0.241-0.36-0.36-0.825-0.36-1.395c0-0.66,0.15-1.29,0.45-1.891
			c0.299-0.6,0.743-1.132,1.328-1.598c0.585-0.465,1.32-0.832,2.205-1.103c0.884-0.27,1.897-0.404,3.037-0.404
			c1.38,0,2.535,0.173,3.465,0.518c0.929,0.345,1.68,0.81,2.25,1.395c0.569,0.585,0.974,1.245,1.215,1.98
			c0.24,0.735,0.36,1.507,0.36,2.317v11.205c0,0.87,0.135,1.455,0.405,1.755s0.659,0.45,1.17,0.45c0.33,0,0.675-0.061,1.035-0.181
			c0.36-0.119,0.704-0.3,1.035-0.54L45.46,361.492z M37.585,350.962h-0.09c-0.061,0.391-0.555,0.781-1.485,1.17l-3.375,1.351
			c-0.96,0.39-1.695,0.938-2.205,1.643c-0.51,0.705-0.765,1.583-0.765,2.632c0,0.45,0.045,0.916,0.135,1.396
			c0.09,0.48,0.254,0.907,0.495,1.282c0.24,0.376,0.577,0.683,1.012,0.923c0.435,0.24,0.997,0.36,1.688,0.36
			c0.99,0,1.792-0.21,2.408-0.631c0.614-0.419,1.08-0.944,1.395-1.574c0.315-0.631,0.524-1.312,0.63-2.048
			c0.104-0.734,0.157-1.402,0.157-2.003V350.962z"/>
		<path fill="#231F20" d="M50.319,361.357h3.465v-31.186h-3.465v-0.63h7.335v16.74h0.09c0.42-1.17,1.14-2.16,2.16-2.97
			c1.02-0.811,2.354-1.215,4.005-1.215c1.29,0,2.504,0.277,3.645,0.832c1.14,0.556,2.145,1.29,3.015,2.205s1.56,1.987,2.07,3.218
			c0.51,1.23,0.765,2.52,0.765,3.87c0,1.38-0.263,2.692-0.788,3.938c-0.525,1.245-1.238,2.348-2.138,3.308s-1.943,1.725-3.127,2.295
			c-1.186,0.569-2.438,0.854-3.757,0.854c-1.021,0-1.883-0.173-2.588-0.518c-0.705-0.345-1.29-0.757-1.755-1.237
			c-0.465-0.479-0.817-0.975-1.058-1.485c-0.24-0.51-0.42-0.944-0.54-1.305h-0.09v3.915h-7.245V361.357z M68.905,351.683
			c0-1.38-0.076-2.617-0.225-3.713c-0.15-1.095-0.413-2.032-0.788-2.812c-0.375-0.779-0.9-1.38-1.575-1.8
			c-0.675-0.42-1.538-0.63-2.587-0.63c-1.11,0-2.025,0.195-2.745,0.585c-0.72,0.39-1.305,0.885-1.755,1.484
			c-0.331,0.421-0.593,0.871-0.788,1.351c-0.195,0.48-0.353,1.051-0.472,1.71c-0.121,0.66-0.203,1.417-0.248,2.272
			c-0.045,0.854-0.067,1.867-0.067,3.037c0,0.99,0.074,2.011,0.225,3.061c0.15,1.05,0.435,2.002,0.855,2.857
			c0.42,0.854,1.013,1.553,1.778,2.093c0.765,0.54,1.777,0.81,3.038,0.81c1.229,0,2.205-0.24,2.925-0.72
			c0.72-0.479,1.26-1.17,1.62-2.07c0.36-0.9,0.585-1.987,0.675-3.263C68.859,354.66,68.905,353.242,68.905,351.683z"/>
		<path fill="#231F20" d="M99.279,357.037c-0.09,0.331-0.263,0.803-0.517,1.418c-0.255,0.615-0.661,1.23-1.215,1.845
			c-0.555,0.615-1.305,1.155-2.25,1.62c-0.945,0.465-2.167,0.697-3.667,0.697c-1.141,0-2.325-0.18-3.555-0.54
			c-1.23-0.359-2.355-0.938-3.375-1.732c-1.021-0.795-1.853-1.837-2.498-3.127c-0.646-1.29-0.968-2.881-0.968-4.771
			c0-1.47,0.277-2.835,0.833-4.095c0.555-1.26,1.305-2.355,2.25-3.285c0.945-0.93,2.055-1.657,3.33-2.183
			c1.275-0.524,2.632-0.787,4.072-0.787c0.81,0,1.643,0.098,2.498,0.292c0.855,0.195,1.635,0.495,2.34,0.9
			c0.705,0.404,1.29,0.93,1.755,1.575c0.465,0.646,0.697,1.433,0.697,2.362c0,0.63-0.202,1.147-0.607,1.553
			c-0.405,0.404-0.983,0.607-1.732,0.607c-0.51,0-0.998-0.113-1.462-0.338c-0.465-0.225-0.698-0.607-0.698-1.147
			c0-0.42,0.105-0.93,0.315-1.53c0.209-0.6,0.315-1.095,0.315-1.484c0-0.69-0.345-1.223-1.035-1.598
			c-0.69-0.375-1.485-0.562-2.385-0.562c-0.66,0-1.343,0.083-2.047,0.247c-0.705,0.165-1.35,0.578-1.935,1.237
			c-0.585,0.66-1.065,1.65-1.44,2.971c-0.375,1.32-0.562,3.12-0.562,5.399c0,1.29,0.083,2.506,0.248,3.646
			c0.165,1.141,0.465,2.138,0.9,2.992c0.435,0.855,1.035,1.53,1.8,2.025c0.765,0.495,1.762,0.742,2.992,0.742
			c1.32,0,2.408-0.194,3.263-0.585c0.855-0.39,1.53-0.862,2.025-1.418c0.495-0.555,0.862-1.117,1.103-1.688
			c0.24-0.569,0.42-1.034,0.54-1.395L99.279,357.037z"/>
		<path fill="#231F20" d="M118.943,329.542h7.335v31.815h3.465v0.63h-7.245v-3.915h-0.09c-0.12,0.36-0.3,0.795-0.54,1.305
			c-0.24,0.511-0.593,1.006-1.057,1.485c-0.466,0.48-1.051,0.893-1.755,1.237c-0.705,0.345-1.568,0.518-2.587,0.518
			c-1.32,0-2.573-0.285-3.757-0.854c-1.186-0.57-2.228-1.335-3.127-2.295s-1.613-2.062-2.138-3.308
			c-0.525-1.245-0.788-2.558-0.788-3.938c0-1.351,0.255-2.64,0.765-3.87c0.51-1.23,1.2-2.303,2.07-3.218s1.875-1.649,3.015-2.205
			c1.14-0.555,2.355-0.832,3.645-0.832c1.649,0,2.985,0.404,4.005,1.215c1.02,0.81,1.74,1.8,2.16,2.97h0.09v-16.11h-3.465V329.542z
			 M111.158,351.683c0,1.56,0.045,2.978,0.135,4.252c0.09,1.275,0.315,2.362,0.675,3.263s0.9,1.591,1.62,2.07s1.694,0.72,2.925,0.72
			c1.26,0,2.272-0.27,3.038-0.81s1.357-1.238,1.777-2.093c0.42-0.855,0.705-1.808,0.855-2.857c0.149-1.05,0.225-2.07,0.225-3.061
			c0-1.17-0.022-2.183-0.067-3.037c-0.045-0.855-0.128-1.612-0.248-2.272c-0.12-0.659-0.285-1.229-0.495-1.71
			c-0.21-0.479-0.465-0.93-0.765-1.351c-0.45-0.6-1.035-1.095-1.755-1.484c-0.72-0.39-1.635-0.585-2.745-0.585
			c-1.051,0-1.913,0.21-2.587,0.63c-0.675,0.42-1.201,1.021-1.575,1.8c-0.375,0.78-0.638,1.718-0.788,2.812
			C111.233,349.065,111.158,350.303,111.158,351.683z"/>
		<path fill="#231F20" d="M141.038,350.827c0,0.301-0.007,0.607-0.022,0.923c-0.015,0.314-0.022,0.713-0.022,1.192
			c0,0.99,0.06,2.025,0.18,3.104c0.12,1.08,0.382,2.056,0.788,2.926c0.405,0.87,1.004,1.59,1.8,2.159
			c0.794,0.57,1.852,0.855,3.172,0.855c1.32,0,2.408-0.194,3.263-0.585c0.855-0.39,1.53-0.862,2.025-1.418
			c0.495-0.555,0.862-1.117,1.103-1.688c0.24-0.569,0.42-1.034,0.54-1.395l0.675,0.135c-0.09,0.331-0.263,0.803-0.517,1.418
			c-0.255,0.615-0.661,1.23-1.215,1.845c-0.555,0.615-1.305,1.155-2.25,1.62c-0.945,0.465-2.167,0.697-3.667,0.697
			c-1.5,0-2.888-0.24-4.163-0.72c-1.275-0.479-2.378-1.17-3.307-2.07c-0.931-0.899-1.65-1.972-2.16-3.218
			c-0.511-1.244-0.765-2.632-0.765-4.162c0-1.319,0.262-2.603,0.788-3.848c0.524-1.244,1.245-2.347,2.16-3.308
			c0.915-0.959,1.987-1.732,3.217-2.317c1.23-0.585,2.55-0.877,3.96-0.877c0.84,0,1.74,0.15,2.7,0.449
			c0.959,0.301,1.852,0.788,2.677,1.463c0.825,0.675,1.515,1.568,2.07,2.678c0.555,1.11,0.833,2.49,0.833,4.14H141.038z
			 M150.308,350.197c0.06-0.42,0.09-0.81,0.09-1.17s0-0.734,0-1.125c0-1.02-0.098-1.859-0.292-2.521
			c-0.196-0.659-0.466-1.185-0.81-1.574c-0.345-0.39-0.765-0.668-1.26-0.833c-0.495-0.164-1.028-0.247-1.597-0.247
			c-1.021,0-1.861,0.202-2.52,0.607c-0.661,0.405-1.186,0.952-1.575,1.643c-0.39,0.69-0.683,1.484-0.877,2.385
			c-0.195,0.9-0.323,1.845-0.382,2.835H150.308z"/>
		<path fill="#231F20" d="M161.693,361.357h3.465v-18.045h-3.465v-0.63h3.465v-2.386c0-1.05,0.052-1.957,0.157-2.722
			c0.105-0.766,0.248-1.44,0.428-2.025s0.39-1.095,0.63-1.53c0.24-0.435,0.51-0.832,0.81-1.192c0.78-0.99,1.755-1.852,2.925-2.587
			c1.17-0.735,2.415-1.103,3.735-1.103c0.99,0,1.837,0.143,2.542,0.427c0.705,0.286,1.282,0.638,1.732,1.058
			c0.45,0.421,0.78,0.878,0.99,1.373s0.315,0.938,0.315,1.327c0,0.57-0.166,1.096-0.495,1.575c-0.331,0.48-0.885,0.72-1.665,0.72
			c-0.39,0-0.833-0.09-1.328-0.27c-0.495-0.181-0.743-0.57-0.743-1.17c0-0.51,0.142-0.968,0.428-1.373
			c0.285-0.405,0.428-0.862,0.428-1.372c0-0.66-0.27-1.103-0.81-1.328c-0.54-0.225-1.096-0.337-1.665-0.337
			c-1.23,0-2.295,0.54-3.195,1.62c-0.9,1.08-1.35,2.76-1.35,5.04v6.255h5.58v0.63h-5.58v18.045h4.095v0.63h-11.43V361.357z"/>
		<path fill="#231F20" d="M180.863,359.062c0-0.811,0.15-1.508,0.45-2.093c0.299-0.585,0.667-1.095,1.103-1.53
			c0.434-0.435,0.9-0.787,1.395-1.058c0.495-0.27,0.937-0.494,1.327-0.675c-1.74-1.199-2.61-2.819-2.61-4.859
			c0-1.05,0.254-1.995,0.765-2.835c0.51-0.84,1.154-1.553,1.935-2.138c0.78-0.585,1.642-1.027,2.587-1.328
			c0.945-0.299,1.852-0.449,2.722-0.449c1.35,0,2.513,0.27,3.488,0.81c0.975,0.54,1.688,1.035,2.137,1.485
			c0.33-0.569,0.817-1.095,1.463-1.575c0.645-0.479,1.447-0.72,2.408-0.72c0.6,0,1.154,0.128,1.664,0.382
			c0.51,0.256,0.766,0.804,0.766,1.643c0,0.54-0.173,0.945-0.518,1.215c-0.346,0.271-0.697,0.405-1.058,0.405
			c-0.421,0-0.72-0.119-0.899-0.36c-0.181-0.239-0.338-0.494-0.473-0.765c-0.135-0.27-0.277-0.524-0.428-0.765
			s-0.375-0.36-0.675-0.36c-0.3,0-0.607,0.128-0.922,0.383s-0.593,0.548-0.833,0.877c0.27,0.301,0.615,0.811,1.035,1.53
			c0.42,0.72,0.63,1.62,0.63,2.7c0,0.899-0.225,1.726-0.675,2.475c-0.45,0.751-1.043,1.411-1.778,1.98
			c-0.735,0.57-1.59,1.013-2.565,1.327c-0.975,0.315-1.973,0.473-2.992,0.473c-1.051,0-1.965-0.142-2.745-0.428
			c-0.781-0.284-1.38-0.532-1.8-0.742c-0.33,0.15-0.683,0.314-1.057,0.495c-0.375,0.18-0.72,0.405-1.035,0.675
			s-0.578,0.593-0.788,0.968c-0.21,0.375-0.315,0.803-0.315,1.282c0,0.45,0.09,0.825,0.27,1.125s0.412,0.525,0.698,0.675
			c0.285,0.15,0.607,0.256,0.967,0.315c0.36,0.061,0.735,0.09,1.125,0.09h7.11c2.1,0,3.772,0.503,5.018,1.508
			c1.245,1.004,1.868,2.587,1.868,4.747c0,1.319-0.286,2.521-0.854,3.6c-0.571,1.08-1.328,2.018-2.273,2.812
			c-0.945,0.795-2.033,1.41-3.263,1.846c-1.23,0.435-2.49,0.652-3.78,0.652c-1.17,0-2.243-0.135-3.218-0.405
			c-0.975-0.27-1.822-0.638-2.542-1.103c-0.72-0.465-1.282-1.027-1.688-1.688c-0.405-0.66-0.607-1.395-0.607-2.205
			c0-0.78,0.158-1.492,0.473-2.138c0.315-0.645,0.72-1.215,1.215-1.71c0.495-0.494,1.058-0.922,1.688-1.282
			c0.63-0.359,1.26-0.66,1.89-0.899v-0.091c-1.98,0-3.443-0.322-4.388-0.967C181.335,361.725,180.863,360.622,180.863,359.062z
			 M187.613,363.337c-0.39,0.24-0.788,0.487-1.192,0.743c-0.405,0.254-0.765,0.577-1.08,0.967s-0.57,0.848-0.765,1.373
			c-0.195,0.524-0.292,1.177-0.292,1.957c0,1.08,0.187,1.973,0.562,2.678c0.375,0.705,0.855,1.274,1.44,1.71
			c0.585,0.435,1.238,0.742,1.958,0.923c0.72,0.18,1.425,0.27,2.115,0.27c1.08,0,2.062-0.165,2.947-0.495
			c0.885-0.33,1.65-0.772,2.295-1.327c0.645-0.556,1.14-1.192,1.485-1.912c0.344-0.721,0.518-1.471,0.518-2.25
			c0-1.681-0.458-2.873-1.373-3.578c-0.916-0.705-2.168-1.058-3.758-1.058H187.613z M194.903,348.712
			c0-0.689-0.045-1.387-0.135-2.092c-0.09-0.705-0.277-1.351-0.562-1.936s-0.72-1.058-1.305-1.417
			c-0.585-0.36-1.373-0.54-2.363-0.54c-1.53,0-2.685,0.465-3.465,1.395c-0.78,0.931-1.17,2.461-1.17,4.59
			c0,0.9,0.067,1.71,0.203,2.431c0.135,0.72,0.382,1.343,0.742,1.867c0.36,0.525,0.84,0.923,1.44,1.192
			c0.6,0.271,1.365,0.405,2.295,0.405c1.56,0,2.669-0.487,3.33-1.463C194.572,352.17,194.903,350.692,194.903,348.712z"/>
		<path fill="#231F20" d="M206.828,361.357h3.465v-31.186h-3.465v-0.63h7.334v17.686h0.09c0.15-0.39,0.406-0.878,0.766-1.463
			s0.848-1.14,1.463-1.665c0.614-0.524,1.364-0.975,2.25-1.35c0.885-0.375,1.941-0.562,3.172-0.562c1.98,0,3.593,0.48,4.838,1.439
			c1.244,0.961,1.867,2.491,1.867,4.591v13.14h3.465v0.63h-10.8v-0.63h3.466v-14.535c0-1.17-0.278-2.13-0.833-2.88
			c-0.556-0.75-1.417-1.125-2.587-1.125c-0.961,0-1.876,0.21-2.746,0.63c-0.87,0.421-1.635,1.006-2.295,1.755
			c-0.66,0.75-1.178,1.636-1.553,2.655c-0.375,1.021-0.562,2.13-0.562,3.33v10.17h3.465v0.63h-10.799V361.357z"/>
		<path fill="#231F20" d="M237.922,361.357h3.465v-18.045h-3.465v-0.63h7.336v18.675h3.465v0.63h-10.801V361.357z M240.848,332.197
			c0-0.659,0.231-1.222,0.697-1.688c0.465-0.465,1.027-0.697,1.688-0.697c0.659,0,1.222,0.232,1.688,0.697
			c0.465,0.466,0.697,1.028,0.697,1.688c0,0.66-0.232,1.223-0.697,1.688c-0.466,0.466-1.028,0.697-1.688,0.697
			c-0.66,0-1.223-0.231-1.688-0.697C241.079,333.42,240.848,332.857,240.848,332.197z"/>
		<path fill="#231F20" d="M254.706,342.683h7.335v20.205c0,1.439-0.038,2.632-0.112,3.577c-0.075,0.945-0.173,1.717-0.292,2.317
			c-0.121,0.6-0.256,1.072-0.405,1.418c-0.15,0.344-0.301,0.667-0.45,0.967c-0.36,0.721-0.772,1.32-1.237,1.801
			c-0.466,0.479-0.945,0.861-1.44,1.147c-0.495,0.284-0.997,0.479-1.507,0.585c-0.511,0.104-0.976,0.157-1.396,0.157
			c-0.48,0-1.005-0.083-1.575-0.248c-0.569-0.165-1.103-0.412-1.597-0.742c-0.496-0.33-0.915-0.758-1.261-1.282
			c-0.345-0.525-0.517-1.133-0.517-1.822c0-0.721,0.195-1.261,0.584-1.62c0.391-0.36,0.871-0.54,1.44-0.54
			c0.54,0,0.945,0.142,1.215,0.428c0.271,0.284,0.405,0.667,0.405,1.147c0,0.359-0.053,0.704-0.157,1.034
			c-0.105,0.33-0.158,0.75-0.158,1.261c0,0.6,0.195,1.042,0.585,1.327s0.825,0.428,1.306,0.428c0.869,0,1.537-0.354,2.002-1.058
			c0.465-0.705,0.697-1.838,0.697-3.397v-26.46h-3.465V342.683z M257.631,332.197c0-0.659,0.232-1.222,0.698-1.688
			c0.465-0.465,1.027-0.697,1.688-0.697c0.659,0,1.222,0.232,1.688,0.697c0.465,0.466,0.697,1.028,0.697,1.688
			c0,0.66-0.232,1.223-0.697,1.688c-0.466,0.466-1.028,0.697-1.688,0.697c-0.66,0-1.223-0.231-1.688-0.697
			C257.863,333.42,257.631,332.857,257.631,332.197z"/>
		<path fill="#231F20" d="M271.491,361.357h3.465v-31.186h-3.465v-0.63h7.335v21.511h0.495l8.955-7.74h-3.195v-0.63h6.976v0.63h-2.7
			l-7.02,6.03l9.944,12.015h1.936v0.63h-10.125v-0.63h3.194l-7.965-9.675h-0.495v9.675h2.476v0.63h-9.811V361.357z"/>
		<path fill="#231F20" d="M299.12,361.357h3.465v-31.186h-3.465v-0.63h7.335v31.815h3.465v0.63h-10.8V361.357z"/>
		<path fill="#231F20" d="M315.546,361.357h3.465v-18.045h-3.465v-0.63h7.244v4.725h0.091c0.63-1.8,1.537-3.12,2.722-3.96
			c1.186-0.84,2.617-1.26,4.298-1.26c1.5,0,2.827,0.33,3.982,0.99c1.154,0.66,1.913,1.755,2.272,3.284h0.09
			c0.21-0.54,0.495-1.064,0.855-1.574s0.81-0.968,1.35-1.373s1.178-0.727,1.913-0.968c0.734-0.239,1.567-0.359,2.497-0.359
			c4.38,0,6.57,2.235,6.57,6.705v12.465h3.465v0.63h-10.8v-0.63h3.465v-15.3c0-1.02-0.277-1.815-0.833-2.386
			c-0.555-0.569-1.312-0.854-2.272-0.854c-0.75,0-1.5,0.143-2.25,0.428s-1.425,0.713-2.024,1.282
			c-0.601,0.57-1.088,1.305-1.463,2.205c-0.375,0.899-0.562,1.95-0.562,3.149v11.476h3.465v0.63h-10.8v-0.63h3.465v-14.67
			c0-1.32-0.27-2.295-0.81-2.925c-0.54-0.631-1.26-0.945-2.16-0.945c-0.63,0-1.32,0.157-2.07,0.473
			c-0.75,0.314-1.447,0.81-2.092,1.484c-0.646,0.676-1.186,1.553-1.62,2.633c-0.436,1.08-0.652,2.4-0.652,3.96v9.99h3.465v0.63
			h-10.8V361.357z"/>
		<path fill="#231F20" d="M25.075,403.357h3.465v-18.045h-3.465v-0.63h7.245v4.814h0.09c0.18-0.39,0.442-0.885,0.788-1.484
			c0.344-0.601,0.817-1.186,1.417-1.756c0.6-0.569,1.35-1.057,2.25-1.462s1.995-0.607,3.285-0.607c1.98,0,3.592,0.48,4.837,1.439
			c1.245,0.961,1.867,2.491,1.867,4.591v13.14h3.465v0.63h-10.8v-0.63h3.465v-14.535c0-1.17-0.278-2.13-0.833-2.88
			c-0.556-0.75-1.417-1.125-2.587-1.125c-0.961,0-1.875,0.21-2.745,0.63c-0.871,0.421-1.636,1.006-2.295,1.755
			c-0.661,0.75-1.178,1.636-1.553,2.655c-0.375,1.021-0.562,2.13-0.562,3.33v10.17h3.465v0.63h-10.8V403.357z"/>
		<path fill="#231F20" d="M56.935,394.357c0-1.47,0.322-2.835,0.968-4.095c0.645-1.261,1.469-2.348,2.475-3.263
			c1.005-0.915,2.13-1.627,3.375-2.138c1.245-0.51,2.467-0.765,3.667-0.765c1.2,0,2.422,0.255,3.668,0.765
			c1.244,0.511,2.369,1.223,3.375,2.138c1.004,0.915,1.829,2.002,2.475,3.263c0.645,1.26,0.968,2.625,0.968,4.095
			c0,1.41-0.3,2.738-0.9,3.982c-0.601,1.245-1.388,2.333-2.363,3.263c-0.975,0.93-2.092,1.665-3.353,2.205
			c-1.26,0.54-2.55,0.81-3.87,0.81c-1.32,0-2.61-0.27-3.87-0.81c-1.26-0.54-2.378-1.275-3.353-2.205
			c-0.975-0.93-1.763-2.018-2.363-3.263C57.234,397.096,56.935,395.768,56.935,394.357z M61.435,394.357
			c0,2.13,0.165,3.825,0.495,5.085c0.33,1.26,0.765,2.228,1.305,2.902s1.17,1.118,1.89,1.327c0.72,0.211,1.485,0.315,2.295,0.315
			c0.81,0,1.575-0.104,2.295-0.315c0.72-0.209,1.35-0.652,1.89-1.327s0.975-1.643,1.305-2.902c0.33-1.26,0.495-2.955,0.495-5.085
			c0-1.8-0.12-3.308-0.36-4.522s-0.607-2.205-1.102-2.97c-0.495-0.766-1.118-1.312-1.868-1.643c-0.75-0.33-1.636-0.495-2.655-0.495
			c-1.02,0-1.905,0.165-2.655,0.495c-0.75,0.33-1.373,0.877-1.868,1.643c-0.495,0.765-0.862,1.755-1.103,2.97
			S61.435,392.558,61.435,394.357z"/>
		<path fill="#231F20" d="M84.655,415.957h3.465v-30.645h-3.465v-0.63H91.9v3.779h0.09c0.45-1.26,1.192-2.302,2.227-3.127
			c1.035-0.825,2.377-1.237,4.028-1.237c1.29,0,2.504,0.277,3.645,0.832c1.14,0.556,2.145,1.29,3.015,2.205s1.56,1.987,2.07,3.218
			c0.51,1.23,0.765,2.52,0.765,3.87c0,1.38-0.263,2.692-0.788,3.938c-0.525,1.245-1.238,2.348-2.138,3.308s-1.943,1.725-3.127,2.295
			c-1.186,0.569-2.438,0.854-3.757,0.854c-1.021,0-1.883-0.173-2.588-0.518c-0.705-0.345-1.282-0.749-1.732-1.215
			c-0.45-0.465-0.795-0.945-1.035-1.44c-0.241-0.494-0.405-0.892-0.495-1.192h-0.09v15.705h3.465v0.63h-10.8V415.957z
			 M103.24,393.683c0-1.38-0.076-2.617-0.225-3.713c-0.15-1.095-0.413-2.032-0.788-2.812c-0.375-0.779-0.9-1.38-1.575-1.8
			c-0.675-0.42-1.538-0.63-2.587-0.63c-1.11,0-2.025,0.195-2.745,0.585c-0.72,0.39-1.305,0.885-1.755,1.484
			c-0.331,0.421-0.593,0.871-0.788,1.351c-0.195,0.48-0.353,1.051-0.472,1.71c-0.121,0.66-0.203,1.417-0.248,2.272
			c-0.045,0.854-0.067,1.867-0.067,3.037c0,0.99,0.074,2.011,0.225,3.061c0.15,1.05,0.435,2.002,0.855,2.857
			c0.42,0.854,1.013,1.553,1.778,2.093c0.765,0.54,1.777,0.81,3.038,0.81c1.229,0,2.205-0.24,2.925-0.72
			c0.72-0.479,1.26-1.17,1.62-2.07c0.36-0.9,0.585-1.987,0.675-3.263C103.195,396.66,103.24,395.242,103.24,393.683z"/>
		<path fill="#231F20" d="M128.169,415.957h3.465v-15.705h-0.09c-0.09,0.301-0.255,0.698-0.495,1.192
			c-0.24,0.495-0.585,0.976-1.035,1.44c-0.45,0.466-1.028,0.87-1.733,1.215c-0.705,0.345-1.568,0.518-2.587,0.518
			c-1.32,0-2.573-0.285-3.757-0.854c-1.186-0.57-2.228-1.335-3.127-2.295s-1.613-2.062-2.138-3.308
			c-0.525-1.245-0.788-2.558-0.788-3.938c0-1.351,0.255-2.64,0.765-3.87c0.51-1.23,1.2-2.303,2.07-3.218s1.875-1.649,3.015-2.205
			c1.14-0.555,2.355-0.832,3.645-0.832c1.649,0,2.993,0.404,4.027,1.215c1.035,0.81,1.778,1.86,2.228,3.149h0.09v-3.779h7.245v0.63
			h-3.465v30.645h3.465v0.63h-10.8V415.957z M120.384,393.683c0,1.56,0.045,2.978,0.135,4.252c0.09,1.275,0.315,2.362,0.675,3.263
			s0.9,1.591,1.62,2.07s1.694,0.72,2.925,0.72c1.26,0,2.272-0.27,3.038-0.81s1.357-1.238,1.777-2.093
			c0.42-0.855,0.705-1.808,0.855-2.857c0.149-1.05,0.225-2.07,0.225-3.061c0-1.17-0.022-2.183-0.067-3.037
			c-0.045-0.855-0.128-1.612-0.248-2.272c-0.12-0.659-0.285-1.229-0.495-1.71c-0.21-0.479-0.465-0.93-0.765-1.351
			c-0.45-0.6-1.035-1.095-1.755-1.484c-0.72-0.39-1.635-0.585-2.745-0.585c-1.051,0-1.913,0.21-2.587,0.63
			c-0.675,0.42-1.201,1.021-1.575,1.8c-0.375,0.78-0.638,1.718-0.788,2.812C120.459,391.065,120.384,392.303,120.384,393.683z"/>
		<path fill="#231F20" d="M144.909,403.357h3.465v-18.045h-3.465v-0.63h7.245v4.545h0.09c0.12-0.45,0.315-0.96,0.585-1.53
			c0.27-0.569,0.645-1.117,1.125-1.643c0.48-0.524,1.058-0.968,1.733-1.327c0.675-0.36,1.492-0.54,2.452-0.54
			c0.69,0,1.29,0.112,1.8,0.337c0.51,0.226,0.929,0.511,1.26,0.855c0.33,0.345,0.57,0.742,0.72,1.192
			c0.15,0.45,0.225,0.9,0.225,1.35c0,0.99-0.225,1.65-0.675,1.98c-0.45,0.33-0.975,0.495-1.575,0.495c-1.321,0-1.98-0.42-1.98-1.26
			c0-0.271,0.029-0.487,0.09-0.653c0.06-0.164,0.127-0.329,0.203-0.494c0.074-0.165,0.142-0.353,0.202-0.562
			c0.06-0.21,0.09-0.51,0.09-0.9c0-0.96-0.525-1.44-1.575-1.44c-0.48,0-0.99,0.181-1.53,0.54c-0.54,0.36-1.043,0.886-1.508,1.575
			c-0.465,0.69-0.855,1.523-1.17,2.498s-0.473,2.092-0.473,3.353v10.305h3.915v0.63h-11.25V403.357z"/>
		<path fill="#231F20" d="M167.994,397.688h0.495c0.209,0.72,0.479,1.447,0.81,2.183c0.33,0.735,0.772,1.41,1.327,2.024
			c0.555,0.615,1.238,1.118,2.048,1.508c0.81,0.391,1.784,0.585,2.925,0.585c0.96,0,1.815-0.293,2.565-0.878
			c0.75-0.585,1.125-1.536,1.125-2.857c0-1.14-0.292-1.941-0.877-2.407c-0.585-0.465-1.268-0.832-2.047-1.103l-3.51-1.215
			c-0.45-0.149-0.938-0.338-1.462-0.562c-0.525-0.225-1.013-0.54-1.462-0.945c-0.45-0.404-0.818-0.922-1.103-1.552
			c-0.286-0.631-0.428-1.44-0.428-2.431c0-0.839,0.165-1.62,0.495-2.34c0.33-0.72,0.78-1.35,1.35-1.89
			c0.569-0.54,1.252-0.96,2.047-1.261c0.794-0.299,1.657-0.449,2.587-0.449c0.66,0,1.193,0.053,1.598,0.157
			c0.405,0.105,0.757,0.21,1.058,0.314c0.299,0.105,0.569,0.211,0.81,0.315c0.24,0.105,0.524,0.157,0.855,0.157
			c0.33,0,0.569-0.119,0.72-0.359h0.495v5.13h-0.495c-0.21-0.66-0.45-1.298-0.72-1.913c-0.27-0.614-0.593-1.162-0.968-1.643
			c-0.375-0.479-0.84-0.854-1.395-1.125c-0.555-0.27-1.208-0.404-1.958-0.404c-1.44,0-2.558,0.322-3.352,0.967
			c-0.795,0.646-1.193,1.508-1.193,2.588c0,0.961,0.337,1.688,1.013,2.183c0.675,0.495,1.672,0.953,2.993,1.372l3.285,1.08
			c1.41,0.48,2.565,1.141,3.465,1.98c0.9,0.84,1.35,1.95,1.35,3.33c0,0.81-0.157,1.605-0.472,2.385
			c-0.315,0.78-0.781,1.463-1.395,2.048c-0.615,0.585-1.366,1.058-2.25,1.417c-0.885,0.36-1.898,0.54-3.038,0.54
			c-0.66,0-1.268-0.067-1.823-0.202s-1.065-0.278-1.53-0.428c-0.465-0.149-0.893-0.293-1.283-0.428
			c-0.39-0.135-0.75-0.202-1.08-0.202c-0.331,0-0.57,0.067-0.72,0.202c-0.15,0.135-0.27,0.278-0.36,0.428h-0.495V397.688z"/>
		<path fill="#231F20" d="M188.874,384.683h3.465v-5.806c0.24,0.091,0.465,0.166,0.675,0.226c0.21,0.061,0.57,0.09,1.08,0.09
			c0.45,0,0.84-0.052,1.17-0.157s0.645-0.277,0.945-0.518v6.165h6.39v0.63h-6.39v14.715c0,0.84,0.082,1.522,0.248,2.048
			c0.165,0.524,0.382,0.93,0.652,1.215s0.562,0.473,0.877,0.562s0.623,0.135,0.922,0.135c1.05,0,1.897-0.383,2.543-1.147
			c0.645-0.765,1.057-1.643,1.237-2.633l0.63,0.226c-0.09,0.39-0.225,0.825-0.404,1.305c-0.181,0.48-0.459,0.938-0.833,1.372
			c-0.376,0.436-0.862,0.796-1.463,1.08c-0.601,0.285-1.35,0.428-2.25,0.428c-2.25,0-3.818-0.436-4.702-1.305
			c-0.885-0.87-1.328-2.1-1.328-3.69v-14.31h-3.465V384.683z"/>
		<path fill="#231F20" d="M232.163,403.987h-7.245v-4.545h-0.09c-0.27,0.601-0.593,1.208-0.967,1.822
			c-0.376,0.615-0.841,1.17-1.396,1.665c-0.556,0.495-1.2,0.9-1.935,1.215c-0.736,0.315-1.598,0.473-2.588,0.473
			c-1.201,0-2.176-0.135-2.926-0.405c-0.75-0.27-1.334-0.555-1.754-0.854c-0.211-0.149-0.443-0.338-0.698-0.562
			c-0.255-0.226-0.487-0.532-0.697-0.923c-0.21-0.39-0.39-0.892-0.54-1.507s-0.225-1.373-0.225-2.272v-12.78h-3.465v-0.63h7.334
			v13.814c0,0.78,0.053,1.501,0.158,2.16c0.104,0.66,0.307,1.237,0.607,1.732c0.299,0.495,0.689,0.886,1.17,1.17
			c0.479,0.286,1.109,0.428,1.891,0.428c0.658,0,1.342-0.194,2.047-0.585c0.705-0.39,1.35-0.945,1.936-1.665
			c0.584-0.72,1.072-1.582,1.462-2.588c0.39-1.004,0.585-2.137,0.585-3.397v-10.439h-3.42v-0.63h7.29v18.675h3.465V403.987z"/>
		<path fill="#231F20" d="M235.897,384.683h10.89v0.63h-3.689l5.805,14.13l6.03-14.13h-3.69v-0.63h6.841v0.63h-2.43l-8.506,20.16
			l-8.19-20.16h-3.06V384.683z"/>
		<path fill="#231F20" d="M261.637,384.683h10.845v0.63h-3.735l5.04,14.04l4.681-11.115l-1.125-2.925h-1.891v-0.63h8.955v0.63
			h-3.015l5.22,13.95l5.625-13.95h-4.229v-0.63h7.335v0.63h-2.386l-8.055,20.16l-6.12-16.335l-6.84,16.335l-7.245-20.16h-3.06
			V384.683z"/>
		<path fill="#231F20" d="M299.302,403.357h2.385l6.165-8.28l-6.705-9.765h-2.52v-0.63h10.575v0.63h-3.556l4.636,6.75l4.859-6.75
			h-3.33v-0.63h6.615v0.63h-2.385l-5.355,7.38l7.335,10.665h2.476v0.63h-10.53v-0.63h3.555l-5.265-7.65l-5.67,7.65h3.33v0.63h-6.615
			V403.357z"/>
		<path fill="#231F20" d="M323.512,384.683h11.024v0.63h-3.78l5.806,14.13l6.075-14.13h-3.735v-0.63h6.885v0.63h-2.43l-7.425,17.37
			c-0.57,1.29-1.11,2.587-1.62,3.893c-0.511,1.305-1.021,2.616-1.53,3.938c-0.42,1.08-0.84,2.024-1.26,2.835
			c-0.421,0.81-0.863,1.469-1.328,1.979c-0.465,0.51-0.967,0.893-1.507,1.147s-1.17,0.383-1.891,0.383
			c-0.87,0-1.567-0.135-2.092-0.405c-0.525-0.27-0.938-0.585-1.237-0.945c-0.3-0.359-0.495-0.735-0.586-1.125
			c-0.09-0.39-0.135-0.72-0.135-0.989c0-0.751,0.211-1.313,0.63-1.688c0.42-0.376,0.93-0.562,1.53-0.562
			c0.21,0,0.435,0.022,0.675,0.067s0.465,0.127,0.675,0.247s0.39,0.285,0.54,0.495s0.226,0.465,0.226,0.766
			c0,0.419-0.128,0.816-0.383,1.192c-0.255,0.374-0.383,0.787-0.383,1.237c0,0.39,0.105,0.645,0.315,0.765s0.495,0.181,0.855,0.181
			c0.479,0,0.922-0.113,1.327-0.338s0.802-0.593,1.192-1.103c0.39-0.511,0.78-1.178,1.17-2.003s0.825-1.838,1.305-3.037l1.98-5.04
			l-7.785-19.26h-3.104V384.683z"/>
		<path fill="#231F20" d="M352.086,384.683h14.265l-11.205,18.675h6.345c0.87,0,1.582-0.173,2.138-0.518
			c0.555-0.345,1.005-0.78,1.351-1.305c0.344-0.524,0.614-1.087,0.81-1.688s0.383-1.17,0.562-1.71h0.36l-0.585,5.85h-15.66
			l11.205-18.675h-3.87c-0.75,0-1.402,0.022-1.958,0.067c-0.555,0.045-1.057,0.202-1.507,0.473c-0.45,0.27-0.871,0.705-1.26,1.305
			c-0.391,0.601-0.811,1.455-1.261,2.565h-0.359L352.086,384.683z"/>
	</g>
	<g>
		<path fill="#FFFFFF" d="M102.003,436.435c0-1.8,0.142-3.682,0.428-5.647c0.285-1.964,0.817-3.764,1.597-5.399
			c0.78-1.635,1.852-2.978,3.218-4.027c1.365-1.05,3.127-1.575,5.288-1.575c2.16,0,3.922,0.525,5.287,1.575
			c1.365,1.05,2.437,2.393,3.218,4.027c0.78,1.636,1.312,3.436,1.598,5.399c0.285,1.966,0.427,3.848,0.427,5.647
			c0,1.831-0.143,3.729-0.427,5.693c-0.286,1.965-0.818,3.765-1.598,5.399c-0.781,1.636-1.853,2.978-3.218,4.027
			c-1.365,1.05-3.127,1.575-5.287,1.575c-2.16,0-3.923-0.525-5.288-1.575c-1.366-1.05-2.438-2.392-3.218-4.027
			c-0.78-1.635-1.312-3.435-1.597-5.399C102.146,440.163,102.003,438.266,102.003,436.435z M106.503,436.435
			c0,2.79,0.083,5.198,0.248,7.223c0.165,2.025,0.465,3.69,0.9,4.995c0.435,1.305,1.042,2.272,1.823,2.902
			c0.78,0.63,1.8,0.945,3.06,0.945c1.26,0,2.279-0.315,3.06-0.945c0.78-0.63,1.388-1.598,1.823-2.902
			c0.435-1.305,0.735-2.97,0.9-4.995c0.165-2.024,0.248-4.433,0.248-7.223s-0.083-5.189-0.248-7.199
			c-0.165-2.01-0.465-3.668-0.9-4.973c-0.435-1.306-1.043-2.272-1.823-2.902c-0.78-0.63-1.8-0.945-3.06-0.945
			c-1.26,0-2.28,0.315-3.06,0.945c-0.781,0.63-1.388,1.597-1.823,2.902c-0.435,1.305-0.735,2.963-0.9,4.973
			C106.586,431.245,106.503,433.645,106.503,436.435z"/>
		<path fill="#FFFFFF" d="M132.783,451.87h4.995v-28.53c-0.45,0.331-0.96,0.66-1.53,0.99l-5.13,2.925l-0.36-0.585
			c1.98-1.109,3.78-2.175,5.4-3.195c1.62-1.02,3.15-2.25,4.59-3.689h0.9v32.085h4.995v0.63h-13.86V451.87z"/>
		<path fill="#FFFFFF" d="M174.677,452.5h-20.565v-0.63c1.17-0.99,2.242-1.905,3.217-2.745c0.975-0.84,1.89-1.665,2.745-2.475
			c0.855-0.811,1.672-1.635,2.453-2.476c0.78-0.839,1.575-1.739,2.385-2.7c1.92-2.34,3.232-4.604,3.938-6.795
			c0.705-2.189,1.058-4.214,1.058-6.074c0-2.7-0.458-4.74-1.373-6.12c-0.916-1.38-2.362-2.07-4.342-2.07
			c-1.53,0-2.79,0.338-3.78,1.013c-0.99,0.675-1.485,1.612-1.485,2.812c0,0.42,0.097,0.848,0.292,1.282
			c0.195,0.436,0.292,0.878,0.292,1.327c0,0.511-0.18,0.894-0.54,1.147c-0.36,0.256-0.78,0.383-1.26,0.383
			c-0.63,0-1.17-0.164-1.62-0.495c-0.45-0.329-0.675-0.93-0.675-1.8c0-0.779,0.225-1.553,0.675-2.317s1.064-1.44,1.845-2.025
			c0.779-0.585,1.71-1.058,2.79-1.417c1.08-0.36,2.235-0.54,3.465-0.54c1.739,0,3.232,0.255,4.478,0.765
			c1.244,0.511,2.272,1.178,3.083,2.003s1.41,1.763,1.8,2.812c0.39,1.05,0.585,2.13,0.585,3.24c0,1.35-0.195,2.603-0.585,3.757
			c-0.39,1.155-0.922,2.243-1.598,3.263c-0.675,1.021-1.448,1.995-2.317,2.925c-0.871,0.931-1.785,1.86-2.745,2.79
			c-1.35,1.351-2.677,2.641-3.982,3.87c-1.305,1.23-2.738,2.55-4.297,3.96h10.305c1.77,0,3.044-0.428,3.825-1.282
			c0.78-0.855,1.26-2.032,1.44-3.532h0.495V452.5z"/>
		<path fill="#FFFFFF" d="M184.802,435.76c0.24-0.119,0.479-0.239,0.72-0.359c0.24-0.12,0.518-0.24,0.833-0.36
			c0.315-0.119,0.689-0.247,1.125-0.383c0.435-0.135,0.952-0.276,1.552-0.427c1.32-0.36,2.415-0.811,3.285-1.351
			c0.87-0.54,1.553-1.17,2.047-1.89c0.495-0.721,0.84-1.515,1.035-2.385c0.195-0.87,0.292-1.815,0.292-2.836
			c0-0.72-0.075-1.401-0.225-2.047c-0.15-0.645-0.405-1.215-0.765-1.71c-0.36-0.495-0.832-0.885-1.417-1.17
			c-0.585-0.285-1.327-0.428-2.227-0.428c-0.99,0-1.8,0.128-2.43,0.383s-1.118,0.555-1.462,0.899
			c-0.345,0.346-0.578,0.69-0.698,1.035c-0.12,0.346-0.18,0.623-0.18,0.833c0,0.81,0.127,1.425,0.382,1.845
			c0.254,0.42,0.382,0.795,0.382,1.125c0,0.54-0.188,0.915-0.562,1.125c-0.375,0.21-0.817,0.314-1.327,0.314
			c-1.321,0-1.98-0.645-1.98-1.935c0-0.39,0.127-0.938,0.382-1.643c0.254-0.704,0.697-1.402,1.328-2.093
			c0.63-0.689,1.477-1.282,2.542-1.777c1.064-0.495,2.392-0.742,3.982-0.742c1.44,0,2.692,0.225,3.757,0.675
			c1.064,0.45,1.942,1.013,2.633,1.688c0.689,0.675,1.199,1.41,1.53,2.205c0.329,0.795,0.495,1.553,0.495,2.272
			c0,1.26-0.368,2.34-1.103,3.24c-0.735,0.899-1.59,1.65-2.565,2.25c-0.976,0.601-1.958,1.065-2.948,1.395
			c-0.99,0.331-1.74,0.54-2.25,0.63v0.091c1.29,0.06,2.535,0.314,3.735,0.765c1.2,0.45,2.265,1.073,3.195,1.867
			c0.929,0.796,1.665,1.732,2.205,2.812s0.811,2.295,0.811,3.646c0,1.2-0.264,2.385-0.788,3.555c-0.525,1.17-1.26,2.221-2.205,3.15
			s-2.085,1.68-3.42,2.25c-1.335,0.569-2.812,0.854-4.433,0.854c-1.5,0-2.775-0.202-3.825-0.607c-1.05-0.405-1.92-0.945-2.61-1.62
			c-0.69-0.675-1.23-1.425-1.62-2.25c-0.39-0.824-0.66-1.672-0.81-2.542l0.63-0.136c0.06,0.421,0.209,0.99,0.45,1.71
			c0.24,0.721,0.653,1.44,1.238,2.16c0.585,0.721,1.395,1.343,2.43,1.868c1.035,0.524,2.377,0.787,4.028,0.787
			c0.929,0,1.8-0.135,2.61-0.405c0.81-0.27,1.507-0.765,2.092-1.484c0.585-0.721,1.042-1.702,1.373-2.948
			c0.33-1.244,0.495-2.842,0.495-4.792c0-0.99-0.075-1.973-0.225-2.947c-0.15-0.975-0.45-1.846-0.9-2.61s-1.065-1.388-1.845-1.867
			c-0.78-0.479-1.8-0.721-3.06-0.721c-1.051,0-2.01,0.158-2.88,0.473c-0.87,0.315-1.68,0.743-2.43,1.283L184.802,435.76z"/>
		<path fill="#FFFFFF" d="M216.526,451.87h4.005v-7.245h-12.825c1.109-2.399,2.167-4.604,3.173-6.615
			c1.005-2.01,1.919-3.772,2.745-5.287c0.824-1.515,1.529-2.768,2.115-3.758c0.585-0.99,0.996-1.665,1.237-2.024
			c1.08-1.71,1.957-3.038,2.632-3.983c0.676-0.944,1.253-1.657,1.732-2.137c0.48-0.479,0.893-0.772,1.238-0.878
			c0.344-0.104,0.742-0.157,1.192-0.157c0.779,0,1.282,0.112,1.507,0.337c0.226,0.226,0.338,0.473,0.338,0.743
			c0,0.15-0.083,0.33-0.247,0.54c-0.166,0.21-0.578,0.63-1.238,1.26c-0.69,0.66-1.327,1.29-1.912,1.89
			c-0.585,0.601-1.133,1.192-1.643,1.777c-0.511,0.586-1.013,1.171-1.508,1.756c-0.494,0.585-0.997,1.178-1.507,1.777
			c-1.8,2.13-3.413,4.433-4.838,6.907s-2.768,4.838-4.027,7.088h11.835v-12.016h3.87v12.016h4.005v0.765h-4.005v7.245h4.005v0.63
			h-11.88V451.87z"/>
		<path fill="#FFFFFF" d="M238.081,419.785h1.484c0.45,0.45,0.907,0.899,1.373,1.35c0.465,0.45,0.975,0.855,1.53,1.215
			c0.555,0.36,1.177,0.646,1.867,0.855c0.689,0.21,1.485,0.314,2.385,0.314c0.6,0,1.154-0.052,1.665-0.157
			c0.51-0.104,1.005-0.3,1.485-0.585c0.479-0.284,0.968-0.667,1.462-1.147c0.495-0.479,1.042-1.095,1.643-1.845l0.495,0.314
			c-0.81,1.11-1.545,2.086-2.205,2.926s-1.312,1.537-1.957,2.092c-0.646,0.556-1.328,0.968-2.048,1.238
			c-0.72,0.27-1.545,0.404-2.475,0.404c-0.54,0-1.043-0.037-1.508-0.112c-0.466-0.074-0.96-0.202-1.485-0.383
			c-0.524-0.18-1.087-0.396-1.688-0.652c-0.6-0.254-1.29-0.562-2.069-0.922l-1.71,10.935l0.09,0.09
			c0.689-0.99,1.635-1.77,2.835-2.34c1.199-0.569,2.61-0.855,4.229-0.855c1.62,0,3.053,0.278,4.298,0.833
			c1.244,0.556,2.287,1.282,3.128,2.183c0.839,0.899,1.469,1.928,1.89,3.082c0.42,1.155,0.63,2.333,0.63,3.533
			c0,0.899-0.173,1.973-0.518,3.217c-0.345,1.245-0.93,2.445-1.755,3.601s-1.942,2.138-3.353,2.947s-3.18,1.215-5.31,1.215
			c-1.591,0-2.888-0.202-3.893-0.607c-1.006-0.405-1.808-0.885-2.408-1.44c-0.6-0.555-1.012-1.125-1.237-1.71
			c-0.225-0.585-0.337-1.072-0.337-1.462c0-0.689,0.231-1.177,0.697-1.463c0.465-0.284,0.997-0.428,1.598-0.428
			c0.63,0,1.132,0.151,1.507,0.45c0.375,0.301,0.562,0.751,0.562,1.351c0,0.21-0.007,0.449-0.022,0.72
			c-0.015,0.27-0.022,0.495-0.022,0.675c0,1.351,0.375,2.235,1.125,2.655s1.755,0.63,3.016,0.63c0.989,0,1.852-0.164,2.587-0.495
			c0.735-0.33,1.357-0.915,1.868-1.755c0.51-0.84,0.892-1.973,1.147-3.397c0.254-1.425,0.382-3.232,0.382-5.423
			c0-1.26-0.09-2.399-0.27-3.42c-0.18-1.02-0.488-1.89-0.923-2.609c-0.435-0.721-1.027-1.275-1.777-1.665s-1.71-0.585-2.88-0.585
			c-1.35,0-2.475,0.202-3.375,0.607c-0.9,0.404-1.636,0.893-2.205,1.462c-0.57,0.57-0.998,1.17-1.282,1.8
			c-0.286,0.631-0.488,1.171-0.607,1.62l-0.495-0.135L238.081,419.785z"/>
		<path fill="#FFFFFF" d="M281.01,442.645c0,1.351-0.27,2.655-0.81,3.915c-0.54,1.261-1.268,2.378-2.183,3.353
			c-0.915,0.976-1.987,1.756-3.218,2.341s-2.535,0.877-3.915,0.877c-1.35,0-2.647-0.255-3.893-0.765s-2.348-1.328-3.308-2.453
			s-1.732-2.587-2.317-4.387c-0.585-1.801-0.877-3.99-0.877-6.57c0-2.67,0.337-5.167,1.013-7.492
			c0.675-2.325,1.612-4.357,2.812-6.098c1.199-1.74,2.602-3.105,4.207-4.096c1.604-0.989,3.353-1.484,5.242-1.484
			c1.141,0,2.093,0.173,2.857,0.518c0.766,0.345,1.38,0.78,1.846,1.305c0.465,0.525,0.794,1.096,0.99,1.71
			c0.194,0.615,0.292,1.192,0.292,1.732c0,0.66-0.218,1.215-0.652,1.665c-0.436,0.45-1.028,0.675-1.777,0.675
			c-1.381,0-2.07-0.51-2.07-1.529c0-0.271,0.052-0.51,0.157-0.721c0.105-0.209,0.226-0.435,0.36-0.675
			c0.135-0.239,0.263-0.51,0.383-0.81c0.119-0.3,0.18-0.675,0.18-1.125c0-0.78-0.255-1.328-0.765-1.643
			c-0.511-0.315-1.2-0.473-2.07-0.473c-1.141,0-2.146,0.27-3.015,0.81c-0.871,0.54-1.62,1.253-2.25,2.138
			c-0.631,0.886-1.155,1.891-1.575,3.016c-0.421,1.125-0.766,2.265-1.035,3.42c-0.271,1.155-0.488,2.272-0.652,3.353
			c-0.165,1.08-0.309,2.024-0.428,2.835l0.09,0.09c0.6-1.08,1.478-1.942,2.633-2.588c1.154-0.645,2.437-0.968,3.848-0.968
			c1.62,0,3.044,0.309,4.274,0.923c1.23,0.615,2.257,1.41,3.083,2.385c0.824,0.976,1.454,2.063,1.89,3.263
			C280.792,440.29,281.01,441.475,281.01,442.645z M276.51,442.51c0-1.89-0.143-3.435-0.427-4.635c-0.286-1.199-0.623-2.1-1.013-2.7
			c-0.391-0.6-0.923-1.087-1.598-1.462s-1.493-0.562-2.452-0.562c-1.501,0-2.708,0.322-3.623,0.967
			c-0.915,0.646-1.583,1.344-2.002,2.093c-0.271,0.511-0.45,1.065-0.54,1.665c-0.091,0.601-0.136,1.275-0.136,2.025
			c0,2.311,0.083,4.237,0.248,5.782c0.164,1.545,0.547,2.963,1.147,4.252c0.329,0.751,0.862,1.366,1.598,1.846
			c0.734,0.479,1.792,0.72,3.172,0.72c1.17,0,2.115-0.232,2.835-0.697c0.721-0.465,1.275-1.103,1.665-1.913
			c0.42-0.869,0.713-1.867,0.878-2.992C276.427,445.772,276.51,444.31,276.51,442.51z"/>
		<path fill="#FFFFFF" d="M288.479,420.46h17.505c-0.15,2.61-0.54,5.235-1.17,7.875c-0.63,2.641-1.32,5.085-2.069,7.335
			c-0.751,2.25-1.471,4.178-2.16,5.782c-0.69,1.605-1.155,2.663-1.396,3.173c-0.96,2.07-1.771,3.683-2.43,4.838
			c-0.66,1.155-1.237,2.002-1.732,2.542s-0.945,0.862-1.351,0.968c-0.404,0.104-0.817,0.157-1.237,0.157s-0.87-0.12-1.35-0.36
			c-0.48-0.24-0.72-0.614-0.72-1.125c0-0.569,0.187-1.026,0.562-1.372c0.374-0.345,0.832-0.787,1.372-1.327
			c1.289-1.261,2.369-2.393,3.24-3.397c0.869-1.005,1.62-1.965,2.25-2.88s1.185-1.823,1.665-2.723
			c0.479-0.9,0.975-1.875,1.484-2.926c0.78-1.619,1.425-3.164,1.936-4.635c0.51-1.47,0.907-2.782,1.192-3.938
			c0.285-1.154,0.487-2.115,0.607-2.88c0.119-0.765,0.194-1.267,0.225-1.508H293.79c-1.53,0-2.671,0.428-3.42,1.283
			c-0.751,0.854-1.216,2.002-1.396,3.442h-0.495V420.46z"/>
		<path fill="#FFFFFF" d="M313.499,444.67c0-1.289,0.277-2.414,0.833-3.375c0.555-0.96,1.229-1.784,2.024-2.475
			s1.635-1.261,2.521-1.71c0.885-0.45,1.643-0.811,2.272-1.08c-0.87-0.39-1.688-0.817-2.452-1.283
			c-0.766-0.464-1.426-1.004-1.98-1.619c-0.556-0.615-0.99-1.343-1.305-2.183c-0.315-0.84-0.473-1.86-0.473-3.061
			c0-1.17,0.262-2.25,0.787-3.24c0.524-0.989,1.207-1.845,2.048-2.564c0.84-0.72,1.792-1.282,2.857-1.688
			c1.064-0.405,2.152-0.607,3.263-0.607c1.02,0,2.024,0.157,3.015,0.473c0.99,0.314,1.867,0.765,2.633,1.35
			c0.765,0.585,1.379,1.29,1.845,2.115c0.465,0.825,0.697,1.748,0.697,2.768c0,0.96-0.165,1.808-0.495,2.542
			c-0.33,0.735-0.78,1.411-1.35,2.025c-0.57,0.615-1.215,1.178-1.935,1.688c-0.721,0.511-1.471,1.005-2.25,1.485
			c0.869,0.42,1.747,0.893,2.632,1.417c0.885,0.525,1.68,1.147,2.386,1.867c0.704,0.721,1.282,1.546,1.732,2.476
			c0.449,0.93,0.675,1.979,0.675,3.149c0,1.321-0.24,2.581-0.72,3.78c-0.48,1.2-1.178,2.258-2.093,3.173
			c-0.916,0.915-2.025,1.65-3.33,2.205s-2.783,0.832-4.433,0.832c-1.32,0-2.558-0.21-3.713-0.63s-2.152-1.005-2.992-1.755
			s-1.5-1.643-1.979-2.678C313.739,447.032,313.499,445.9,313.499,444.67z M317.189,444.985c0,0.989,0.112,1.935,0.337,2.835
			c0.226,0.899,0.585,1.703,1.08,2.407c0.495,0.705,1.14,1.26,1.936,1.665c0.794,0.405,1.762,0.607,2.902,0.607
			c0.99,0,1.874-0.247,2.655-0.742c0.779-0.495,1.454-1.109,2.024-1.846c0.569-0.734,1.005-1.552,1.306-2.452
			c0.299-0.9,0.449-1.755,0.449-2.565c0-1.289-0.232-2.362-0.697-3.217c-0.465-0.855-1.08-1.59-1.845-2.205
			c-0.765-0.614-1.636-1.162-2.61-1.643c-0.975-0.479-1.957-0.975-2.947-1.485c-0.99,0.48-1.785,1.028-2.385,1.643
			c-0.601,0.615-1.065,1.282-1.396,2.003c-0.33,0.72-0.548,1.5-0.652,2.34C317.241,443.17,317.189,444.056,317.189,444.985z
			 M318.044,426.4c0,0.96,0.143,1.785,0.428,2.475c0.285,0.69,0.697,1.29,1.237,1.8c0.21,0.21,0.524,0.45,0.945,0.72
			c0.42,0.271,0.885,0.548,1.395,0.833s1.058,0.57,1.643,0.854c0.585,0.286,1.163,0.562,1.732,0.833
			c0.36-0.21,0.728-0.487,1.103-0.833c0.375-0.344,0.728-0.779,1.058-1.305c0.33-0.524,0.6-1.147,0.811-1.867
			c0.209-0.72,0.314-1.545,0.314-2.476c0-0.899-0.061-1.77-0.18-2.609c-0.12-0.84-0.346-1.59-0.675-2.25
			c-0.331-0.66-0.818-1.185-1.463-1.575c-0.646-0.39-1.478-0.585-2.497-0.585c-1.8,0-3.226,0.556-4.275,1.665
			C318.568,423.19,318.044,424.63,318.044,426.4z"/>
		<path fill="#FFFFFF" d="M339.239,430.27c0-1.439,0.307-2.797,0.922-4.072c0.615-1.274,1.41-2.385,2.386-3.33
			c0.974-0.944,2.069-1.694,3.284-2.25c1.216-0.555,2.438-0.832,3.668-0.832c1.229,0,2.452,0.225,3.667,0.675
			c1.216,0.45,2.311,1.237,3.285,2.362s1.763,2.641,2.363,4.545c0.6,1.906,0.899,4.313,0.899,7.223c0,2.761-0.21,5.138-0.63,7.133
			s-0.967,3.683-1.643,5.062c-0.675,1.38-1.44,2.482-2.295,3.308c-0.855,0.825-1.718,1.462-2.588,1.912s-1.702,0.75-2.497,0.9
			c-0.795,0.149-1.479,0.225-2.048,0.225c-0.899,0-1.8-0.128-2.7-0.383c-0.899-0.254-1.71-0.607-2.43-1.057
			c-0.72-0.45-1.298-1.005-1.732-1.665c-0.436-0.66-0.652-1.396-0.652-2.205c0-1.02,0.255-1.718,0.765-2.093
			s1.095-0.562,1.755-0.562c0.721,0,1.23,0.173,1.53,0.518s0.45,0.697,0.45,1.058c0,0.24-0.061,0.465-0.18,0.675
			c-0.121,0.21-0.248,0.436-0.383,0.675c-0.135,0.24-0.255,0.518-0.36,0.833c-0.105,0.314-0.157,0.697-0.157,1.147
			c0,0.69,0.322,1.268,0.968,1.732c0.645,0.465,1.612,0.697,2.902,0.697c1.199,0,2.272-0.247,3.218-0.742
			c0.944-0.495,1.747-1.343,2.407-2.543c0.659-1.199,1.162-2.805,1.508-4.814c0.344-2.01,0.517-4.53,0.517-7.561h-0.09
			c-0.15,0.301-0.382,0.652-0.697,1.058c-0.314,0.405-0.728,0.795-1.237,1.17c-0.511,0.376-1.125,0.697-1.845,0.968
			c-0.721,0.27-1.561,0.405-2.521,0.405c-1.53,0-2.902-0.308-4.117-0.923c-1.215-0.614-2.243-1.41-3.083-2.385
			s-1.484-2.07-1.935-3.285S339.239,431.44,339.239,430.27z M343.739,430.225c0,1.2,0.052,2.371,0.157,3.511
			c0.104,1.14,0.345,2.159,0.72,3.06s0.938,1.628,1.688,2.183c0.75,0.556,1.77,0.832,3.061,0.832c0.329,0,0.832-0.067,1.507-0.202
			c0.676-0.135,1.357-0.428,2.048-0.877c0.689-0.45,1.289-1.118,1.8-2.003c0.51-0.885,0.766-2.077,0.766-3.577
			c0-0.87-0.03-1.823-0.091-2.857c-0.061-1.035-0.15-2.04-0.27-3.016c-0.12-0.975-0.277-1.874-0.473-2.7
			c-0.195-0.824-0.443-1.477-0.742-1.957c-0.271-0.479-0.721-0.968-1.351-1.463s-1.635-0.742-3.015-0.742
			c-1.17,0-2.131,0.225-2.88,0.675c-0.75,0.45-1.343,1.096-1.777,1.936c-0.436,0.84-0.735,1.867-0.9,3.082
			S343.739,428.695,343.739,430.225z"/>
	</g>
</g>
</svg>
