<?xml version="1.0" encoding="utf-8"?>
<!-- Generator: Adobe Illustrator 12.0.1, SVG Export Plug-In . SVG Version: 6.00 Build 51448)  -->
<!DOCTYPE svg PUBLIC "-//W3C//DTD SVG 1.1//EN" "http://www.w3.org/Graphics/SVG/1.1/DTD/svg11.dtd" [
	<!ENTITY ns_svg "http://www.w3.org/2000/svg">
	<!ENTITY ns_xlink "http://www.w3.org/1999/xlink">
]>
<svg  version="1.1" id="Layer_1" xmlns="&ns_svg;" xmlns:xlink="&ns_xlink;" width="198" height="234" viewBox="0 0 198 234"
	 overflow="visible" enable-background="new 0 0 198 234" xml:space="preserve">
<g>
	<rect fill-rule="evenodd" clip-rule="evenodd" fill="#FFFFFF" width="198" height="234"/>
	<path fill-rule="evenodd" clip-rule="evenodd" fill="#E9E4D1" d="M0,0h198v156H0V0z M0,0"/>
	<rect y="156" fill-rule="evenodd" clip-rule="evenodd" fill="#C8BE8D" width="198" height="78"/>
	<g>
		<path fill="#414142" d="M21.604,30.078c0,2.059,0.493,2.639,1.885,2.639v0.493h-5.974v-0.493c1.16,0,1.885-0.377,1.885-2.581
			V19.725c0-2.029-0.493-2.639-1.885-2.639v-0.493h6.061c4.582,0,6.438,2.437,6.438,4.728c0,2.755-2.088,4.292-5.858,4.292
			c-0.725,0-1.334-0.029-2.552-0.174V30.078z M21.604,24.684c0.754,0.262,1.189,0.29,2.059,0.29c2.465,0,4.031-1.334,4.031-3.596
			c0-1.769-0.986-4.146-4.031-4.146h-2.059V24.684z"/>
		<path fill="#414142" d="M33.523,26.946c-0.058,4.61,2.697,5.771,4.089,5.771c1.421,0,2.146-0.493,3.625-2.146v0.754
			c-1.247,1.595-2.436,2.204-4.234,2.204c-3.219,0-5.539-2.233-5.539-5.336c0-3.104,2.262-5.539,5.162-5.539
			c2.378,0,4.582,1.914,4.437,4.292H33.523z M39.12,26.453c0.087-2.262-1.45-3.19-2.755-3.19c-1.711,0-2.726,1.276-2.842,3.19H39.12
			z"/>
	</g>
	<g>
		<path fill="#414142" d="M47.146,31.267c0,1.132,0.348,1.45,1.711,1.45v0.493h-5.423v-0.493c1.566,0,1.74-0.406,1.74-1.972v-5.597
			c0-1.509-0.377-1.683-2.117-1.683v-0.493l3.596-0.318h0.493v2.232c1.914-1.652,2.813-2.232,3.509-2.232
			c0.58,0,1.363,0.348,1.885,0.812l-0.783,1.827c-0.841-0.464-1.74-0.899-2.436-0.899c-0.667,0-1.247,0.349-2.175,1.247V31.267z"/>
	</g>
	<g>
		<path fill="#414142" d="M56.125,25.061c0-1.392-0.261-1.595-1.798-1.595v-0.493l3.277-0.318h0.493v1.739
			c1.305-1.275,2.262-1.739,3.567-1.739c2.668,0,4.64,2.291,4.64,5.364c0,3.161-2.175,5.511-5.104,5.511
			c-1.102,0-1.943-0.319-3.103-1.219v6.758c0,1.246,0.261,1.711,1.711,1.711v0.492h-5.481v-0.492c1.392,0,1.798-0.29,1.798-1.421
			V25.061z M58.097,31.586c0.754,0.783,1.856,1.276,2.842,1.276c1.827,0,3.219-1.943,3.219-4.495c0-2.755-1.363-4.756-3.277-4.756
			c-1.044,0-1.827,0.435-2.784,1.537V31.586z"/>
		<path fill="#414142" d="M71.118,26.946c-0.058,4.61,2.697,5.771,4.089,5.771c1.421,0,2.146-0.493,3.625-2.146v0.754
			c-1.247,1.595-2.436,2.204-4.234,2.204c-3.219,0-5.539-2.233-5.539-5.336c0-3.104,2.262-5.539,5.162-5.539
			c2.378,0,4.582,1.914,4.437,4.292H71.118z M76.715,26.453c0.087-2.262-1.45-3.19-2.755-3.19c-1.711,0-2.726,1.276-2.842,3.19
			H76.715z"/>
		<path fill="#414142" d="M84.835,22.915h3.567v0.754h-3.567v6.612c0,1.421,0.725,2.146,1.856,2.146c0.754,0,1.305-0.29,1.914-0.985
			l0.319,0.377c-0.899,1.131-1.943,1.711-3.103,1.711c-1.74,0-2.958-1.219-2.958-2.987v-6.873H80.92v-0.493
			c1.392-0.695,2.552-1.942,3.422-3.712h0.493V22.915z"/>
		<path fill="#414142" d="M100.756,31.267c0,1.132,0.377,1.45,1.77,1.45v0.493l-3.742,0.203v-1.885h-0.058
			c-1.015,1.334-2.204,2.001-3.596,2.001c-2.03,0-3.364-1.537-3.364-3.451v-5.249c0-0.986-0.348-1.363-1.827-1.363v-0.493
			l3.306-0.318h0.493v7.337c0,1.45,0.928,2.319,2.32,2.319c0.986,0,1.885-0.551,2.726-1.682V25.09c0-1.421-0.232-1.595-2.001-1.624
			v-0.493l3.48-0.318h0.493V31.267z"/>
		<path fill="#414142" d="M112.065,30.832c0,1.188,0.116,1.595,0.58,1.595c0.319,0,0.464-0.261,0.696-0.985h0.492
			c-0.086,1.275-0.84,2.088-2,2.088c-0.871,0-1.393-0.436-1.74-1.45c-1.016,1.102-1.682,1.45-2.756,1.45
			c-1.594,0-2.928-1.219-2.928-2.727c0-2.929,4.002-2.812,5.684-3.799V26.25c0-1.45-0.842-2.494-2.291-2.494
			c-1.16,0-2.291,0.726-2.727,2.204l-0.521-0.145c0.436-1.914,1.943-3.161,3.799-3.161c1.711,0,3.712,0.985,3.712,3.77V30.832z
			 M110.094,27.642c-1.943,0.842-3.684,0.812-3.684,2.9c0,1.044,0.726,1.885,1.566,1.885c0.609,0,1.711-0.435,2.117-1.305V27.642z"
			/>
	</g>
	<g>
		<path d="M20.957,177.829c0,0.963,0.094,1.292,0.47,1.292c0.259,0,0.376-0.211,0.564-0.799h0.399
			c-0.07,1.034-0.681,1.692-1.621,1.692c-0.705,0-1.128-0.353-1.41-1.175c-0.823,0.893-1.363,1.175-2.232,1.175
			c-1.292,0-2.374-0.987-2.374-2.209c0-2.374,3.243-2.28,4.606-3.079v-0.61c0-1.176-0.682-2.021-1.856-2.021
			c-0.94,0-1.856,0.588-2.209,1.786l-0.423-0.117c0.353-1.552,1.575-2.562,3.079-2.562c1.387,0,3.008,0.799,3.008,3.055V177.829z
			 M19.359,175.244c-1.575,0.682-2.984,0.658-2.984,2.35c0,0.846,0.587,1.527,1.269,1.527c0.493,0,1.386-0.353,1.715-1.058V175.244z
			"/>
		<path d="M29.182,172.447c0.705-0.775,1.786-1.245,2.796-1.245c2.162,0,3.854,1.786,3.854,4.065c0,1.974-1.387,4.582-5.664,4.582
			c-0.682,0-1.457-0.07-2.585-0.258v-12.479c0-1.27-0.141-1.434-1.48-1.434v-0.399l2.679-0.282h0.4V172.447z M29.182,177.806
			c0,1.104,0.258,1.621,1.41,1.621c1.833,0,3.501-1.128,3.501-3.972c0-2.373-1.504-3.571-2.773-3.571
			c-0.846,0-1.48,0.353-2.138,1.175V177.806z"/>
		<path d="M48.593,174.14h-0.399c-0.353-1.504-1.41-2.468-2.797-2.468c-1.645,0-2.796,1.41-2.796,3.454
			c0,2.28,1.434,4.184,3.125,4.184c1.011,0,2.232-0.541,3.102-1.739v0.611c-0.893,1.222-2.162,1.833-3.666,1.833
			c-2.467,0-4.183-1.716-4.183-4.207c0-2.562,1.927-4.605,4.301-4.605c1.246,0,1.927,0.47,2.35,0.47c0.211,0,0.423-0.164,0.564-0.47
			h0.399V174.14z"/>
		<path d="M61.706,178.135c0,0.916,0.329,1.222,1.387,1.222v0.399h-4.841c-3.525,0-4.841-2.373-4.841-4.324
			c0-2.35,1.739-4.229,3.901-4.229c0.893,0,1.739,0.306,2.796,1.01v-5.099c0-1.199-0.282-1.434-1.104-1.434h-0.47v-0.399
			l2.773-0.282h0.399V178.135z M60.107,173.105c-0.658-0.894-1.574-1.41-2.42-1.41c-1.504,0-2.538,1.363-2.538,3.384
			c0,1.998,0.917,4.301,3.643,4.301c0.94,0,1.316-0.376,1.316-1.269V173.105z"/>
		<path d="M69.484,174.68c-0.047,3.736,2.186,4.677,3.313,4.677c1.151,0,1.739-0.399,2.938-1.739v0.611
			c-1.011,1.292-1.974,1.786-3.431,1.786c-2.608,0-4.488-1.81-4.488-4.324s1.833-4.488,4.183-4.488c1.927,0,3.713,1.551,3.596,3.478
			H69.484z M74.019,174.28c0.071-1.833-1.175-2.585-2.232-2.585c-1.386,0-2.209,1.034-2.303,2.585H74.019z"/>
		<path d="M83.466,178.111c0,0.939,0.423,1.245,1.198,1.245h0.4v0.399h-4.724v-0.399h0.376c0.846,0,1.151-0.306,1.151-1.104v-6.181
			h-1.151v-0.399c0.564-0.235,0.799-0.329,1.151-0.564v-1.645c0-2.021,0.963-4.465,3.572-4.465c0.917,0,1.786,0.259,2.35,0.682
			l-0.799,2.091h-0.399c0.117-1.574-0.587-2.279-1.575-2.279c-0.917,0-1.551,0.682-1.551,1.95v4.019h2.068v0.611h-2.068V178.111z"/>
		<path d="M99.141,172.236h-2.209c0.658,0.799,0.94,1.621,0.94,2.42c0,1.646-1.363,3.196-3.102,3.29
			c-1.292,0.07-2.703,1.034-2.703,1.551c0,0.282,0.047,0.329,0.165,0.471c0.658,0.775,5.029,0.775,6.204,1.95
			c0.494,0.493,0.682,0.893,0.682,1.48c0,1.95-2.256,3.478-5.123,3.478c-2.42,0-4.089-1.01-4.089-2.538
			c0-0.916,0.587-1.738,2.702-2.608v-0.047c-1.128-0.258-1.81-0.822-1.81-1.527c0-0.964,0.917-1.692,2.562-2.279v-0.047
			c-1.668-0.446-2.608-1.599-2.608-3.149c0-1.997,1.504-3.478,3.525-3.478c0.306,0,0.705,0.023,1.104,0.047
			c0.4,0.023,0.799,0.047,1.081,0.047h2.679V172.236z M93.359,181.918c-1.551,0.423-2.42,1.128-2.42,1.974
			c0,1.199,1.81,2.092,4.183,2.092c1.833,0,3.125-0.752,3.125-1.856C98.248,183.093,97.354,182.6,93.359,181.918z M94.299,177.523
			c1.222,0,2.068-1.081,2.068-3.008c0-1.692-0.823-2.844-2.044-2.844c-1.246,0-2.068,1.151-2.068,2.844
			C92.255,176.325,93.078,177.523,94.299,177.523z"/>
		<path d="M111.736,177.759c0,1.269,0.235,1.598,1.34,1.598v0.399h-4.324v-0.399c1.128,0,1.387-0.259,1.387-1.34v-4.112
			c0-1.104-0.658-1.81-1.669-1.81c-0.939,0-1.621,0.446-2.421,1.574v4.56c0,0.869,0.353,1.128,1.387,1.128v0.399h-4.465v-0.399
			c1.246-0.023,1.48-0.259,1.48-1.598v-10.834c0-1.081-0.306-1.245-1.48-1.245v-0.399l2.679-0.282h0.399v7.872
			c1.058-1.222,1.833-1.668,2.914-1.668c1.387,0,2.773,0.916,2.773,2.891V177.759z"/>
		<path d="M120.22,178.205c0,0.822,0.211,1.151,1.386,1.151v0.399h-4.559v-0.399c1.269,0,1.574-0.165,1.574-1.151v-5.1
			c0-1.151-0.353-1.246-1.574-1.246v-0.399l2.772-0.258h0.4V178.205z M120.454,167.912c0,0.563-0.446,1.034-1.011,1.034
			c-0.563,0-1.033-0.471-1.033-1.034c0-0.564,0.47-1.011,1.033-1.011C120.008,166.901,120.454,167.348,120.454,167.912z"/>
		<path d="M129.243,181.072c0,2.914-1.457,4.37-4.583,4.3v-0.399c2.068,0.023,2.985-0.963,2.985-3.666v-8.39
			c0-0.822-0.259-1.058-1.575-1.058v-0.399l2.773-0.258h0.399V181.072z M129.337,167.912c0,0.563-0.446,1.034-1.011,1.034
			c-0.563,0-1.033-0.471-1.033-1.034c0-0.564,0.47-1.011,1.033-1.011C128.891,166.901,129.337,167.348,129.337,167.912z"/>
		<path d="M142.779,178.299c0.775,0.775,1.222,1.011,2.044,1.058v0.399h-2.726l-4.324-4.23v2.656c0,0.963,0.329,1.175,1.387,1.175
			v0.399h-4.465v-0.399c1.269-0.023,1.48-0.235,1.48-1.598v-10.951c0-0.964-0.235-1.128-1.48-1.128v-0.399l2.679-0.282h0.399v10.527
			l2.232-2.044c0.869-0.799,0.964-1.598-0.376-1.622v-0.399h4.535v0.399h-0.399c-0.775,0-1.527,0.306-2.279,1.011l-2.162,1.975
			L142.779,178.299z"/>
		<path d="M150.346,166.808c0-0.799-0.259-1.128-1.128-1.128h-0.541v-0.399l2.867-0.282h0.399v13.184
			c0,0.893,0.282,1.175,1.292,1.175h0.212v0.399h-4.63v-0.399h0.424c0.846,0,1.104-0.353,1.104-1.574V166.808z"/>
		<path d="M172.389,178.205c0,0.846,0.281,1.151,1.41,1.151v0.399h-4.418v-0.399c1.175,0,1.409-0.235,1.409-1.598v-3.948
			c0-1.081-0.705-1.716-1.81-1.716c-0.893,0-1.621,0.493-2.35,1.598v4.466c0,0.869,0.259,1.198,1.387,1.198v0.399h-4.371v-0.399
			c1.128,0,1.387-0.117,1.387-1.598v-3.854c0-1.245-0.87-1.81-1.763-1.81c-0.94,0-1.856,0.658-2.397,1.598v4.536
			c0,0.846,0.353,1.151,1.41,1.151v0.376h-4.418v-0.399c0.987,0,1.41-0.094,1.41-1.34v-4.935c0-0.917-0.399-1.223-1.151-1.223
			h-0.517v-0.399l2.866-0.258h0.399v1.738h0.048c0.681-1.057,1.856-1.738,2.961-1.738s2.186,0.61,2.608,1.88
			c0.893-1.246,1.95-1.88,3.078-1.88c1.175,0,2.82,0.682,2.82,2.819V178.205z"/>
	</g>
	<g>
		<path d="M23.095,196.946c0,1.081,0.235,1.41,1.41,1.41v0.399h-4.441v-0.399c1.128,0,1.434-0.259,1.434-1.034v-4.348
			c0-1.339-0.964-1.903-1.857-1.903c-0.822,0-1.551,0.517-2.373,1.621v4.066c0,1.269,0.164,1.598,1.41,1.598v0.399h-4.395v-0.399
			c1.104,0,1.387-0.094,1.387-1.598v-4.677c0-1.011-0.259-1.223-1.387-1.223v-0.399l2.585-0.258h0.4v1.668
			c0.987-1.128,1.95-1.668,3.008-1.668c1.386,0,2.82,0.986,2.82,2.984V196.946z"/>
		<path d="M33.693,199.015c-2.608,0-4.559-1.88-4.559-4.395c0-2.538,1.951-4.418,4.559-4.418s4.559,1.88,4.559,4.418
			C38.252,197.135,36.302,199.015,33.693,199.015z M33.693,190.672c-1.762,0-2.82,1.551-2.82,3.948c0,2.139,0.893,3.924,2.82,3.924
			c1.974,0,2.82-1.903,2.82-3.924C36.514,192.528,35.621,190.672,33.693,190.672z"/>
		<path d="M44.245,192.152c0-1.128-0.211-1.293-1.457-1.293v-0.399l2.656-0.258h0.399v1.41c1.058-1.034,1.833-1.41,2.89-1.41
			c2.162,0,3.76,1.856,3.76,4.348c0,2.562-1.763,4.465-4.136,4.465c-0.893,0-1.574-0.259-2.514-0.987v5.476
			c0,1.011,0.211,1.387,1.386,1.387v0.399h-4.441v-0.399c1.128,0,1.457-0.235,1.457-1.151V192.152z M45.843,197.439
			c0.611,0.635,1.504,1.034,2.303,1.034c1.48,0,2.609-1.574,2.609-3.643c0-2.232-1.104-3.854-2.656-3.854
			c-0.846,0-1.48,0.353-2.256,1.245V197.439z"/>
		<path d="M65.724,203.69c0,0.94,0.306,1.199,1.434,1.199v0.399h-4.395v-0.399c1.011,0,1.363-0.235,1.363-1.176v-5.357
			c-0.823,0.47-1.504,0.658-2.468,0.658c-2.444,0-4.136-1.669-4.136-4.137c0-2.326,1.434-4.418,5.64-4.418
			c0.752,0,2.186,0.095,2.562,0.118V203.69z M64.126,191.165c-0.447-0.094-0.705-0.117-1.104-0.117c-2.327,0-3.76,1.41-3.76,3.666
			c0,1.598,0.846,3.666,3.032,3.666c0.611,0,1.151-0.164,1.833-0.54V191.165z"/>
		<path d="M74.348,197.182c0,0.916,0.282,1.175,1.386,1.175v0.399H71.34v-0.399c1.269,0,1.41-0.329,1.41-1.598v-4.536
			c0-1.222-0.305-1.363-1.715-1.363v-0.399l2.914-0.258h0.399v1.81c1.551-1.34,2.279-1.81,2.843-1.81
			c0.47,0,1.104,0.281,1.528,0.657l-0.635,1.481c-0.681-0.376-1.41-0.729-1.974-0.729c-0.54,0-1.01,0.281-1.762,1.01V197.182z"/>
	</g>
	<g>
		<path d="M88.564,192.764c-0.165-1.387-1.081-2.092-2.068-2.092c-0.823,0-1.387,0.446-1.387,1.128c0,2.115,4.371,1.551,4.371,4.653
			c0,1.387-1.199,2.562-2.632,2.562c-0.917,0-1.716-0.611-2.115-0.611c-0.306,0-0.517,0.259-0.541,0.564h-0.399v-2.844h0.399
			c0.353,1.739,1.645,2.42,2.679,2.42c0.822,0,1.457-0.61,1.457-1.433c0-2.327-4.418-1.692-4.418-4.513
			c0-1.292,1.151-2.396,2.538-2.396c0.87,0,1.128,0.399,1.692,0.399c0.211,0,0.376-0.118,0.493-0.399h0.399v2.562H88.564z"/>
		<path d="M97.283,190.413h2.891v0.611h-2.891v5.358c0,1.151,0.587,1.738,1.504,1.738c0.611,0,1.057-0.234,1.551-0.799l0.259,0.306
			c-0.729,0.916-1.575,1.387-2.515,1.387c-1.41,0-2.397-0.987-2.397-2.421v-5.569H94.11v-0.399c1.128-0.564,2.068-1.574,2.773-3.008
			h0.399V190.413z"/>
		<path d="M113.146,197.182c0,0.916,0.305,1.175,1.434,1.175v0.399l-3.032,0.164v-1.527H111.5c-0.822,1.081-1.786,1.622-2.914,1.622
			c-1.645,0-2.726-1.246-2.726-2.797v-4.253c0-0.8-0.282-1.105-1.48-1.105v-0.399l2.679-0.258h0.399v5.945
			c0,1.175,0.752,1.88,1.88,1.88c0.799,0,1.527-0.446,2.209-1.363v-4.488c0-1.151-0.188-1.292-1.621-1.316v-0.399l2.82-0.258h0.399
			V197.182z"/>
		<path d="M123.978,196.734l1.622-4.206c0.399-1.081,0.399-1.574-0.823-1.669v-0.399h3.056v0.399
			c-0.964,0.095-1.198,0.306-1.599,1.199l-2.679,6.885h-0.399l-2.655-6.532c-0.564-1.363-0.775-1.504-1.763-1.552v-0.399h4.019
			v0.399c-0.799,0.071-1.011,0.518-0.635,1.434L123.978,196.734z"/>
		<path d="M137.232,196.734l1.95-5.005c-0.353-0.682-0.563-0.846-1.222-0.87v-0.399h4.019v0.399
			c-1.104,0.024-1.222,0.494-0.939,1.199l1.856,4.676l1.715-4.347c0.399-1.034,0.259-1.504-0.846-1.528v-0.399h3.243v0.399
			c-1.128,0-1.387,0.165-1.927,1.528l-2.586,6.556h-0.399l-2.655-6.556l-2.608,6.556h-0.399l-2.914-7.167
			c-0.212-0.54-0.635-0.917-1.527-0.917v-0.399h4.042v0.399c-0.917,0.024-1.058,0.306-0.682,1.223L137.232,196.734z"/>
		<path d="M159.369,197.369c0.541,0.705,1.081,0.987,1.856,0.987v0.399h-4.371v-0.399c0.752-0.117,0.752-0.517,0.376-1.034
			l-1.457-1.997l-1.48,1.856c-0.493,0.61-0.399,1.128,0.282,1.175v0.399h-3.384v-0.399c1.081,0,1.41-0.094,2.468-1.363l1.81-2.139
			l-1.975-2.585c-0.846-1.104-1.245-1.339-2.303-1.41v-0.399h4.582v0.399c-0.846,0.071-0.939,0.494-0.399,1.246l1.104,1.551
			l1.128-1.387c0.588-0.705,0.635-1.41-0.211-1.41v-0.399h3.29v0.399c-1.034,0.118-1.434,0.377-2.444,1.575l-1.387,1.645
			L159.369,197.369z"/>
		<path d="M170.884,196.829l1.457-4.395c0.329-0.987,0.258-1.527-0.658-1.575v-0.399h2.938v0.399c-0.894,0-1.434,0.564-1.903,1.951
			l-3.313,9.799c-0.658,1.928-1.739,3.032-2.75,3.032c-0.353,0-0.61-0.095-1.034-0.353l0.541-1.434
			c0.329,0.141,0.517,0.188,0.799,0.188c1.011,0,1.598-0.587,2.115-2.044l1.081-3.008l-2.984-6.886
			c-0.424-0.964-0.729-1.222-1.692-1.246v-0.399h3.995v0.399c-0.635,0.095-0.894,0.564-0.588,1.27L170.884,196.829z"/>
		<path d="M186.299,190.859l-5.287,7.497h2.585c1.646,0,2.468-0.541,2.515-2.139h0.399l-0.212,2.538h-7.19v-0.399l5.287-7.497
			h-2.326c-1.434,0-2.421,0.776-2.562,2.021h-0.399l0.211-2.421h6.979V190.859z"/>
	</g>
	<g>
		<path fill="#FFFFFF" d="M58.173,217.968c-2.232,0-4.019-1.81-4.019-4.019c0-2.232,1.786-4.019,4.019-4.019
			c2.209,0,4.019,1.786,4.019,4.019C62.192,216.158,60.382,217.968,58.173,217.968z M58.173,211.129c-1.551,0-2.82,1.269-2.82,2.82
			c0,1.551,1.269,2.819,2.82,2.819c1.551,0,2.82-1.269,2.82-2.819C60.994,212.397,59.725,211.129,58.173,211.129z"/>
		<path fill="#FFFFFF" d="M74.248,210.095c-1.34,0.07-1.34,0.329-1.34,1.669v3.877c0,1.387,0,1.716,1.34,1.716v0.399h-4.183v-0.399
			c1.269-0.023,1.316-0.353,1.316-1.669v-3.924c0-1.058,0-1.151-0.258-1.387c-0.282-0.235-0.541-0.259-1.058-0.282v-0.399h4.183
			V210.095z"/>
		<path fill="#FFFFFF" d="M89.193,217.756h-5.828v-0.376c1.081-0.94,3.831-3.596,3.831-5.711c0-1.104-0.799-2.067-1.81-2.067
			c-0.729,0-1.504,0.517-1.762,1.434l-0.376-0.095c0.094-0.587,0.235-1.457,0.987-2.091c0.494-0.423,1.151-0.658,1.81-0.658
			c1.645,0,2.679,1.41,2.679,2.797c0,1.198-0.541,2.279-1.903,3.83c-0.329,0.376-1.01,1.128-2.021,1.997h4.395V217.756z"/>
		<path fill="#FFFFFF" d="M96.783,220.74c1.104,0.822,2.044,0.822,2.256,0.822c0.705,0,2.327-0.47,2.327-2.562
			c0-1.058-0.564-3.125-2.68-3.125c-0.352,0-0.564,0.047-0.775,0.094l-0.07-0.423c1.574-0.446,1.645-0.47,2.115-0.822
			c0.729-0.541,1.105-1.363,1.105-2.162c0-1.175-0.775-2.209-1.857-2.209c-0.94,0-1.339,0.658-1.504,0.963l-0.353-0.211
			c0.141-0.306,0.329-0.752,1.011-1.104c0.541-0.282,1.104-0.306,1.339-0.306c1.504,0,2.891,1.058,2.891,2.679
			c0,1.88-1.504,2.585-2.232,2.938c2.044,0.471,2.749,2.045,2.749,3.173c0,1.551-1.222,3.596-3.783,3.596
			c-1.339,0-2.35-0.588-2.773-1.011L96.783,220.74z"/>
	</g>
	<g>
		<path fill="#FFFFFF" d="M115.459,216.604h3.384v1.081h-3.384v4.301h-1.434v-4.301h-5.24v-0.446l6.345-8.202h0.329V216.604z
			 M114.025,211.552l-3.9,5.053h3.9V211.552z"/>
		<path fill="#FFFFFF" d="M131.862,210.424h-3.831l-1.222,5.217c2.068-0.047,3.313,1.293,3.313,3.126
			c0,2.726-2.538,3.313-3.713,3.313c-1.551,0-2.186-0.705-2.632-1.175l0.258-0.306c0.306,0.281,0.964,0.893,2.068,0.893
			c0.752,0,2.279-0.376,2.279-2.35c0-0.471-0.07-1.387-1.034-2.045c-0.705-0.493-1.48-0.423-2.138-0.376l1.598-7.026h5.053V210.424z
			"/>
		<path fill="#FFFFFF" d="M145.187,206.382c-3.972,0.353-5.664,3.713-5.593,6.557c0.916-1.151,1.88-1.551,2.984-1.551
			c2.139,0,3.125,1.833,3.125,3.195c0,1.975-1.691,3.385-3.736,3.385c-2.35,0-4.112-1.975-4.112-4.513
			c0-5.217,4.841-7.543,7.332-7.473V206.382z M142.202,217.474c0.916,0,1.856-0.846,1.856-2.42c0-2.021-1.457-2.727-2.327-2.727
			c-1.081,0-1.762,0.822-2.138,1.293C139.57,216.534,141.168,217.474,142.202,217.474z"/>
	</g>
	<g>
		<path fill="#FFFFFF" d="M156.849,217.263c-1.104,3.454-3.267,4.652-5.005,4.512v-0.399c1.95,0,2.702-1.95,3.524-4.488l1.998-6.251
			h-3.761c-0.657,0-0.893,0.281-1.104,0.61l-0.376,0.87h-0.376l0.611-2.421h6.909L156.849,217.263z"/>
		<path fill="#FFFFFF" d="M172.312,214.725c0,1.198-0.822,3.243-3.525,3.243c-2.091,0-3.243-1.41-3.243-2.844
			c0-0.987,0.471-2.021,2.351-3.173c-0.588-0.446-1.903-1.457-1.903-3.125c0-1.387,1.175-2.844,3.102-2.844
			c1.551,0,2.984,1.034,2.984,2.679c0,0.94-0.517,1.669-0.986,2.021c-0.142,0.117-0.847,0.634-0.987,0.752
			C171.065,212.187,172.312,213.126,172.312,214.725z M166.742,214.842c0,1.222,0.939,2.585,2.443,2.585
			c0.775,0,1.928-0.446,1.928-1.81c0-1.387-1.081-2.186-2.797-3.337C166.836,213.126,166.742,214.442,166.742,214.842z
			 M170.995,208.99c0-1.457-0.986-2.468-2.232-2.468c-1.151,0-1.691,0.87-1.691,1.528c0,0.211,0.023,1.081,0.869,1.833
			c0.869,0.775,1.457,1.081,1.739,1.222C170.243,210.729,170.995,210.236,170.995,208.99z"/>
	</g>
	<g>
		<path fill="#FFFFFF" d="M178.538,221.21c1.41-0.094,2.843-0.446,4.065-1.409c1.95-1.528,2.42-4.371,2.443-5.218
			c-0.752,0.894-1.691,1.48-2.819,1.48c-1.575,0-3.196-1.081-3.196-3.031c0-1.645,1.316-3.337,3.619-3.337
			c2.655,0,4.112,2.326,4.112,4.559c0,3.666-3.689,7.614-8.225,7.355V221.21z M184.766,212.14c-0.423-1.199-1.363-1.951-2.327-1.951
			c-0.258,0-1.81,0.142-1.81,2.28c0,1.762,1.011,2.772,2.092,2.772c1.246,0,2.068-1.128,2.326-1.48
			C185.023,213.385,184.977,212.727,184.766,212.14z"/>
	</g>
	<g>
		<path fill="#FFFFFF" d="M170.84,87.608c0,5.453,0.531,7.315,2.659,7.315c1.463,0,2.128-1.197,3.192-4.522h2.261
			c-0.399,5.853-3.856,9.576-9.177,9.576c-3.99,0-6.385-1.995-7.98-6.649c-4.654,5.054-7.714,6.649-12.635,6.649
			c-7.314,0-13.434-5.586-13.434-12.502c0-13.433,18.354-12.9,26.068-17.423v-3.458c0-6.65-3.857-11.438-10.507-11.438
			c-5.319,0-10.507,3.324-12.502,10.107l-2.394-0.665c1.994-8.777,8.91-14.497,17.423-14.497c7.847,0,17.024,4.522,17.024,17.29
			V87.608z M161.795,72.979c-8.91,3.857-16.891,3.725-16.891,13.3c0,4.788,3.324,8.646,7.182,8.646c2.793,0,7.848-1.995,9.709-5.985
			V72.979z"/>
	</g>
	<g>
		<path d="M26.669,64.892h-4.995l-1.053,3.104c-0.513,1.512-0.783,2.673,0.837,2.7v0.459h-3.996v-0.459
			c1.458-0.216,1.809-0.999,2.295-2.43l4.266-12.744h1.593l4.482,13.311c0.459,1.432,0.837,1.863,2.214,1.863v0.459h-5.454v-0.459
			c1.053,0,1.566-0.459,1.215-1.512L26.669,64.892z M24.185,57.386h-0.054l-2.16,6.561h4.347L24.185,57.386z"/>
		<path d="M41.222,68.941c0,1.106,0.108,1.485,0.54,1.485c0.297,0,0.432-0.243,0.648-0.919h0.459
			c-0.081,1.188-0.783,1.944-1.863,1.944c-0.81,0-1.296-0.405-1.62-1.35c-0.945,1.025-1.566,1.35-2.565,1.35
			c-1.485,0-2.727-1.134-2.727-2.538c0-2.727,3.726-2.619,5.292-3.537v-0.702c0-1.35-0.783-2.321-2.133-2.321
			c-1.08,0-2.133,0.675-2.538,2.052l-0.486-0.135c0.405-1.782,1.809-2.943,3.537-2.943c1.593,0,3.456,0.918,3.456,3.51V68.941z
			 M39.386,65.972c-1.809,0.782-3.429,0.756-3.429,2.699c0,0.973,0.675,1.756,1.458,1.756c0.567,0,1.593-0.405,1.971-1.216V65.972z"
			/>
	</g>
	<g>
		<path d="M28.262,96.157c0,1.323,0.297,1.539,1.539,1.539l-0.108,0.459h-4.725l-0.081-0.459c1.242,0,1.512-0.27,1.512-1.404v-4.374
			H22.97l-1.539,2.619c-0.756,1.296-1.215,2.188-1.215,2.619c0,0.405,0.324,0.54,1.188,0.54l-0.108,0.459h-3.915l0.108-0.459
			c1.188-0.108,1.701-0.54,2.592-2.025l7.695-12.824h0.486V96.157z M26.399,86.113h-0.054l-2.997,5.211h3.051V86.113z"/>
		<path d="M39.656,95.617c-0.243,1.134,0,1.755,1.134,1.62l-0.108,0.459l-3.159,0.702l0.378-1.729l-0.054-0.054
			c-0.972,1.27-1.971,1.836-3.159,1.836c-1.701,0-2.592-0.972-2.592-2.781c0-3.051,2.781-6.695,8.235-6.695h0.756L39.656,95.617z
			 M33.608,95.212c0,1.377,0.675,2.16,1.836,2.16c0.945,0,1.701-0.485,2.619-1.565l1.242-5.832
			C35.714,89.542,33.608,92.296,33.608,95.212z"/>
	</g>
	<g>
		<path d="M62.529,71.345c1.026,0.837,2.889,4.319,5.535,4.319c0.351,0,1.026-0.107,1.404-0.243l0.162,0.433
			c-0.837,0.378-1.701,0.513-2.565,0.513c-4.941,0-6.102-4.05-8.019-5.021c-3.024-0.621-6.453-3.618-6.453-7.938
			c0-4.077,3.213-8.1,8.208-8.1c4.698,0,8.343,3.537,8.343,8.1C69.144,67.159,66.471,70.562,62.529,71.345z M60.963,55.9
			c-3.645,0-5.994,2.97-5.994,7.533c0,4.428,2.349,7.506,5.832,7.506c3.591,0,5.967-2.89,5.967-7.398
			C66.768,58.033,63.744,55.9,60.963,55.9z"/>
		<path d="M81.24,76.825c0,1.08,0.351,1.377,1.647,1.377v0.459h-5.049v-0.459c1.161,0,1.566-0.27,1.566-1.35v-6.156
			c-0.945,0.54-1.728,0.756-2.835,0.756c-2.808,0-4.752-1.917-4.752-4.752c0-2.673,1.647-5.076,6.48-5.076
			c0.864,0,2.511,0.108,2.943,0.135V76.825z M79.404,62.435c-0.513-0.108-0.81-0.136-1.269-0.136c-2.673,0-4.32,1.62-4.32,4.213
			c0,1.836,0.972,4.212,3.483,4.212c0.702,0,1.323-0.189,2.106-0.621V62.435z"/>
	</g>
	<g>
		<path d="M63.212,82.847c3.024,0,4.941,2.159,4.941,5.589c0,4.238-2.727,8.612-6.237,9.747c3.591,3.429,5.994,4.725,8.235,4.725
			c1.647,0,3.267-0.594,4.536-1.701l0.324,0.324c-1.647,1.62-3.807,2.619-5.724,2.619c-2.916,0-6.75-2.269-9.666-5.67
			c-2.754-0.297-4.509-2.431-4.509-5.508C55.112,88.381,58.433,82.847,63.212,82.847z M60.593,97.886
			c3.672,0,5.562-5.806,5.562-9.909c0-2.673-1.431-4.536-3.456-4.536c-3.51,0-5.589,5.562-5.589,9.882
			C57.11,96.076,58.487,97.886,60.593,97.886z"/>
		<path d="M77.575,102.826c-0.216,1.026-0.027,1.539,0.675,1.539c0.378,0,0.729-0.027,0.918-0.027l-0.135,0.514l-2.889,0.729h-0.702
			l1.809-8.559l-0.054-0.055c-1.053,1.107-1.836,1.485-2.97,1.485c-1.674,0-2.673-1.134-2.673-3.078
			c0-2.105,1.188-3.726,2.916-4.914c1.593-1.08,3.942-1.62,6.048-1.484L77.575,102.826z M78.088,89.894
			c-1.485-0.055-2.727,0.459-3.591,1.35c-0.891,0.918-1.35,2.214-1.35,3.727c0,1.403,0.783,2.402,1.971,2.402
			c0.918,0,1.485-0.324,2.322-1.296l1.323-6.156L78.088,89.894z"/>
	</g>
	<g>
		<path d="M93.877,68.239c0,1.89,0.486,2.457,1.755,2.457v0.459H90.07v-0.459c1.188,0,1.755-0.378,1.755-2.457v-9.693
			c0-2.024-0.513-2.402-1.755-2.402v-0.459h6.345c3.483,0,5.157,1.998,5.157,4.05c0,1.701-0.918,3.132-3.187,3.807
			c2.89,1.863,3.86,6.966,6.427,7.155v0.459h-3.16C98.764,67.646,97.954,64,95.119,64h-1.242V68.239z M93.877,63.353h1.89
			c2.619,0,3.645-1.782,3.645-3.564c0-2.052-1.539-3.51-3.915-3.51h-1.62V63.353z"/>
		<path d="M109.564,69.347c0,1.053,0.323,1.35,1.592,1.35v0.459h-5.049v-0.459c1.459,0,1.621-0.378,1.621-1.836v-5.211
			c0-1.404-0.352-1.566-1.972-1.566v-0.459l3.349-0.297h0.459v2.079c1.781-1.539,2.618-2.079,3.267-2.079
			c0.54,0,1.269,0.324,1.755,0.756l-0.729,1.701c-0.783-0.432-1.621-0.837-2.269-0.837c-0.621,0-1.161,0.324-2.024,1.161V69.347z"/>
	</g>
	<g>
		<path d="M95.625,95.833c-0.297,1.404-0.135,1.836,1.242,1.863l-0.081,0.459h-4.779l0.081-0.459
			c1.242-0.135,1.458-0.756,1.674-1.863l2.565-12.042c-0.891,0.136-1.647,0.621-2.538,1.674l-0.405-0.242
			c1.08-1.566,2.7-2.376,4.752-2.376c2.808,0,4.778,1.539,4.778,3.726c0,1.809-1.133,3.051-3.212,3.564v0.054
			c1.161,0.324,1.863,1.269,2.862,3.78c1.161,2.889,1.269,3.617,2.134,3.726l-0.082,0.459h-3.941l0.08-0.459
			c0.729,0,1.027-0.297,1.027-0.675c0-0.514-2.026-5.319-2.782-6.075c-0.378-0.378-1.08-0.621-1.755-0.621
			c-0.135,0-0.27,0-0.459,0.027L95.625,95.833z M96.92,89.785c0.324,0.054,0.54,0.081,0.81,0.081c2.052,0,3.186-1.215,3.186-3.429
			c0-1.62-0.917-2.592-2.699-2.809L96.92,89.785z"/>
		<path d="M109.098,92.513l0.055,0.054c0.323-0.918,0.539-1.323,0.863-1.917c0.594-1.08,1.35-1.674,1.998-1.674
			c0.404,0,0.729,0.216,1.08,0.756l-0.918,1.646c-0.648-0.675-0.837-0.81-1.053-0.81c-0.756,0-2.053,3.104-2.35,4.509l-0.297,1.377
			c-0.189,0.837,0.135,1.242,0.999,1.242h0.378l-0.081,0.459h-4.374l0.081-0.459c1.054,0,1.216-0.189,1.539-1.755l0.892-4.131
			c0.188-0.892,0.188-1.647-0.541-1.647c-0.377,0-0.674,0.081-0.891,0.108l0.107-0.54l2.701-0.621h0.539L109.098,92.513z"/>
	</g>
	<g>
		<path fill="#929497" d="M58.09,141.395v-21.136c0-1.916-0.952-2.905-2.854-2.966v-0.307h8.405v0.308
			c-0.795,0.024-1.46,0.265-1.997,0.724c-0.536,0.457-0.804,1.205-0.804,2.242v21.845c0,1.218-0.166,2.261-0.498,3.129
			c-0.332,0.868-0.769,1.555-1.312,2.062c-0.543,0.506-1.13,0.867-1.763,1.085c-0.632,0.216-1.273,0.325-1.924,0.325
			c-0.735,0-1.382-0.115-1.942-0.344c-0.56-0.23-1.036-0.511-1.427-0.843c-0.391-0.332-0.792-0.728-1.201-1.187l0.181-0.199
			c1,0.818,2.107,1.229,3.324,1.229c1.65,0,2.698-0.572,3.144-1.717C57.867,144.498,58.09,143.082,58.09,141.395z"/>
		<path fill="#929497" d="M96.046,143.611h-5.604v-4.396l-0.09-0.072c-0.77,1.796-1.922,3.109-3.456,3.94
			c-1.534,0.831-3.137,1.247-4.81,1.247c-1.889,0-3.588-0.452-5.098-1.356s-2.62-2.02-3.33-3.346
			c-0.505-0.94-0.824-1.92-0.957-2.938s-0.198-2.076-0.198-3.174V120.26c0-0.796-0.16-1.465-0.479-2.008
			c-0.319-0.542-1.081-0.861-2.285-0.958v-0.308h8.369v0.308c-1.229,0.145-2.012,0.501-2.349,1.067
			c-0.337,0.566-0.506,1.199-0.506,1.898v13.043c0,2.652,0.271,4.612,0.812,5.879c0.577,1.35,1.443,2.405,2.597,3.165
			s2.465,1.14,3.933,1.14c0.613,0,1.34-0.108,2.182-0.326c0.842-0.217,1.629-0.578,2.363-1.085c2.2-1.507,3.301-3.925,3.301-7.253
			V120.26c0-0.734-0.169-1.387-0.506-1.953c-0.337-0.566-1.132-0.904-2.385-1.013v-0.308h8.531v0.307
			c-1.229,0.061-2.018,0.404-2.367,1.031c-0.35,0.627-0.524,1.259-0.524,1.897v20.173c0,0.699,0.117,1.25,0.352,1.653
			s0.56,0.69,0.976,0.858c0.416,0.17,0.924,0.308,1.527,0.416V143.611z"/>
	</g>
	<g>
		<path fill="#929497" d="M102.182,117.287v-0.301h10.231c1.432,0,2.752,0.123,3.961,0.369s2.292,0.573,3.248,0.981
			s1.784,0.854,2.481,1.341s1.287,0.982,1.769,1.486c0.845,0.844,1.562,1.781,2.153,2.812c0.591,1.031,1.034,2.12,1.33,3.266
			c0.295,1.146,0.443,2.328,0.443,3.545c0,1.219-0.145,2.376-0.434,3.474s-0.705,2.114-1.248,3.048
			c-0.541,0.936-1.189,1.782-1.942,2.542s-1.63,1.447-2.63,2.062c-0.854,0.506-1.834,0.916-2.941,1.229s-2.604,0.47-4.493,0.47
			h-11.929v-0.289h0.361c0.83,0,1.451-0.312,1.86-0.939s0.614-1.291,0.614-1.99v-20.104c0-0.675-0.111-1.241-0.334-1.7
			c-0.223-0.457-0.521-0.789-0.895-0.994s-0.789-0.307-1.246-0.307H102.182z M107.768,118.232v21.111
			c0,1.037,0.165,1.801,0.496,2.289c0.33,0.488,0.844,0.805,1.541,0.949s1.72,0.217,3.066,0.217c1.924,0,3.547-0.189,4.869-0.57
			c1.322-0.379,2.604-1.227,3.842-2.541c0.913-0.977,1.646-2.17,2.199-3.582c0.553-1.41,0.83-3.117,0.83-5.119
			c0-1.58-0.223-3.145-0.668-4.694c-0.444-1.55-1.123-2.927-2.037-4.134c-1.021-1.362-2.336-2.43-3.94-3.201
			c-1.605-0.771-3.538-1.158-5.798-1.158C111.002,117.799,109.535,117.943,107.768,118.232z"/>
		<path fill="#929497" d="M155.637,116.986v3.92h-0.312c0-0.529-0.15-1.033-0.451-1.508c-0.302-0.477-0.684-0.861-1.148-1.156
			c-0.463-0.295-0.941-0.443-1.436-0.443h-7.027v11.938h5.217c0.879,0,1.682-0.184,2.41-0.551c0.728-0.367,1.092-1.068,1.092-2.105
			h0.312v6.016h-0.312c0-0.939-0.35-1.598-1.047-1.978c-0.698-0.38-1.48-0.569-2.347-0.569h-5.325v9.883
			c0,0.82,0.188,1.419,0.561,1.799c0.375,0.379,1.002,0.568,1.883,0.568h3.639c0.93,0,1.699-0.108,2.309-0.325
			s1.125-0.581,1.548-1.093s0.767-1.172,1.032-1.979h0.289l-0.885,4.209h-15.961v-0.289c1.891-0.048,2.836-1.012,2.836-2.891v-9.883
			h-6.001l-3.922,7.877l-0.072,0.199c-0.687,1.373-1.029,2.379-1.029,3.018c0,0.445,0.108,0.785,0.325,1.021s0.467,0.392,0.75,0.47
			c0.282,0.078,0.641,0.142,1.074,0.189v0.289h-6.25v-0.289c0.783-0.108,1.412-0.379,1.888-0.812s0.942-1.126,1.399-2.078
			l11.657-23.445H155.637z M136.853,129.736h5.659V118.33h-0.072L136.853,129.736z"/>
	</g>
	<g>
		<path fill="#929497" d="M171.857,116.674l8,22.784c0.422,1.179,0.818,2.032,1.192,2.561c0.373,0.529,0.731,0.862,1.075,1.001
			c0.343,0.139,0.779,0.231,1.31,0.279v0.312h-8.707v-0.312c0.896,0,1.585-0.084,2.069-0.252s0.727-0.625,0.727-1.371
			c0-0.408-0.115-0.955-0.344-1.641c-0.049-0.096-0.072-0.168-0.072-0.217l-2.38-7.051h-9.201l-2.106,6.527
			c-0.291,0.891-0.437,1.605-0.437,2.146c0,0.746,0.187,1.242,0.561,1.488s0.905,0.369,1.593,0.369v0.312h-6.258v-0.312
			c0.891-0.084,1.604-0.424,2.141-1.02c0.536-0.594,1.003-1.499,1.4-2.713l7.5-22.893H171.857z M165.841,131.83h8.45l-4.336-12.656
			h-0.071L165.841,131.83z"/>
	</g>
</g>
</svg>
